<?xml version="1.0" encoding="UTF-8"?>
<!DOCTYPE svg PUBLIC "-//W3C//DTD SVG 1.1//EN" "http://www.w3.org/Graphics/SVG/1.1/DTD/svg11.dtd">
<!-- Creator: CorelDRAW 2017 -->
<svg xmlns="http://www.w3.org/2000/svg" xml:space="preserve" version="1.1" style="shape-rendering:geometricPrecision; text-rendering:geometricPrecision; image-rendering:optimizeQuality; fill-rule:evenodd; clip-rule:evenodd"
viewBox="0 0 1652.43 783.22"
 xmlns:xlink="http://www.w3.org/1999/xlink">
 <defs>
  <style type="text/css">
   <![CDATA[
    .str0 {stroke:black;stroke-width:19.65;stroke-miterlimit:22.9256}
    .fil0 {fill:none}
    .fil1 {fill:black}
    .fil2 {fill:#FEFEFE;fill-rule:nonzero}
   ]]>
  </style>
 </defs>
 <g id="Слой_x0020_1">
  <metadata id="CorelCorpID_0Corel-Layer"/>
  <path class="fil0 str0" d="M68.79 9.83l1514.85 0c32.43,0 58.96,26.54 58.96,58.96l0 385.43c0,32.43 -26.53,58.96 -58.96,58.96l-343.02 0c-26.5,146.77 -203.43,260.22 -417.76,260.22 -214.33,0 -391.26,-113.45 -417.76,-260.22l-336.32 0c-32.43,0 -58.96,-26.53 -58.96,-58.96l0 -385.43c0,-32.42 26.53,-58.96 58.96,-58.96z"/>
  <path class="fil1" d="M1192.76 519.46c-36.5,118.83 -188.47,207.95 -370.44,207.95 -175.25,0 -322.66,-82.66 -365.92,-194.91l0.32 0.17 -9.53 -32.35c-3.82,-16.47 -18.6,-28.74 -36.23,-28.74l-25.62 0 -101.26 0 -211.16 0c-12.97,0 -23.58,-10.61 -23.58,-23.58l0 -368.83c0,-12.97 10.61,-23.58 23.58,-23.58l1504.48 0c12.97,0 23.58,10.61 23.58,23.58l0 368.83c0,12.97 -10.61,23.58 -23.58,23.58 -109.21,0 -218.42,0 -327.63,0 -49.12,0 -44.86,2.51 -57.02,47.87z"/>
  <path class="fil2" d="M224.2 340.35c0,17.02 -0.39,29.04 -1.21,36.1 -0.78,7.1 -3.28,13.56 -7.49,19.41 -4.21,5.85 -9.92,10.35 -17.09,13.49 -7.17,3.14 -15.51,4.71 -25.04,4.71 -9.06,0 -17.16,-1.5 -24.36,-4.46 -7.2,-2.96 -13.02,-7.38 -17.37,-13.31 -4.39,-5.92 -6.99,-12.38 -7.85,-19.33 -0.82,-6.99 -1.25,-19.19 -1.25,-36.6l0 -28.97c0,-17.02 0.39,-29.04 1.21,-36.1 0.79,-7.1 3.28,-13.56 7.49,-19.41 4.21,-5.85 9.92,-10.35 17.09,-13.49 7.17,-3.14 15.52,-4.71 25.04,-4.71 9.06,0 17.16,1.5 24.37,4.46 7.2,2.96 13.02,7.38 17.37,13.31 4.39,5.92 6.99,12.38 7.85,19.33 0.82,6.99 1.25,19.19 1.25,36.6l0 28.97zm-44.09 -55.61c0,-7.85 -0.43,-12.88 -1.29,-15.09 -0.86,-2.18 -2.61,-3.28 -5.24,-3.28 -2.25,0 -3.96,0.89 -5.17,2.68 -1.18,1.75 -1.78,6.99 -1.78,15.69l0 79.01c0,9.81 0.39,15.88 1.18,18.16 0.78,2.32 2.6,3.46 5.46,3.46 2.92,0 4.82,-1.32 5.64,-3.96 0.82,-2.64 1.21,-8.95 1.21,-18.91l0 -77.77z"/>
  <path id="1" class="fil2" d="M258.01 241.11l44.09 0 0.21 71.49c8.17,-0.21 12.38,-4.82 12.66,-13.8l0.82 -33.03c0.28,-12.17 2.64,-20.4 7.06,-24.65l40.67 0c-3.92,4.1 -5.85,12.63 -5.78,25.51l0.21 29.04c0.14,17.55 -9.74,27.57 -29.68,30 19.94,2.43 29.82,12.59 29.68,30.43l-0.21 26.93c-0.07,12.84 1.86,21.98 5.78,27.4l-40.67 0c-4.71,-4.25 -7.06,-12.48 -7.06,-24.68l0 -33c0,-4.21 -1.25,-7.56 -3.75,-10.09 -2.53,-2.54 -5.78,-3.86 -9.74,-3.93l-0.21 71.7 -44.09 0 0 -169.3z"/>
  <polygon id="2" class="fil2" points="478.63,241.11 478.63,274.93 452.73,274.93 452.73,410.41 408.64,410.41 408.64,274.93 382.53,274.93 382.53,241.11 "/>
  <path id="3" class="fil2" d="M603.97 410.41l-44.09 0 0 -76.2c-5.57,0 -9.17,0.93 -10.81,2.78 -1.64,1.82 -2.46,5.88 -2.46,12.16l0 61.25 -40.88 0 0 -50.48c0,-8.56 0.46,-15.09 1.43,-19.55 0.93,-4.46 3.11,-8.17 6.53,-11.1 3.42,-2.92 8.85,-5.35 16.26,-7.31 -10.13,-0.89 -16.69,-3.78 -19.72,-8.6 -3,-4.85 -4.5,-13.56 -4.5,-26.08 0,-11.3 1.39,-20.12 4.17,-26.5 2.78,-6.38 6.85,-10.95 12.13,-13.73 5.28,-2.78 11.38,-4.49 18.3,-5.06 6.89,-0.61 17.7,-0.89 32.39,-0.89l31.25 0 0 169.3zm-44.09 -102.73l0 -37.46 -2.11 0c-3.68,0 -6.45,0.82 -8.34,2.46 -1.89,1.64 -2.82,5.14 -2.82,10.53l0 9.31c0,6.28 0.78,10.38 2.35,12.27 1.57,1.93 5.21,2.89 10.92,2.89z"/>
  <path id="4" class="fil2" d="M740.91 370.81c0,12.59 -1.64,21.65 -4.93,27.15 -3.25,5.53 -8.24,8.95 -14.87,10.35 -6.67,1.39 -17.27,2.1 -31.82,2.1l-50.9 0 0 -169.3 86.25 0 0 29.32 -42.16 0 0 28.68 6.81 0c13.56,0 23.87,0.79 30.82,2.39 6.95,1.61 12.16,5.14 15.62,10.63 3.46,5.46 5.17,14.06 5.17,25.76l0 32.92zm-44.09 -5.1l0 -24.47c0,-7.13 -0.71,-11.45 -2.14,-12.99 -1.43,-1.53 -5.5,-2.39 -12.2,-2.6l0 55.65c5.6,0 9.38,-0.71 11.34,-2.14 2,-1.43 3,-5.92 3,-13.45z"/>
  <path id="5" class="fil2" d="M773.75 241.11l44.34 0c11.99,0 21.19,0.93 27.65,2.82 6.42,1.89 11.27,4.6 14.52,8.13 3.25,3.57 5.42,7.88 6.6,12.91 1.14,5.07 1.71,12.88 1.71,23.47l0 14.73c0,10.77 -1.1,18.66 -3.35,23.58 -2.21,4.96 -6.31,8.78 -12.24,11.41 -5.95,2.64 -13.73,3.96 -23.33,3.96l-11.81 0 0 68.28 -44.09 0 0 -169.3zm44.09 28.89l0 43.13c1.25,0.07 2.32,0.11 3.21,0.11 4.03,0 6.81,-1 8.38,-3 1.54,-1.96 2.32,-6.1 2.32,-12.38l0 -13.95c0,-5.78 -0.89,-9.56 -2.71,-11.31 -1.78,-1.75 -5.53,-2.6 -11.2,-2.6z"/>
  <path id="6" class="fil2" d="M1000.98 370.81c0,12.59 -1.64,21.65 -4.93,27.15 -3.25,5.53 -8.24,8.95 -14.87,10.35 -6.67,1.39 -17.27,2.1 -31.82,2.1l-50.9 0 0 -169.3 44.09 0 0 58 6.81 0c13.56,0 23.87,0.79 30.82,2.39 6.95,1.61 12.16,5.14 15.62,10.63 3.46,5.46 5.17,14.06 5.17,25.76l0 32.92zm-44.09 -5.1l0 -24.47c0,-7.13 -0.71,-11.45 -2.14,-12.99 -1.43,-1.53 -5.5,-2.39 -12.2,-2.6l0 55.65c5.6,0 9.38,-0.71 11.34,-2.14 2,-1.43 3,-5.92 3,-13.45z"/>
  <path id="7" class="fil2" d="M1136.55 314.95l-44.09 0 0 -29.39c0,-8.56 -0.46,-13.88 -1.39,-16.02 -0.93,-2.11 -3,-3.18 -6.17,-3.18 -3.57,0 -5.85,1.29 -6.82,3.85 -0.96,2.61 -1.46,8.17 -1.46,16.73l0 78.55c0,8.24 0.5,13.59 1.46,16.12 0.96,2.5 3.14,3.75 6.49,3.75 3.25,0 5.38,-1.25 6.39,-3.78 1,-2.5 1.5,-8.42 1.5,-17.73l0 -21.3 44.09 0 0 6.6c0,17.55 -1.25,30 -3.71,37.31 -2.46,7.35 -7.96,13.77 -16.41,19.3 -8.49,5.53 -18.91,8.28 -31.32,8.28 -12.88,0 -23.51,-2.32 -31.89,-6.99 -8.35,-4.67 -13.91,-11.13 -16.63,-19.41 -2.71,-8.28 -4.06,-20.69 -4.06,-37.28l0 -49.44c0,-12.2 0.43,-21.33 1.25,-27.43 0.86,-6.1 3.32,-11.98 7.49,-17.62 4.14,-5.64 9.88,-10.09 17.23,-13.34 7.35,-3.25 15.8,-4.85 25.36,-4.85 12.95,0 23.65,2.5 32.11,7.53 8.42,5 13.95,11.24 16.63,18.73 2.64,7.49 3.96,19.12 3.96,34.92l0 16.09z"/>
  <path id="8" class="fil2" d="M1169.58 241.11l44.09 0 0.21 71.49c8.17,-0.21 12.38,-4.82 12.66,-13.8l0.82 -33.03c0.28,-12.17 2.64,-20.4 7.06,-24.65l40.67 0c-3.92,4.1 -5.85,12.63 -5.78,25.51l0.21 29.04c0.14,17.55 -9.74,27.57 -29.68,30 19.94,2.43 29.82,12.59 29.68,30.43l-0.21 26.93c-0.07,12.84 1.86,21.98 5.78,27.4l-40.67 0c-4.71,-4.25 -7.06,-12.48 -7.06,-24.68l0 -33c0,-4.21 -1.25,-7.56 -3.75,-10.09 -2.53,-2.54 -5.78,-3.86 -9.74,-3.93l-0.21 71.7 -44.09 0 0 -169.3z"/>
  <path id="9" class="fil2" d="M1377.54 241.11l25.19 169.3 -44.99 0 -2.39 -30.39 -15.87 0 -2.39 30.39 -45.56 0 22.33 -169.3 63.67 0zm-23.36 108.94c-2.11,-19.19 -4.32,-42.95 -6.67,-71.31 -4.35,32.53 -7.1,56.29 -8.28,71.31l14.95 0z"/>
  <path id="10" class="fil2" d="M1525.57 410.41l-44.09 0 0 -76.2c-5.57,0 -9.17,0.93 -10.81,2.78 -1.64,1.82 -2.46,5.88 -2.46,12.16l0 61.25 -40.88 0 0 -50.48c0,-8.56 0.46,-15.09 1.43,-19.55 0.93,-4.46 3.11,-8.17 6.53,-11.1 3.42,-2.92 8.85,-5.35 16.26,-7.31 -10.13,-0.89 -16.69,-3.78 -19.72,-8.6 -3,-4.85 -4.5,-13.56 -4.5,-26.08 0,-11.3 1.39,-20.12 4.17,-26.5 2.78,-6.38 6.85,-10.95 12.13,-13.73 5.28,-2.78 11.38,-4.49 18.3,-5.06 6.89,-0.61 17.7,-0.89 32.39,-0.89l31.25 0 0 169.3zm-44.09 -102.73l0 -37.46 -2.11 0c-3.68,0 -6.45,0.82 -8.34,2.46 -1.89,1.64 -2.82,5.14 -2.82,10.53l0 9.31c0,6.28 0.78,10.38 2.35,12.27 1.57,1.93 5.21,2.89 10.92,2.89z"/>
  <path class="fil2" d="M667.07 539.16c5.29,1.8 9.21,4.72 11.81,8.77 2.57,4.08 3.87,13.62 3.87,28.61 0,11.14 -1.27,19.79 -3.81,25.93 -2.54,6.14 -6.91,10.81 -13.14,14 -6.23,3.22 -14.21,4.81 -23.95,4.81 -11.05,0 -19.76,-1.86 -26.05,-5.58 -6.32,-3.72 -10.48,-8.3 -12.46,-13.7 -1.98,-5.37 -2.98,-14.76 -2.98,-28.11l0 -11.07 34.9 0 0 22.8c0,6.08 0.36,9.95 1.09,11.58 0.71,1.65 2.33,2.48 4.82,2.48 2.72,0 4.52,-1.03 5.37,-3.13 0.86,-2.06 1.3,-7.5 1.3,-16.27l0 -9.72c0,-5.37 -0.59,-9.3 -1.8,-11.78 -1.21,-2.48 -3.01,-4.11 -5.38,-4.87 -2.36,-0.8 -6.94,-1.24 -13.73,-1.36l0 -20.37c8.3,0 13.41,-0.33 15.38,-0.95 1.95,-0.65 3.36,-2.01 4.22,-4.16 0.86,-2.13 1.3,-5.46 1.3,-10.01l0 -7.77c0,-4.9 -0.5,-8.12 -1.51,-9.69 -1.03,-1.56 -2.6,-2.33 -4.72,-2.33 -2.45,0 -4.11,0.83 -4.99,2.45 -0.92,1.65 -1.36,5.14 -1.36,10.51l0 11.49 -34.9 0 0 -11.93c0,-13.38 3.07,-22.38 9.19,-27.08 6.11,-4.7 15.83,-7.06 29.15,-7.06 16.65,0 27.97,3.25 33.9,9.78 5.94,6.52 8.91,15.59 8.91,27.16 0,7.86 -1.06,13.53 -3.19,17.01 -2.15,3.48 -5.9,6.67 -11.25,9.57z"/>
  <path id="1" class="fil2" d="M781.49 594.53l0 23.92 -76.89 0 0.06 -20.02c22.8,-37.23 36.35,-60.27 40.66,-69.13 4.31,-8.86 6.47,-15.77 6.47,-20.7 0,-3.81 -0.68,-6.64 -1.98,-8.53 -1.3,-1.86 -3.28,-2.81 -5.94,-2.81 -2.66,0 -4.67,1.03 -5.97,3.1 -1.3,2.07 -1.95,6.17 -1.95,12.31l0 13.29 -31.36 0 0 -5.11c0,-7.83 0.41,-14.03 1.21,-18.54 0.8,-4.52 2.81,-8.98 5.97,-13.35 3.19,-4.37 7.32,-7.71 12.4,-9.95 5.08,-2.24 11.16,-3.36 18.25,-3.36 13.91,0 24.42,3.46 31.57,10.33 7.12,6.91 10.69,15.62 10.69,26.17 0,8.03 -2.01,16.5 -6.03,25.45 -4.02,8.95 -15.86,27.9 -35.49,56.94l38.33 0z"/>
  <path id="2" class="fil2" d="M873.79 478.3l0 91.6 9.92 0 0 23.92 -9.92 0 0 24.63 -34.9 0 0 -24.63 -41.64 0 0 -23.92 30.27 -91.6 46.28 0zm-34.9 91.6l0 -59.62 -15.53 59.62 15.53 0z"/>
  <polygon id="3" class="fil2" points="964.76,475.64 922.95,621.1 896.46,621.1 938.45,475.64 "/>
  <path id="4" class="fil2" d="M1036.42 478.3l0 140.15 -34.9 0 0 -75.24c0,-10.86 -0.27,-17.42 -0.77,-19.61 -0.53,-2.19 -1.95,-3.87 -4.28,-4.99 -2.33,-1.12 -7.53,-1.68 -15.59,-1.68l-3.46 0 0 -16.27c16.89,-3.6 29.71,-11.07 38.45,-22.35l20.55 0z"/>
  <path class="fil2" d="M587.29 110.53l-6.43 53.39c-1.03,8.46 -1.88,14.23 -2.56,17.31 -0.68,3.07 -1.82,5.62 -3.42,7.61 -1.58,2.01 -3.8,3.47 -6.62,4.42 -2.83,0.95 -7.37,1.42 -13.57,1.42l-13.6 0 0 -11.84c3.49,0 5.73,-0.17 6.72,-0.53 1.01,-0.34 1.52,-1.14 1.52,-2.35 0,-0.61 -0.48,-3.17 -1.4,-7.73l-12.3 -61.7 20.36 0 7.36 49.89 3.62 -49.89 20.33 0z"/>
  <path id="1" class="fil2" d="M691.4 184.31l0 -58.3 -7.97 0 0 37.23c0,6.77 -0.78,11.63 -2.33,14.54 -1.56,2.9 -4.01,4.72 -7.36,5.45 -3.34,0.72 -8.84,1.08 -16.47,1.08l-3.66 0 0 -12.07c2.87,-0.04 4.82,-0.4 5.9,-1.08 1.08,-0.68 1.62,-3.11 1.62,-7.27l0 -53.37 52.61 0 0 73.79 -22.32 0z"/>
  <polygon id="2" class="fil2" points="842.73,184.31 823.15,184.31 823.15,144.44 807.53,184.31 787.05,184.31 787.05,110.53 806.64,110.53 806.64,150.06 821.99,110.53 842.73,110.53 "/>
  <polygon id="3" class="fil2" points="916.63,184.31 916.63,110.53 938.95,110.53 938.95,168.82 946.92,168.82 946.92,110.53 969.24,110.53 969.24,168.82 974.02,168.82 974.02,198.54 958.99,198.54 958.99,184.31 "/>
  <path id="4" class="fil2" d="M1065.59 139.1l-21.06 0 0 -4.95c0,-5.71 0.66,-10.11 1.97,-13.23 1.31,-3.09 3.97,-5.83 7.93,-8.2 3.97,-2.37 9.11,-3.57 15.47,-3.57 7.59,0 13.32,1.35 17.18,4.04 3.85,2.68 6.17,5.98 6.95,9.89 0.78,3.91 1.18,11.98 1.18,24.18l0 37.05 -21.86 0 0 -6.58c-1.36,2.66 -3.15,4.63 -5.31,5.96 -2.16,1.33 -4.74,1.99 -7.76,1.99 -3.93,0 -7.54,-1.1 -10.82,-3.3 -3.29,-2.22 -4.92,-7.04 -4.92,-14.5l0 -6.07c0,-5.52 0.87,-9.28 2.62,-11.29 1.75,-2.01 6.07,-4.35 12.98,-7 7.38,-2.9 11.33,-4.84 11.86,-5.84 0.51,-1.01 0.78,-3.03 0.78,-6.13 0,-3.85 -0.29,-6.36 -0.88,-7.54 -0.57,-1.16 -1.54,-1.75 -2.88,-1.75 -1.54,0 -2.49,0.49 -2.85,1.48 -0.38,0.97 -0.57,3.53 -0.57,7.65l0 7.72zm7.18 10.12c-3.63,2.64 -5.73,4.84 -6.3,6.62 -0.59,1.78 -0.88,4.33 -0.88,7.66 0,3.84 0.25,6.28 0.76,7.4 0.49,1.12 1.5,1.67 3,1.67 1.43,0 2.33,-0.44 2.77,-1.31 0.44,-0.87 0.65,-3.15 0.65,-6.87l0 -15.18z"/>
 </g>
</svg>
