<?xml version="1.0" encoding="UTF-8"?>
<!DOCTYPE svg PUBLIC "-//W3C//DTD SVG 1.1//EN" "http://www.w3.org/Graphics/SVG/1.1/DTD/svg11.dtd">
<!-- Creator: CorelDRAW 2017 -->
<svg xmlns="http://www.w3.org/2000/svg" xml:space="preserve" class='svg' version="1.1" style="shape-rendering:geometricPrecision; text-rendering:geometricPrecision; image-rendering:optimizeQuality; fill-rule:evenodd; clip-rule:evenodd" viewBox="0 0 1141.35 486.82" xmlns:xlink="http://www.w3.org/1999/xlink">
 <defs>
 <style type="text/css">
   <![CDATA[
    .fil0 {fill:#EBECEC;}
   ]]>
  </style>
 </defs>
 <g id="svg-13">
  <path class="fil0" d="M19.98 19.39l1101.77 0.76 -0.46 226.88 -185.81 0.13c-21.03,38.62 -29.65,58.4 -57.52,89.28 -74.4,82.45 -183.87,131.67 -308.3,131.08 -161.4,-0.77 -296.22,-77.8 -363.66,-220.41l-186.42 -0.47 0.41 -227.25zm-7.2 233.24c55.3,2.76 128.9,0.96 187.48,1.08 22.68,27.21 35.41,90.06 138.9,155.38 169.33,106.88 404.85,81.77 543.68,-67.71 33.99,-36.61 37.23,-56.6 57.31,-87.6l188.32 -0.4 -0.73 -240.75 -1114.81 0.91 -0.14 219.9 0 19.19z"/>
  <path class="fil0" d="M1049.79 122.48c-17.56,-0.87 -23.34,-4.74 -23.17,-23.03 0.14,-14.82 6.13,-21.99 20.81,-20.66 4.86,13.1 2.66,29.57 2.35,43.69zm-107.71 -46.77c6.36,21.48 -7.03,51.59 -13.19,73.7 -14.85,53.28 -37.22,-15.58 -44.17,-31.4 -13.75,-31.29 15.49,-28.98 19.79,-49.21l-25.37 0.04c0.89,5.08 12.13,12.61 -15.05,40.78l-5.05 4.33c-0.74,-61.81 4.58,-22.11 8.63,-44.94l-37.41 0.05c4.17,21.95 9.22,-19.52 8.83,63.18 -0.28,59.22 -7.15,21.41 -8.47,42.29l36.37 0.68c-0.57,-17.87 -5.9,3.76 -8.43,-20.85 -1.05,-10.15 0.83,-20.94 3.5,-28.32 8.79,4.11 1.85,-3.61 8.41,9.14 16.15,31.42 7.44,29.04 7.07,39.26l61.44 0.74c-0.87,-19.61 -9.3,7.38 0.64,-31.44l27.34 -0.85c1.15,4.54 4.13,12.85 4.23,17.29 0.37,18.03 -2.86,-1.45 -3.72,14.36l67.03 0.65c-0.61,-11.71 -5.35,-10.47 -0.23,-24.1 2.58,-6.87 5.26,-14.86 11.51,-19.33 11.44,13.04 -1.96,39.8 -2.04,43.34l34.11 0.1c-0.62,-18.06 -7.98,4.48 -8.11,-26.57l0.03 -49.23c0.1,-32.79 5.85,-13.59 8.79,-30.57 -35.78,-0.49 -79.19,-8.56 -72.03,38.86 2.04,13.52 8.95,15.1 17.56,21.8 -6.28,20.53 -12.75,38.87 -30.52,37.95 -14.79,-21.41 -18.83,-81.71 -32.6,-100.45 -12.26,2.58 -4.09,4.6 -18.85,8.71z"/>
  <path class="fil0" d="M657.67 274.47c-9.24,40.48 -44.93,13.25 -32.69,-43.16 4.01,-18.49 21.27,-26.21 30.32,-6.7 4.67,10.07 5.17,37.59 2.37,49.87zm-55.26 49.45c-25.19,40.61 48.68,67.86 76.38,21.34 18.76,-31.51 23.14,-90.08 4.49,-124.1 -19.59,-35.73 -82.38,-28.13 -92.97,13.88 -5.52,21.89 -0.12,48.79 11.63,61.87 15.93,17.73 37.9,8.92 57.59,2.67 0.13,22.7 -4.89,68.89 -33.1,52.14 -6.81,-14.88 5.49,-32.92 -24,-27.8z"/>
  <path class="fil0" d="M528.38 274.63c7.42,-7.32 21.92,-8.69 26.68,-28.2 13.43,-55.06 -72.61,-61.88 -87.49,-24.69 -9.41,23.52 7.9,37.78 19.61,25.25 11.4,-12.21 -10.8,-33.77 13.91,-33.36 18.23,0.31 22.48,18.83 18.48,35.43 -4.39,18.19 -15.61,14.01 -31.09,19.95l-0.02 10.95c19.99,10.9 38.2,4.59 35.55,43.82 -1.88,27.9 -18.65,38.11 -41.41,24.38 -2.25,-19.94 10.94,-15.74 3.24,-39.77l-20.33 -0.52c-31.51,40.54 27.29,77.05 70.34,56.01 34.8,-17 36.2,-76.36 -7.49,-89.23z"/>
  <path class="fil0" d="M433.14 68.84l-35.85 0.24c4.87,24.61 8.04,-19.43 8.09,54.95 0.05,70.06 -5.72,26.97 -7.66,51.3l34.8 -0.32c-1.73,-23.62 -8.12,19.88 -7.49,-54.32l28.96 1.09c0.28,72.06 -6.55,30.48 -7.17,53.49l34.27 -0.4c-0.85,-15.96 -6.6,2.09 -7.67,-23.21l-0.02 -60.7c1.49,-24.47 5.14,-4.37 8.25,-22.01l-35.76 0.05c3.05,13.05 12.72,4.29 7.31,42.76l-27.03 -0.17c-6.72,-33.79 4.49,-31.77 6.98,-42.75z"/>
  <path class="fil0" d="M664.65 93.95c0.02,14.53 3.29,59.24 -2.52,70.81l-2.2 3.31c-1.44,2.26 -1.71,0.43 -3.54,5.2 9.19,3.45 24.29,2.04 35.78,1.8 -0.37,-17.7 -5.94,3.67 -8.04,-20.76 -0.88,-10.25 -0.18,-19.45 3.55,-27.47 7.99,1.9 3.99,-2.04 13.8,21.54 8.14,19.59 2.57,10.94 2.07,26.87 10.74,-0.01 26.43,2.07 34.91,-1.98 -2.66,-10 -0.91,-2.24 -7.82,-10.71 -7.31,-8.96 -14.23,-30.9 -19.71,-43.07 -14.58,-32.35 11.99,-30.51 19.26,-47.42 -6.76,-5.5 -15.64,-3.54 -25.76,-2.52 2.92,14.15 9.38,6.15 -2.22,22.69 -6,8.55 -10.76,17.37 -17.72,21.62 -1.33,-59.13 3.75,-22.47 8.82,-45.15l-37.26 0.05c3.68,12.14 8.56,5.05 8.6,25.19z"/>
  <path class="fil0" d="M130.39 69.07l-62.43 -0.35c4.75,18.74 8.84,-3.48 9.11,24.99 0.09,9.93 -0.27,20.3 -0.27,30.33 0.03,73.56 -6.97,25.69 -7.8,51.26l64.94 -0.54 3.02 -25.35c-9.52,3.57 -8.54,17.12 -26.88,16.75l-9.74 -2.41c-0.44,-0.95 -1.52,-0.64 -3.45,-1.06l-0.45 -39.05c8.99,-1 9.62,-2.25 17.42,1.64 2.01,1 3.72,2.81 4.72,3.54 4.59,3.35 -2.53,1.21 4.38,3.02l0.03 -27.46c-9.4,3.47 -3.82,10.81 -26.1,8.36 -4.56,-67.42 32.51,-20.84 36.1,-18.71l-2.58 -24.97z"/>
  <path class="fil0" d="M316.13 174.87l65.87 0.12 2.94 -25.39c-12.63,8.5 -14.04,23.88 -38.49,14.24 -3.66,-10.22 -2.11,-27.75 -2.09,-40.95 26.99,-0.15 12.02,1.26 26.15,9.78l-5.03 -24.39c-3.17,2.51 -1.28,1.94 -5.15,3.56 -6.1,2.56 -8.98,1.58 -15.54,1.49l0.84 -29.58c5.42,-20.32 31.69,8.59 35.09,10.04l-2.59 -24.43 -62.39 -0.52c3.76,25.13 8.87,-22.39 8.84,52.47 -0.03,76.08 -6.64,29.33 -8.45,53.57z"/>
  <path class="fil0" d="M591.54 167.38c-5.02,-10.38 2.43,-10.87 -5.24,-23.68 -19.98,2.64 -17.56,36.08 13.91,32.46 12.07,-15.38 23.96,-59.18 31.76,-82.5 7.83,-23.4 11.47,-11.43 15.63,-21.6 -6.18,-5.37 -18.9,-3.66 -28.1,-2.27 0.99,4.86 17.16,9.79 -6.85,53.26 -14.35,-34.91 -13.47,-33.74 -9.4,-54.07l-36.14 -0.02c2.69,13.2 6.51,3.82 13.6,22.55 11.71,30.96 30.57,69.11 10.83,75.86z"/>
  <path class="fil0" d="M218.43 167.31l1.27 -23.87c-13.49,6.3 -9.41,29.54 -32.08,23.74 -32.38,-8.28 -18.72,-114.56 15.37,-87.09 7.51,6.05 3.23,12.44 13.06,15.85l-0.52 -20.14c-36.02,-27.18 -66.39,4.82 -67.04,45.57 -0.74,46.37 30.4,71.71 69.94,45.94z"/>
  <path class="fil0" d="M816.02 168.26l1.06 -24.99c-6.94,4.75 -1.81,0.08 -5.85,6.06 -3.9,5.77 -6.91,16.33 -17.95,18.25 -37.59,6.54 -32.66,-89.19 -4.73,-91.54 20.78,3.9 12.74,13.43 24.66,20.31l-0.24 -21.58c-89.58,-50.17 -88.54,149.11 3.05,93.49z"/>
  <path class="fil0" d="M301.68 168.61l0.69 -25.3c-9.95,5.7 -10.53,30.48 -32.44,23.48 -23.42,-7.48 -22.53,-71.72 -4.05,-86.85 18.03,-14.76 24.49,11.95 32.79,16.39l0.07 -21.35c-40.95,-20.03 -66.14,1.87 -66.94,46.31 -0.9,50.02 28.07,65.8 69.89,47.3z"/>
  <path class="fil0" d="M516.84 88.48c0.62,18.15 4.39,64.58 -3.49,77.92 -11.43,19.33 1.73,-9.78 -4.7,6.87 9.07,3.41 24.42,1.88 36.02,2.18 -1.15,-18.45 -6.28,3.15 -8.29,-21.08l1.42 -75.64c17.2,-0.34 11.29,6.76 25.17,12.47l-4.2 -22.39 -63.64 0.84 -4.57 21.27c7.96,-2.37 25.43,-27.1 26.28,-2.43z"/>
  <path class="fil0" d="M546.31 399.01c9.64,5.96 4.99,30.12 1.34,36.93l16.54 -0.47c3.11,-8.06 -2.41,8.79 0.41,-5.09 1.67,-8.24 3.88,-10.18 11.78,-15.01 0.23,11.61 1.68,11.88 -3.51,20.39l18.66 -0.21c-5.35,-8.95 -5.84,-28.58 0.24,-37.58l-16.64 -0.02c-0.16,0.34 -0.18,0.94 -0.2,1.1l-0.45 4.21c-1.63,8.04 -3.83,9.94 -11.57,14.44 -0.41,-11.88 -2.09,-11.66 3.79,-19.91l-20.39 1.22z"/>
  <path class="fil0" d="M715.29 422.96c-3.87,-17.47 -19.86,-12.71 -16.38,-45.22l-17.1 3.55c1.26,1.51 20.02,32.23 4.9,35.19 -12.48,2.44 -15.54,-25.15 -11.35,-32.59l-17.83 5.45c6.94,7.7 11.84,26.26 8.4,35.55 22.93,-3.01 28.1,-12.98 49.35,-1.93z"/>
  <path class="fil0" d="M375.43 364.35c0.27,-10.23 2.47,-19.68 7.79,-26.8 -6.56,-3.57 -7.66,-6.08 -15.97,-8.58 1.98,12.59 -2.98,41.1 -11.02,49.35 -6.84,-2.21 -5.8,-5.8 -13.37,-7.47 -1.15,32.01 37.05,-4.04 53.62,-15.06l6.71 -4.84 -8.66 -4.54c-5.84,10.09 -6.73,11.66 -19.11,17.94z"/>
  <path class="fil0" d="M453.3 379.47c5.37,8.05 -0.79,26.62 -9.51,31.5 -2.64,-8.69 7.9,-5.44 -5.47,-9.63 -8.64,12.7 6.96,19.15 13.99,10.4 8.56,-10.66 0.37,-19.08 13.37,-25.02 5.31,9.16 -2.64,25.27 -8.08,33.62l17.33 3.18c-5.29,-7.76 3.54,-27.6 9.4,-35.03l-31.02 -9.02z"/>
  <path class="fil1" d="M602.41 323.92c29.5,-5.13 17.19,12.91 24,27.8 28.21,16.75 33.23,-29.43 33.1,-52.14 -19.69,6.24 -41.66,15.06 -57.59,-2.67 -11.75,-13.08 -17.15,-39.98 -11.63,-61.87 10.59,-42.01 73.38,-49.61 92.97,-13.88 18.66,34.03 14.27,92.59 -4.49,124.1 -27.69,46.53 -101.57,19.27 -76.38,-21.34zm-74.04 -49.3c43.69,12.87 42.28,72.23 7.49,89.23 -43.06,21.04 -101.85,-15.47 -70.34,-56.01l20.33 0.52c7.7,24.03 -5.49,19.83 -3.24,39.77 22.76,13.73 39.53,3.52 41.41,-24.38 2.64,-39.23 -15.57,-32.92 -35.55,-43.82l0.02 -10.95c15.48,-5.94 26.71,-1.76 31.09,-19.95 4,-16.6 -0.25,-35.12 -18.48,-35.43 -24.71,-0.41 -2.51,21.15 -13.91,33.36 -11.71,12.54 -29.02,-1.72 -19.61,-25.25 14.88,-37.18 100.92,-30.36 87.49,24.69 -4.76,19.52 -19.25,20.88 -26.68,28.2zm413.7 -198.92c14.75,-4.11 6.59,-6.13 18.85,-8.71 13.77,18.75 17.82,79.05 32.6,100.45 17.76,0.92 24.23,-17.41 30.52,-37.95 -8.61,-6.7 -15.52,-8.28 -17.56,-21.8 -7.15,-47.42 36.25,-39.35 72.03,-38.86 -2.94,16.98 -8.68,-2.22 -8.79,30.57l-0.03 49.23c0.13,31.05 7.49,8.51 8.11,26.57l-34.11 -0.1c0.09,-3.54 13.49,-30.3 2.04,-43.34 -6.26,4.47 -8.93,12.46 -11.51,19.33 -5.12,13.64 -0.38,12.39 0.23,24.1l-67.03 -0.65c0.86,-15.81 4.09,3.67 3.72,-14.36 -0.09,-4.44 -3.07,-12.75 -4.23,-17.29l-27.34 0.85c-9.93,38.82 -1.5,11.82 -0.64,31.44l-61.44 -0.74c0.37,-10.22 9.08,-7.84 -7.07,-39.26 -6.56,-12.76 0.38,-5.04 -8.41,-9.14 -2.68,7.38 -4.55,18.18 -3.5,28.32 2.54,24.61 7.86,2.98 8.43,20.85l-36.37 -0.68c1.31,-20.88 8.19,16.93 8.47,-42.29 0.39,-82.7 -4.66,-41.24 -8.83,-63.18l37.41 -0.05c-4.05,22.83 -9.37,-16.86 -8.63,44.94l5.05 -4.33c27.18,-28.17 15.94,-35.7 15.05,-40.78l25.37 -0.04c-4.29,20.23 -33.54,17.92 -19.79,49.21 6.95,15.82 29.32,84.68 44.17,31.4 6.16,-22.11 19.55,-52.22 13.19,-73.7zm-126.06 92.56c-91.59,55.62 -92.63,-143.67 -3.05,-93.49l0.24 21.58c-11.92,-6.88 -3.89,-16.41 -24.66,-20.31 -27.93,2.34 -32.86,98.08 4.73,91.54 11.04,-1.92 14.05,-12.47 17.95,-18.25 4.04,-5.98 -1.09,-1.31 5.85,-6.06l-1.06 24.99zm-325.46 -77.35l4.57 -21.27 63.64 -0.84 4.2 22.39c-13.87,-5.7 -7.97,-12.81 -25.17,-12.47l-1.42 75.64c2.01,24.24 7.14,2.63 8.29,21.08 -11.6,-0.3 -26.94,1.23 -36.02,-2.18 6.43,-16.65 -6.73,12.46 4.7,-6.87 7.88,-13.34 4.11,-59.76 3.49,-77.92 -0.85,-24.67 -18.33,0.06 -26.28,2.43zm-93.27 -21.83l35.85 -0.24c-2.49,10.98 -13.69,8.96 -6.98,42.75l27.03 0.17c5.41,-38.48 -4.26,-29.71 -7.31,-42.76l35.76 -0.05c-3.11,17.64 -6.76,-2.46 -8.25,22.01l0.02 60.7c1.07,25.3 6.82,7.25 7.67,23.21l-34.27 0.4c0.61,-23.01 7.45,18.57 7.17,-53.49l-28.96 -1.09c-0.63,74.21 5.76,30.71 7.49,54.32l-34.8 0.32c1.95,-24.34 7.71,18.75 7.66,-51.3 -0.05,-74.38 -3.22,-30.34 -8.09,-54.95zm-15.28 105.91l-65.87 -0.12c1.81,-24.24 8.42,22.51 8.45,-53.57 0.03,-74.86 -5.08,-27.34 -8.84,-52.47l62.39 0.52 2.59 24.43c-3.41,-1.45 -29.68,-30.36 -35.09,-10.04l-0.84 29.58c6.56,0.09 9.44,1.06 15.54,-1.49 3.87,-1.62 1.97,-1.05 5.15,-3.56l5.03 24.39c-14.13,-8.52 0.84,-9.93 -26.15,-9.78 -0.02,13.21 -1.57,30.73 2.09,40.95 24.45,9.64 25.86,-5.74 38.49,-14.24l-2.94 25.39zm-163.57 -7.68c-39.54,25.77 -70.69,0.42 -69.94,-45.94 0.65,-40.75 31.02,-72.75 67.04,-45.57l0.52 20.14c-9.82,-3.41 -5.55,-9.8 -13.06,-15.85 -34.09,-27.47 -47.75,78.81 -15.37,87.09 22.67,5.8 18.6,-17.45 32.08,-23.74l-1.27 23.87zm-150.47 -98.59l62.43 0.35 2.58 24.97c-3.59,-2.13 -40.65,-48.71 -36.1,18.71 22.29,2.46 16.71,-4.89 26.1,-8.36l-0.03 27.46c-6.91,-1.8 0.21,0.34 -4.38,-3.02 -1.01,-0.73 -2.72,-2.54 -4.72,-3.54 -7.81,-3.9 -8.44,-2.64 -17.42,-1.64l0.45 39.05c1.94,0.42 3.01,0.11 3.45,1.06l9.74 2.41c18.34,0.38 17.36,-13.18 26.88,-16.75l-3.02 25.35 -64.94 0.54c0.83,-25.57 7.83,22.3 7.8,-51.26 -0,-10.03 0.36,-20.4 0.27,-30.33 -0.26,-28.47 -4.36,-6.25 -9.11,-24.99zm596.69 25.23c-0.04,-20.14 -4.92,-13.06 -8.6,-25.19l37.26 -0.05c-5.07,22.68 -10.15,-13.98 -8.82,45.15 6.97,-4.26 11.73,-13.08 17.72,-21.62 11.6,-16.53 5.14,-8.53 2.22,-22.69 10.11,-1.03 19,-2.98 25.76,2.52 -7.26,16.91 -33.84,15.07 -19.26,47.42 5.48,12.17 12.4,34.1 19.71,43.07 6.91,8.47 5.16,0.71 7.82,10.71 -8.48,4.05 -24.16,1.97 -34.91,1.98 0.5,-15.93 6.07,-7.28 -2.07,-26.87 -9.8,-23.58 -5.81,-19.63 -13.8,-21.54 -3.73,8.02 -4.44,17.22 -3.55,27.47 2.1,24.42 7.67,3.05 8.04,20.76 -11.5,0.24 -26.6,1.64 -35.78,-1.8 1.83,-4.77 2.1,-2.94 3.54,-5.2l2.2 -3.31c5.81,-11.57 2.54,-56.28 2.52,-70.81zm-73.11 73.43c19.74,-6.75 0.88,-44.91 -10.83,-75.86 -7.09,-18.73 -10.91,-9.35 -13.6,-22.55l36.14 0.02c-4.07,20.33 -4.96,19.16 9.4,54.07 24.01,-43.47 7.84,-48.4 6.85,-53.26 9.2,-1.39 21.93,-3.1 28.1,2.27 -4.15,10.17 -7.8,-1.8 -15.63,21.6 -7.8,23.32 -19.7,67.11 -31.76,82.5 -31.47,3.62 -33.89,-29.82 -13.91,-32.46 7.68,12.81 0.22,13.3 5.24,23.68zm-289.87 1.23c-41.82,18.5 -70.79,2.72 -69.89,-47.3 0.8,-44.45 25.99,-66.34 66.94,-46.31l-0.07 21.35c-8.3,-4.44 -14.76,-31.16 -32.79,-16.39 -18.48,15.13 -19.37,79.37 4.05,86.85 21.91,7 22.49,-17.79 32.44,-23.48l-0.69 25.3zm-282.11 78.03l186.42 0.47c67.45,142.61 202.27,219.64 363.66,220.41 124.43,0.59 233.9,-48.63 308.3,-131.08 27.87,-30.89 36.5,-50.66 57.52,-89.28l185.81 -0.13 0.46 -226.88 -1101.77 -0.76 -0.41 227.25z"/>
  <path class="fil1" d="M12.78 233.44l0.14 -219.9 1114.81 -0.91 0.73 240.75 -188.32 0.4c-20.08,31 -23.32,50.99 -57.31,87.6 -138.82,149.49 -374.35,174.59 -543.68,67.71 -103.48,-65.32 -116.22,-128.17 -138.9,-155.38 -58.59,-0.12 -132.19,1.68 -187.48,-1.08l0 -19.19zm-12.7 33.27l191.98 -0.24c8.12,8.96 19.71,34.92 27.59,45.97 11.45,16.05 21.67,28.34 32.47,41.47 9.6,11.67 26.83,26.37 38.34,35.56 15.23,12.17 26.72,21.99 44.38,32.23 69.03,40.05 137.49,65 234.82,65.11 182.05,0.2 323.29,-100.57 377.76,-220.12l193.65 -0.29 0.29 -265.65 -1141.35 -0.75 0.08 266.71z"/>
  <path class="fil1" d="M657.67 274.47c2.8,-12.28 2.3,-39.79 -2.37,-49.87 -9.04,-19.51 -26.31,-11.79 -30.32,6.7 -12.25,56.42 23.44,83.64 32.69,43.16z"/>
  <path class="fil1" d="M1049.79 122.48c0.31,-14.12 2.5,-30.59 -2.35,-43.69 -14.68,-1.33 -20.67,5.85 -20.81,20.66 -0.18,18.29 5.6,22.15 23.17,23.03z"/>
  <polygon class="fil1" points="963.83,126.18 947.08,127.62 954.69,93.12 "/>
  <path class="fil2" d="M357.56 377.86l2.41 -29.65c0.39,-4.5 0.43,-7.38 0.14,-8.61 -0.31,-1.24 -0.9,-2.3 -1.78,-3.2l0.64 -1.21 17.22 9.21 -0.64 1.2c-1.15,-0.55 -2.07,-0.76 -2.74,-0.61 -0.68,0.15 -1.15,0.5 -1.46,1.07 -0.47,0.87 -0.83,2.93 -1.07,6.16l-1.28 15.73 9.04 -7.82c3.24,-2.79 5.23,-4.89 5.97,-6.27 0.46,-0.86 0.54,-1.7 0.27,-2.52 -0.29,-0.81 -1.15,-1.63 -2.55,-2.44l0.64 -1.21 10.75 5.75 -0.64 1.21c-1.13,-0.45 -2.21,-0.5 -3.26,-0.15 -1.05,0.35 -3.46,2.18 -7.24,5.47l-22.06 19.1c-5.53,4.74 -9.22,7.51 -11.1,8.29 -2.63,1.09 -5.14,0.99 -7.53,-0.29 -1.91,-1.02 -3.18,-2.41 -3.77,-4.14 -0.61,-1.74 -0.49,-3.38 0.34,-4.93 0.72,-1.35 1.73,-2.24 3.01,-2.67 1.3,-0.45 2.54,-0.35 3.74,0.3 1.16,0.62 1.9,1.48 2.21,2.61 0.3,1.11 0.05,2.47 -0.76,4.04 -0.45,0.9 -0.66,1.52 -0.63,1.86 0.06,0.37 0.27,0.64 0.62,0.83 0.54,0.29 1.31,0.28 2.3,-0.06 1.45,-0.49 3.71,-2.13 6.82,-4.94l2.41 -2.1zm103.13 38.56l0.35 -1.32c1.26,0.31 2.4,0.26 3.37,-0.14 0.98,-0.4 1.75,-1.65 2.31,-3.77l7 -26.66 -10.03 -2.63 -4.07 15.51c-1.46,5.58 -2.75,9.36 -3.86,11.34 -1.12,1.98 -2.62,3.33 -4.51,4.04 -1.9,0.72 -3.74,0.85 -5.54,0.38 -2.02,-0.53 -3.48,-1.58 -4.39,-3.13 -0.91,-1.55 -1.14,-3.12 -0.73,-4.72 0.41,-1.56 1.19,-2.69 2.34,-3.45 1.15,-0.73 2.43,-0.93 3.84,-0.56 2.71,0.71 3.62,2.72 2.75,6.04 -0.39,1.5 -0.31,2.33 0.28,2.48 1.12,0.29 2.21,-0.4 3.31,-2.1 1.09,-1.69 2.38,-5.38 3.87,-11.06l2.71 -10.34c0.62,-2.37 0.73,-4.07 0.34,-5.12 -0.41,-1.03 -1.36,-1.79 -2.88,-2.28l0.35 -1.32 31.33 8.22 -0.35 1.32c-2.55,-0.61 -4.25,0.68 -5.09,3.9l-5.98 22.78c-0.47,1.79 -0.54,3.16 -0.22,4.11 0.32,0.95 1.2,1.65 2.66,2.09l-0.35 1.32 -18.82 -4.93zm113.83 13.95l0.02 -1.37c2.35,0.04 3.56,-1.73 3.63,-5.32l0.32 -18.08 -10.85 17.9c-0.03,3.51 1.14,5.32 3.52,5.45l-0.02 1.37 -18.72 -0.33 0.02 -1.37c1.49,0.03 2.54,-0.38 3.18,-1.21 0.65,-0.83 0.98,-2.3 1.02,-4.42l0.4 -22.74c0.06,-3.7 -1.27,-5.57 -4,-5.62l0.02 -1.37 18.72 0.33 -0.02 1.37c-1.38,0.03 -2.34,0.4 -2.86,1.14 -0.54,0.73 -0.82,2.17 -0.86,4.34l-0.32 18 10.85 -18.06c0.01,-1.98 -0.25,-3.37 -0.78,-4.15 -0.55,-0.79 -1.43,-1.19 -2.66,-1.21l0.02 -1.37 18.72 0.33 -0.02 1.37c-1.42,0 -2.47,0.35 -3.17,1.02 -0.69,0.68 -1.06,2 -1.1,3.97l-0.41 23.38c-0.04,2.21 0.24,3.69 0.84,4.45 0.6,0.75 1.68,1.14 3.23,1.17l-0.02 1.37 -18.72 -0.33zm131.7 -19.62l2.68 10.68 -1.48 0.37c-1,-2.87 -2.6,-4.91 -4.84,-6.11 -2.23,-1.19 -5.67,-1.2 -10.35,-0.02l-25.28 6.36 -0.33 -1.33c1.52,-0.38 2.46,-1.04 2.82,-1.99 0.37,-0.95 0.25,-2.65 -0.37,-5.09l-5.31 -21.12c-0.66,-2.61 -1.37,-4.13 -2.16,-4.58 -0.78,-0.46 -1.87,-0.51 -3.27,-0.19l-0.33 -1.32 18.16 -4.57 0.34 1.33c-1.3,0.38 -2.13,0.92 -2.5,1.64 -0.36,0.71 -0.25,2.24 0.35,4.62l5.25 20.89c0.63,2.49 1.28,4 1.97,4.52 0.68,0.52 1.92,0.56 3.7,0.11l2.05 -0.51c1.6,-0.4 2.57,-0.98 2.93,-1.72 0.35,-0.74 0.22,-2.35 -0.39,-4.8l-5.19 -20.66c-0.62,-2.46 -1.24,-3.97 -1.89,-4.55 -0.64,-0.57 -1.64,-0.69 -2.99,-0.35l-0.34 -1.33 18.16 -4.56 0.33 1.33c-1.49,0.43 -2.44,1.1 -2.85,2.01 -0.4,0.9 -0.35,2.37 0.15,4.38l5.45 21.67c0.59,2.36 1.25,3.87 1.96,4.52 0.73,0.65 1.91,0.77 3.58,0.38zm83.9 -40.75c-2.05,5.62 -4.66,9.28 -7.78,10.96 -1.85,1 -3.71,1.22 -5.59,0.67 -1.86,-0.55 -3.3,-1.74 -4.28,-3.55 -1.33,-2.46 -1.47,-5.25 -0.41,-8.37 1.06,-3.11 4.27,-8.22 9.62,-15.33l-1.75 -3.24c-1.31,-2.43 -2.27,-3.89 -2.88,-4.38 -0.6,-0.49 -1.4,-0.77 -2.4,-0.84 -1,-0.07 -1.96,0.15 -2.88,0.64 -1.51,0.82 -2.57,1.81 -3.17,3.01 -0.38,0.74 -0.41,1.38 -0.11,1.93 0.26,0.49 0.9,0.9 1.93,1.27 1.41,0.52 2.36,1.24 2.86,2.16 0.61,1.12 0.71,2.31 0.29,3.56 -0.41,1.24 -1.29,2.23 -2.65,2.97 -1.45,0.78 -2.9,1 -4.35,0.66 -1.45,-0.35 -2.5,-1.1 -3.13,-2.27 -0.9,-1.66 -1.09,-3.6 -0.6,-5.81 0.51,-2.21 1.71,-4.35 3.62,-6.43 1.93,-2.07 4.15,-3.79 6.68,-5.16 3.06,-1.65 5.84,-2.32 8.32,-1.98 2.49,0.33 4.41,1.11 5.76,2.34 0.84,0.8 2.2,2.92 4.07,6.39l6.75 12.51c0.79,1.46 1.35,2.36 1.67,2.67 0.32,0.32 0.64,0.51 0.97,0.57 0.33,0.05 0.64,0 0.94,-0.16 0.61,-0.33 1,-1.08 1.19,-2.24l1.47 0.24c-0.23,2.33 -0.75,4.23 -1.57,5.66 -0.8,1.44 -2,2.59 -3.56,3.43 -1.84,0.99 -3.52,1.34 -5.03,1.04 -1.51,-0.31 -2.84,-1.28 -4.02,-2.91zm-1.38 -2.55l-5.8 -10.75c-1.9,3.14 -3.03,6.01 -3.39,8.6 -0.23,1.72 0,3.23 0.68,4.49 0.57,1.06 1.45,1.79 2.65,2.17 0.92,0.31 1.88,0.19 2.92,-0.37 1.15,-0.62 2.13,-2 2.94,-4.14z"/>
 </g>
</svg>
