<?xml version="1.0" encoding="UTF-8"?>
<!DOCTYPE svg PUBLIC "-//W3C//DTD SVG 1.1//EN" "http://www.w3.org/Graphics/SVG/1.1/DTD/svg11.dtd">
<!-- Creator: CorelDRAW 2017 -->
<svg xmlns="http://www.w3.org/2000/svg" xml:space="preserve" version="1.1" style="shape-rendering:geometricPrecision; text-rendering:geometricPrecision; image-rendering:optimizeQuality; fill-rule:evenodd; clip-rule:evenodd"
viewBox="0 0 1686.65 892.26"
 xmlns:xlink="http://www.w3.org/1999/xlink">
 <defs>
  <style type="text/css">
   <![CDATA[
    .str0 {stroke:#2B2A29;stroke-width:19.91;stroke-miterlimit:22.9256}
    .fil0 {fill:none}
    .fil1 {fill:black}
    .fil2 {fill:#FEFEFE;fill-rule:nonzero}
    .fil3 {fill:black;fill-rule:nonzero}
   ]]>
  </style>
 </defs>
 <g id="Слой_x0020_1">
  <metadata id="CorelCorpID_0Corel-Layer"/>
  <path class="fil0 str0" d="M9.95 420.85l339.67 0c10.34,-228.42 229.76,-410.89 498.97,-410.89 269.21,0 488.63,182.47 498.97,410.89l329.13 0 0 461.46 -1666.74 0 0 -461.46z"/>
  <rect class="fil1" x="54.2" y="467.2" width="1578.24" height="381.39" rx="39.82" ry="39.82"/>
  <path class="fil2" d="M174.58 633.86l44.38 0c14.02,0 24.65,1.08 31.88,3.29 7.23,2.17 13.04,6.61 17.49,13.26 4.45,6.69 6.65,17.42 6.65,32.24 0,10.01 -1.55,16.98 -4.7,20.92 -3.14,3.98 -9.36,6.98 -18.61,9.11 10.33,2.35 17.35,6.22 21.03,11.6 3.68,5.42 5.53,13.69 5.53,24.9l0 15.9c0,11.6 -1.34,20.16 -3.97,25.77 -2.64,5.56 -6.83,9.39 -12.61,11.46 -5.78,2.06 -17.63,3.07 -35.56,3.07l-51.49 0 0 -171.51zm44.67 29.27l0 38.16c1.88,-0.08 3.32,-0.11 4.37,-0.11 4.26,0 7.01,-1.08 8.17,-3.21 1.19,-2.17 1.77,-8.35 1.77,-18.5 0,-5.38 -0.47,-9.14 -1.45,-11.31 -0.98,-2.13 -2.24,-3.5 -3.79,-4.08 -1.55,-0.54 -4.59,-0.87 -9.07,-0.94zm0 64.83l0 48.14c6.14,-0.22 10.08,-1.19 11.78,-2.96 1.7,-1.77 2.53,-6.14 2.53,-13.08l0 -16.04c0,-7.37 -0.76,-11.82 -2.28,-13.41 -1.52,-1.55 -5.53,-2.42 -12.03,-2.64z"/>
  <polygon id="1" class="fil2" points="327.31,770.46 327.31,805.37 295,805.37 295,770.46 "/>
  <polygon id="2" class="fil2" points="435.44,633.86 435.44,668.11 409.2,668.11 409.2,805.37 364.53,805.37 364.53,668.11 338.08,668.11 338.08,633.86 "/>
  <path id="3" class="fil2" d="M546.93 737.5l-55.51 0 0 30.47c0,6.36 0.47,10.48 1.37,12.32 0.94,1.84 2.71,2.74 5.35,2.74 3.29,0 5.5,-1.23 6.58,-3.65 1.12,-2.46 1.66,-7.19 1.66,-14.2l0 -18.58 40.54 0 0 10.41c0,8.71 -0.54,15.39 -1.62,20.06 -1.12,4.66 -3.69,9.65 -7.7,14.96 -4.01,5.31 -9.14,9.29 -15.32,11.96 -6.18,2.64 -13.91,3.97 -23.24,3.97 -9.04,0 -17.02,-1.3 -23.96,-3.94 -6.9,-2.6 -12.28,-6.18 -16.15,-10.73 -3.87,-4.56 -6.51,-9.58 -7.99,-15.07 -1.48,-5.46 -2.24,-13.41 -2.24,-23.89l0 -41.01c0,-12.29 1.66,-21.97 4.99,-29.09 3.32,-7.08 8.74,-12.54 16.3,-16.3 7.59,-3.79 16.26,-5.67 26.09,-5.67 12,0 21.9,2.28 29.71,6.83 7.8,4.56 13.3,10.59 16.45,18.11 3.14,7.48 4.69,18.07 4.69,31.69l0 18.61zm-42.71 -22.76l0 -10.27c0,-7.3 -0.4,-11.96 -1.19,-14.09 -0.8,-2.13 -2.42,-3.18 -4.88,-3.18 -3.03,0 -4.91,0.9 -5.63,2.71 -0.72,1.81 -1.09,6.65 -1.09,14.56l0 10.27 12.79 0z"/>
  <path id="4" class="fil2" d="M610 664.86l-0.76 12.43c3.83,-5.06 8.02,-8.82 12.61,-11.31 4.59,-2.49 9.62,-3.72 15.04,-3.72 6.65,0 12.4,1.77 17.24,5.35 4.81,3.58 7.84,7.7 9.04,12.36 1.19,4.66 1.81,12.58 1.81,23.74l0 59.23c0,12.79 -0.76,21.86 -2.28,27.28 -1.52,5.39 -4.63,9.72 -9.33,12.94 -4.7,3.22 -10.37,4.81 -17.02,4.81 -5.28,0 -10.19,-1.23 -14.71,-3.72 -4.52,-2.5 -8.64,-6.18 -12.4,-11.1l0 32.17 -42.71 0 0 -160.46 43.48 0zm12.25 40.87c0,-8.71 -0.32,-13.95 -0.98,-15.79 -0.61,-1.84 -2.39,-2.75 -5.31,-2.75 -2.86,0 -4.66,1.05 -5.49,3.18 -0.83,2.09 -1.23,7.23 -1.23,15.36l0 58.26c0,8.45 0.43,13.77 1.27,15.86 0.87,2.13 2.71,3.18 5.56,3.18 2.78,0 4.48,-0.98 5.17,-2.93 0.69,-1.92 1.01,-6.65 1.01,-14.13l0 -60.24z"/>
  <path id="5" class="fil2" d="M781.66 737.5l-55.51 0 0 30.47c0,6.36 0.47,10.48 1.37,12.32 0.94,1.84 2.71,2.74 5.35,2.74 3.29,0 5.5,-1.23 6.58,-3.65 1.12,-2.46 1.66,-7.19 1.66,-14.2l0 -18.58 40.54 0 0 10.41c0,8.71 -0.54,15.39 -1.62,20.06 -1.12,4.66 -3.69,9.65 -7.7,14.96 -4.01,5.31 -9.14,9.29 -15.32,11.96 -6.18,2.64 -13.91,3.97 -23.24,3.97 -9.04,0 -17.02,-1.3 -23.96,-3.94 -6.9,-2.6 -12.28,-6.18 -16.15,-10.73 -3.87,-4.56 -6.51,-9.58 -7.99,-15.07 -1.48,-5.46 -2.24,-13.41 -2.24,-23.89l0 -41.01c0,-12.29 1.66,-21.97 4.99,-29.09 3.32,-7.08 8.74,-12.54 16.3,-16.3 7.59,-3.79 16.26,-5.67 26.09,-5.67 12,0 21.9,2.28 29.71,6.83 7.8,4.56 13.3,10.59 16.45,18.11 3.14,7.48 4.69,18.07 4.69,31.69l0 18.61zm-42.71 -22.76l0 -10.27c0,-7.3 -0.4,-11.96 -1.19,-14.09 -0.8,-2.13 -2.42,-3.18 -4.88,-3.18 -3.03,0 -4.91,0.9 -5.63,2.71 -0.72,1.81 -1.09,6.65 -1.09,14.56l0 10.27 12.79 0z"/>
  <polygon id="6" class="fil2" points="901.86,775.88 917.04,775.88 917.04,664.86 959.75,664.86 959.75,805.37 801.25,805.37 801.25,664.86 843.97,664.86 843.97,775.88 859.14,775.88 859.14,664.86 901.86,664.86 "/>
  <path id="7" class="fil2" d="M1022.86 664.9l0 54.6c8.96,0 13.44,-4.77 13.44,-14.28l0 -23.82c0,-9.58 1.59,-15.11 4.77,-16.51l41.2 0c-3.18,4.59 -4.77,11.38 -4.77,20.31l0 19.59c0,6.83 -2.78,12.5 -8.35,17.02 -2.06,1.7 -6.36,4.09 -12.94,7.19 -4.23,2.06 -9,3.15 -14.31,3.29 2.49,0.43 7.12,1.59 13.88,3.51 14.64,4.62 21.94,12.79 21.94,24.43l0 24.64c0,9.04 1.59,15.86 4.77,20.42l-41.2 0c-3.18,-4.3 -4.77,-9.8 -4.77,-16.48l0 -29.67c0,-9.5 -4.56,-14.27 -13.66,-14.27l0 60.42 -42.28 0 0 -140.4 42.28 0z"/>
  <path id="8" class="fil2" d="M1193.8 714.19l0 34.44c0,12.65 -0.65,21.9 -1.92,27.83 -1.27,5.89 -3.97,11.38 -8.13,16.51 -4.16,5.13 -9.5,8.89 -16.05,11.35 -6.54,2.42 -14.02,3.65 -22.48,3.65 -9.47,0 -17.49,-1.05 -24.03,-3.11 -6.58,-2.09 -11.67,-5.24 -15.29,-9.43 -3.65,-4.23 -6.25,-9.32 -7.8,-15.29 -1.55,-5.96 -2.31,-14.92 -2.31,-26.85l0 -36.03c0,-13.08 1.41,-23.27 4.23,-30.65 2.82,-7.33 7.92,-13.23 15.25,-17.67 7.33,-4.44 16.73,-6.69 28.15,-6.69 9.58,0 17.82,1.45 24.72,4.3 6.87,2.86 12.18,6.58 15.94,11.17 3.72,4.59 6.29,9.33 7.66,14.2 1.37,4.88 2.06,12.29 2.06,22.26zm-42.71 -10.59c0,-7.19 -0.4,-11.74 -1.16,-13.59 -0.79,-1.88 -2.46,-2.82 -5.02,-2.82 -2.57,0 -4.26,0.94 -5.13,2.82 -0.83,1.84 -1.27,6.4 -1.27,13.59l0 63.42c0,6.65 0.43,10.99 1.27,12.97 0.87,2.02 2.53,3.03 5.03,3.03 2.56,0 4.22,-0.9 5.06,-2.74 0.83,-1.84 1.23,-5.78 1.23,-11.85l0 -64.83z"/>
  <path id="9" class="fil2" d="M1312.7 768.33c0,14.31 -3.11,24.07 -9.36,29.27 -6.25,5.17 -19.84,7.77 -40.73,7.77l-49 0 0 -140.51 50.52 0c17.31,0 29.2,2.86 35.74,8.57 6.54,5.75 9.8,15.51 9.8,29.38 0,15.86 -8.28,24.94 -24.79,27.1 8.64,1.41 15.43,4.77 20.38,10.12 4.95,5.32 7.45,12 7.45,20.06l0 8.24zm-56.59 -51.21c6.5,0 10.48,-0.8 11.93,-2.42 1.45,-1.63 2.17,-4.85 2.17,-9.65 0,-4.01 -0.8,-6.83 -2.42,-8.38 -1.62,-1.55 -5.53,-2.31 -11.67,-2.31l0 22.77zm14.09 44.67l0 -4.77c0,-6.07 -0.8,-9.87 -2.42,-11.38 -1.62,-1.52 -5.53,-2.28 -11.67,-2.28l0 32.52c5.71,0 9.5,-0.83 11.34,-2.49 1.84,-1.66 2.75,-5.53 2.75,-11.6z"/>
  <path id="10" class="fil2" d="M1427.48 714.19l0 34.44c0,12.65 -0.65,21.9 -1.92,27.83 -1.27,5.89 -3.97,11.38 -8.13,16.51 -4.16,5.13 -9.5,8.89 -16.05,11.35 -6.54,2.42 -14.02,3.65 -22.48,3.65 -9.47,0 -17.49,-1.05 -24.03,-3.11 -6.58,-2.09 -11.67,-5.24 -15.29,-9.43 -3.65,-4.23 -6.25,-9.32 -7.8,-15.29 -1.55,-5.96 -2.31,-14.92 -2.31,-26.85l0 -36.03c0,-13.08 1.41,-23.27 4.23,-30.65 2.82,-7.33 7.92,-13.23 15.25,-17.67 7.33,-4.44 16.73,-6.69 28.15,-6.69 9.58,0 17.82,1.45 24.72,4.3 6.87,2.86 12.18,6.58 15.94,11.17 3.72,4.59 6.29,9.33 7.66,14.2 1.37,4.88 2.06,12.29 2.06,22.26zm-42.71 -10.59c0,-7.19 -0.4,-11.74 -1.16,-13.59 -0.79,-1.88 -2.46,-2.82 -5.02,-2.82 -2.57,0 -4.26,0.94 -5.13,2.82 -0.83,1.84 -1.27,6.4 -1.27,13.59l0 63.42c0,6.65 0.43,10.99 1.27,12.97 0.87,2.02 2.53,3.03 5.03,3.03 2.56,0 4.22,-0.9 5.06,-2.74 0.83,-1.84 1.23,-5.78 1.23,-11.85l0 -64.83z"/>
  <path id="11" class="fil2" d="M1553.32 805.37l-37.3 0 0 -75.93 -29.74 75.93 -38.99 0 0 -140.51 37.3 0 0 75.28 29.24 -75.28 39.5 0 0 140.51zm-40.98 -182.14l17.99 0c-0.43,9.65 -3.21,17.39 -8.42,23.27 -5.2,5.89 -12.4,8.82 -21.65,8.82 -9.33,0 -16.55,-2.97 -21.69,-8.89 -5.13,-5.89 -7.88,-13.63 -8.31,-23.2l17.99 0c0.87,9.69 4.85,14.53 12,14.53 7.19,0 11.24,-4.84 12.07,-14.53z"/>
  <path class="fil2" d="M632.85 530.97l-6.51 54.08c-1.04,8.57 -1.9,14.42 -2.6,17.53 -0.69,3.11 -1.85,5.69 -3.46,7.71 -1.6,2.04 -3.85,3.52 -6.71,4.48 -2.87,0.96 -7.46,1.44 -13.75,1.44l-13.78 0 0 -12c3.54,0 5.81,-0.17 6.81,-0.54 1.02,-0.35 1.54,-1.15 1.54,-2.38 0,-0.62 -0.48,-3.21 -1.42,-7.83l-12.46 -62.5 20.63 0 7.46 50.54 3.67 -50.54 20.59 0z"/>
  <path id="1" class="fil2" d="M738.33 605.72l0 -59.06 -8.08 0 0 37.72c0,6.86 -0.79,11.78 -2.37,14.73 -1.58,2.94 -4.06,4.79 -7.46,5.52 -3.38,0.73 -8.96,1.1 -16.69,1.1l-3.71 0 0 -12.23c2.9,-0.04 4.88,-0.4 5.98,-1.1 1.1,-0.69 1.64,-3.15 1.64,-7.36l0 -54.06 53.29 0 0 74.75 -22.61 0z"/>
  <polygon id="2" class="fil2" points="891.63,605.72 871.79,605.72 871.79,565.33 855.97,605.72 835.23,605.72 835.23,530.97 855.07,530.97 855.07,571.02 870.62,530.97 891.63,530.97 "/>
  <polygon id="3" class="fil2" points="966.5,605.72 966.5,530.97 989.11,530.97 989.11,590.03 997.18,590.03 997.18,530.97 1019.79,530.97 1019.79,590.03 1024.64,590.03 1024.64,620.14 1009.41,620.14 1009.41,605.72 "/>
  <path id="4" class="fil2" d="M1117.4 559.92l-21.34 0 0 -5.02c0,-5.79 0.67,-10.25 2,-13.4 1.33,-3.13 4.02,-5.9 8.04,-8.31 4.02,-2.4 9.23,-3.62 15.67,-3.62 7.69,0 13.5,1.37 17.4,4.1 3.9,2.71 6.25,6.06 7.04,10.01 0.79,3.96 1.19,12.13 1.19,24.49l0 37.53 -22.15 0 0 -6.67c-1.38,2.69 -3.19,4.69 -5.38,6.04 -2.19,1.35 -4.81,2.02 -7.86,2.02 -3.98,0 -7.63,-1.11 -10.96,-3.34 -3.33,-2.25 -4.98,-7.14 -4.98,-14.69l0 -6.15c0,-5.59 0.88,-9.4 2.65,-11.44 1.77,-2.04 6.15,-4.4 13.15,-7.1 7.48,-2.94 11.48,-4.9 12.02,-5.92 0.52,-1.02 0.79,-3.07 0.79,-6.21 0,-3.9 -0.29,-6.44 -0.89,-7.63 -0.57,-1.17 -1.56,-1.77 -2.92,-1.77 -1.56,0 -2.52,0.5 -2.89,1.5 -0.38,0.98 -0.58,3.58 -0.58,7.75l0 7.82zm7.27 10.25c-3.68,2.67 -5.81,4.9 -6.38,6.71 -0.6,1.81 -0.89,4.38 -0.89,7.76 0,3.89 0.25,6.36 0.77,7.5 0.5,1.13 1.52,1.69 3.03,1.69 1.45,0 2.37,-0.44 2.81,-1.33 0.44,-0.88 0.66,-3.19 0.66,-6.96l0 -15.38z"/>
  <path class="fil3" d="M708.23 137.45l0 243.62 -60.68 0 0 -130.8c0,-18.89 -0.46,-30.28 -1.33,-34.08 -0.92,-3.8 -3.39,-6.73 -7.44,-8.68 -4.06,-1.95 -13.09,-2.93 -27.11,-2.93l-6 0 0 -28.28c29.36,-6.26 51.64,-19.25 66.83,-38.86l35.73 0z"/>
  <path id="1" class="fil3" d="M866.67 242.94c8.93,3.59 15.81,8.98 20.59,16.17 4.82,7.18 7.24,24.23 7.24,51.23 0,19.66 -1.9,34.14 -5.7,43.48 -3.85,9.29 -11.24,16.94 -22.28,22.94 -11.04,5.96 -25.82,8.93 -44.4,8.93 -18.07,0 -32.34,-2.87 -42.86,-8.57 -10.58,-5.7 -18.12,-13.29 -22.69,-22.74 -4.57,-9.39 -6.83,-25.1 -6.83,-47.07 0,-14.73 1.13,-27.51 3.39,-38.34 2.26,-10.83 9.34,-19.51 21.25,-26.03 -7.49,-3.6 -13.09,-9.34 -16.84,-17.25 -3.75,-7.85 -5.65,-17.86 -5.65,-29.98 0,-20.95 5.8,-36.7 17.45,-47.17 11.6,-10.47 29,-15.71 52.15,-15.71 26.79,0 45.27,5.55 55.49,16.68 10.22,11.14 15.35,27.05 15.35,47.69 0,13.14 -1.7,22.64 -5.03,28.44 -3.33,5.8 -10.21,11.6 -20.63,17.3zm-34.09 -52.2c0,-8.27 -0.72,-13.71 -2.21,-16.33 -1.44,-2.67 -4.26,-4 -8.42,-4 -4.05,0 -6.78,1.44 -8.21,4.31 -1.39,2.82 -2.1,8.16 -2.1,16.02l0 18.48c0,7.34 0.82,12.37 2.41,15.2 1.64,2.82 4.36,4.21 8.21,4.21 4.06,0 6.78,-1.39 8.21,-4.16 1.39,-2.72 2.1,-8.42 2.1,-17.04l0 -16.68zm1.23 101.07c0,-9.34 -0.98,-15.5 -2.87,-18.58 -1.95,-3.03 -4.98,-4.57 -9.14,-4.57 -4.05,0 -6.98,1.49 -8.72,4.42 -1.8,2.98 -2.67,9.19 -2.67,18.74l0 31.52c0,10.52 0.98,17.3 2.98,20.28 1.95,3.03 5.08,4.52 9.34,4.52 4.36,0 7.29,-1.54 8.83,-4.57 1.49,-3.08 2.26,-9.96 2.26,-20.69l0 -31.06z"/>
  <path id="2" class="fil3" d="M1080.09 202.44l-60.68 0c0,-11.4 -0.1,-18.58 -0.36,-21.51 -0.25,-2.97 -1.49,-5.49 -3.7,-7.49 -2.16,-2 -5.13,-3.03 -8.88,-3.03 -3.13,0 -5.7,0.98 -7.75,2.87 -2,1.9 -3.18,4.31 -3.49,7.34 -0.31,3.03 -0.46,9.09 -0.46,18.17l0 38.76c3.13,-6.47 7.7,-11.34 13.7,-14.58 6.06,-3.23 13.5,-4.83 22.33,-4.83 11.14,0 21,3.03 29.52,9.04 8.57,6.01 13.96,13.19 16.27,21.61 2.31,8.42 3.49,19.81 3.49,34.14l0 19.35c0,17.04 -0.67,29.72 -1.95,38.04 -1.33,8.32 -4.77,16.02 -10.47,23.05 -5.65,7.08 -13.45,12.58 -23.31,16.48 -9.91,3.9 -21.4,5.85 -34.54,5.85 -16.38,0 -29.77,-2.26 -40.19,-6.77 -10.42,-4.52 -18.48,-10.99 -24.18,-19.46 -5.65,-8.47 -8.98,-17.35 -9.91,-26.7 -0.98,-9.29 -1.44,-27.41 -1.44,-54.26l0 -33.67c0,-28.95 0.41,-48.36 1.28,-58.11 0.88,-9.75 4.31,-19.05 10.47,-27.72 6.11,-8.73 14.48,-15.3 25.05,-19.66 10.58,-4.36 22.79,-6.52 36.65,-6.52 17.04,0 31.06,2.77 41.99,8.27 10.93,5.54 18.74,13.34 23.46,23.35 4.72,10.06 7.08,22.74 7.08,37.99zm-60.68 75.76c0,-8.57 -0.98,-14.47 -2.87,-17.66 -1.95,-3.24 -5.08,-4.83 -9.45,-4.83 -4.26,0 -7.39,1.54 -9.34,4.57 -2,3.08 -2.97,9.04 -2.97,17.91l0 43.94c0,10.73 0.92,17.71 2.82,21.04 1.85,3.29 4.98,4.93 9.34,4.93 2.62,0 5.39,-1.28 8.21,-3.85 2.82,-2.52 4.26,-9.39 4.26,-20.58l0 -45.48z"/>
 </g>
</svg>
