<?xml version="1.0" encoding="UTF-8"?>
<!DOCTYPE svg PUBLIC "-//W3C//DTD SVG 1.1//EN" "http://www.w3.org/Graphics/SVG/1.1/DTD/svg11.dtd">
<!-- Creator: CorelDRAW 2017 -->
<svg xmlns="http://www.w3.org/2000/svg" xml:space="preserve" version="1.1" style="shape-rendering:geometricPrecision; text-rendering:geometricPrecision; image-rendering:optimizeQuality; fill-rule:evenodd; clip-rule:evenodd"
viewBox="0 0 1759.1 799.62"
 xmlns:xlink="http://www.w3.org/1999/xlink">
 <defs>
  <style type="text/css">
   <![CDATA[
    .str0 {stroke:black;stroke-width:20.33;stroke-miterlimit:22.9256}
    .fil0 {fill:none}
    .fil1 {fill:black}
    .fil2 {fill:#FEFEFE;fill-rule:nonzero}
    .fil3 {fill:#2B2A29;fill-rule:nonzero}
   ]]>
  </style>
 </defs>
 <g id="Слой_x0020_1">
  <metadata id="CorelCorpID_0Corel-Layer"/>
  <path class="fil0 str0" d="M10.16 232.3c70.99,-47.33 199.09,-73.34 303.32,-83.9 0,-53.06 0,-41.59 0,-94.65 423.78,-62.39 774.43,-53.78 1122.92,0 0,53.06 0,48.04 0,101.1 107.06,14.16 202.93,43.03 294.71,77.45 0,109.71 0,200.06 0,309.77l-464.94 0c-7.51,137.45 -180.74,247.38 -393.38,247.38 -212.65,0 -385.88,-109.93 -393.38,-247.38l-469.25 0c0,-109.71 0,-200.06 0,-309.77z"/>
  <path class="fil1" d="M74.7 276.1c29.75,-27.78 191.46,-83.44 290.41,-89.66 0,-29.89 0,-59.78 0,-89.66 359.24,-47.33 679.78,-34.42 1019.66,0 0,29.89 0,59.78 0,89.66 131.94,19.14 199.35,44.72 292.56,89.66 0,71.45 0,142.9 0,214.34 -144.52,0 -289.03,0 -433.55,0 -21.67,0.95 -43.45,33.14 -58.12,90.29 -24.9,78.19 -155.52,144.19 -318.26,144.19 -162.74,0 -326.98,-88.15 -326.98,-179.63 -2.6,-37.06 -14.7,-54.85 -68.84,-54.85l-396.89 0c0,-71.45 0,-142.9 0,-214.34zm1119.32 210.16c-15.48,9.44 -30.2,36.27 -40.81,77.56 -22.43,70.44 -140.09,129.89 -286.69,129.89 -146.6,0 -294.55,-79.41 -294.55,-161.81 -1.51,-21.57 -6.6,-35.89 -23.16,-43.33 -28.36,-12.73 -28.54,-12.78 1.79,-26.14 90.09,-39.66 325.5,-111.17 644.62,8.56 14.94,5.6 14.55,5.68 -1.2,15.27z"/>
  <path class="fil2" d="M555.84 120.05l24.55 -2.41 0.21 2.11 -1.21 0.12c-1.72,0.17 -2.97,0.67 -3.76,1.5 -0.79,0.83 -1.13,1.8 -1.02,2.92 0.15,1.48 1,3.49 2.5,6l15.42 25.33 8.83 -30.25c0.49,-1.63 0.67,-3.22 0.52,-4.74 -0.07,-0.69 -0.26,-1.2 -0.56,-1.51 -0.33,-0.4 -0.86,-0.68 -1.52,-0.87 -0.67,-0.19 -1.84,-0.2 -3.48,-0.04l-0.21 -2.11 17.03 -1.67 0.21 2.11c-1.39,0.29 -2.46,0.69 -3.17,1.24 -0.72,0.52 -1.48,1.47 -2.27,2.81 -0.3,0.56 -0.8,2.09 -1.52,4.59l-16.18 54.54c-1.57,5.28 -3.9,9.37 -7,12.3 -3.09,2.93 -6.18,4.53 -9.29,4.83 -2.25,0.22 -4.17,-0.24 -5.74,-1.41 -1.59,-1.14 -2.46,-2.56 -2.62,-4.24 -0.16,-1.6 0.24,-2.95 1.2,-4 0.96,-1.08 2.36,-1.71 4.2,-1.89 1.27,-0.12 3.03,0.1 5.27,0.69 1.59,0.37 2.58,0.56 2.95,0.52 1.15,-0.11 2.35,-0.82 3.6,-2.13 1.24,-1.28 2.38,-3.68 3.44,-7.18l2.78 -9.54 -22.76 -37.65c-0.7,-1.13 -1.75,-2.53 -3.19,-4.18 -1.09,-1.24 -1.96,-2.08 -2.61,-2.47 -0.94,-0.54 -2.4,-0.93 -4.4,-1.21l-0.2 -2.11zm161.33 -12.8l46.93 -2.15 0.1 2.11c-2.61,0.12 -4.34,0.46 -5.18,1.02 -0.84,0.55 -1.48,1.23 -1.95,2.03 -0.46,0.79 -0.6,3.31 -0.4,7.55l1.28 28c0.19,4.06 0.51,6.48 0.96,7.25 0.47,0.76 1.16,1.42 2.09,1.98 0.93,0.54 2.73,0.76 5.41,0.64l0.09 2.11 -27.29 1.25 -0.1 -2.11c2.94,-0.13 4.98,-0.39 6.1,-0.73 1.12,-0.37 1.97,-1.15 2.56,-2.34 0.6,-1.21 0.81,-3.75 0.64,-7.61l-1.68 -36.58 -17.53 0.8 1.02 22.21c0.39,8.39 0.28,14.31 -0.3,17.74 -0.59,3.42 -1.96,6 -4.09,7.73 -2.12,1.73 -4.61,2.67 -7.46,2.8 -4.9,0.22 -7.45,-1.7 -7.63,-5.76 -0.07,-1.39 0.27,-2.52 1.02,-3.44 0.74,-0.92 1.76,-1.41 3.02,-1.47 1.35,-0.07 2.61,0.45 3.82,1.51 1.57,1.4 2.73,2.08 3.49,2.04 1.75,-0.08 2.94,-1.59 3.59,-4.53 0.65,-2.96 0.81,-8.05 0.48,-15.33l-0.53 -11.67c-0.28,-5.98 -0.88,-9.61 -1.78,-10.88 -0.9,-1.26 -3.09,-1.94 -6.6,-2.06l-0.09 -2.11zm168.66 32.83l22.79 -26.56c-0.07,-2.94 -0.62,-4.96 -1.67,-6.13 -1.04,-1.14 -2.82,-1.73 -5.37,-1.78l0 -2.12 24.61 0.06 -0 2.12c-2.57,-0 -4.3,0.25 -5.19,0.77 -0.88,0.51 -1.57,1.16 -2.08,1.94 -0.49,0.77 -0.76,3.28 -0.76,7.52l-0.07 28.03c-0.01,4.07 0.2,6.5 0.61,7.28 0.43,0.78 1.09,1.48 2,2.08 0.9,0.59 2.69,0.89 5.37,0.9l-0 2.12 -25.55 -0.06 0 -2.12c3.18,0.01 5.32,-0.57 6.4,-1.73 1.08,-1.17 1.62,-4 1.63,-8.5l0.06 -24.96 -22.79 26.56c0.07,3.24 0.52,5.48 1.36,6.72 0.84,1.22 2.66,1.85 5.45,1.9l-0 2.12 -24.38 -0.06 0 -2.12c3.41,0.01 5.62,-0.62 6.58,-1.85 0.96,-1.25 1.44,-4.04 1.45,-8.38l0.07 -28.05c0.01,-4.12 -0.2,-6.56 -0.61,-7.3 -0.43,-0.77 -1.08,-1.44 -1.96,-2.03 -0.88,-0.61 -2.69,-0.91 -5.41,-0.91l0 -2.12 25.56 0.06 -0 2.12c-2.57,-0.01 -4.3,0.24 -5.19,0.77 -0.88,0.51 -1.57,1.15 -2.09,1.94 -0.49,0.77 -0.75,3.28 -0.76,7.52l-0.06 24.26zm199.92 20.43l-0.89 16.74 -2 -0.11c0.12,-4.49 -1.16,-8.12 -3.85,-10.88 -2.68,-2.78 -7.72,-4.36 -15.16,-4.76l-35.97 -1.92 0.11 -2.11c3.41,0.18 5.64,-0.33 6.67,-1.51 1.02,-1.2 1.65,-3.96 1.88,-8.3l1.49 -27.99c0.22,-4.11 0.14,-6.58 -0.23,-7.34 -0.39,-0.77 -1,-1.49 -1.85,-2.13 -0.85,-0.65 -2.64,-1.04 -5.36,-1.19l0.11 -2.12 25.52 1.37 -0.11 2.11c-2.57,-0.14 -4.31,0.03 -5.22,0.51 -0.91,0.46 -1.63,1.07 -2.18,1.83 -0.53,0.74 -0.91,3.24 -1.14,7.47l-1.59 29.73c-0.18,3.33 0.01,5.33 0.57,5.96 0.58,0.64 2.46,1.06 5.65,1.23l9.29 0.5c3.54,0.19 5.6,-0.03 6.13,-0.65 0.52,-0.62 0.89,-2.72 1.09,-6.29l1.56 -29.26c0.2,-3.67 0.12,-6.03 -0.19,-7.11 -0.34,-1.08 -1.04,-1.93 -2.13,-2.5 -1.09,-0.59 -2.8,-0.94 -5.13,-1.06l0.11 -2.11 25.52 1.36 -0.11 2.11c-2.57,-0.13 -4.31,0.03 -5.22,0.51 -0.91,0.46 -1.63,1.07 -2.18,1.83 -0.53,0.74 -0.92,3.24 -1.15,7.47l-1.45 27.08c-0.26,4.94 0.02,8.02 0.85,9.21 0.82,1.2 3,1.97 6.56,2.31zm132.91 4.58c-5.75,3.68 -9.35,5.8 -10.8,6.32 -2.14,0.78 -4.37,1.07 -6.7,0.86 -3.63,-0.33 -6.52,-1.85 -8.63,-4.54 -2.12,-2.7 -3,-6.07 -2.64,-10.11 0.23,-2.56 1,-4.74 2.32,-6.49 1.8,-2.46 4.74,-4.66 8.81,-6.61 4.1,-1.94 10.78,-4.16 20.09,-6.63l0.18 -2.05c0.47,-5.22 -0.03,-8.87 -1.51,-10.97 -1.49,-2.09 -3.81,-3.28 -6.97,-3.57 -2.39,-0.22 -4.37,0.26 -5.89,1.44 -1.57,1.16 -2.42,2.58 -2.57,4.26l-0.18 3.33c-0.16,1.76 -0.73,3.09 -1.72,3.96 -0.99,0.87 -2.22,1.24 -3.67,1.11 -1.43,-0.13 -2.56,-0.72 -3.37,-1.8 -0.81,-1.08 -1.14,-2.48 -0.98,-4.2 0.29,-3.28 2.25,-6.16 5.86,-8.62 3.61,-2.46 8.47,-3.39 14.55,-2.85 4.67,0.42 8.42,1.54 11.26,3.38 2.14,1.37 3.63,3.38 4.48,6 0.54,1.68 0.59,5.08 0.13,10.14l-1.6 17.79c-0.45,4.98 -0.63,8.06 -0.53,9.2 0.09,1.15 0.34,1.92 0.74,2.35 0.41,0.41 0.9,0.65 1.47,0.7 0.63,0.06 1.17,-0.03 1.66,-0.25 0.85,-0.43 2.52,-1.68 5.03,-3.76l-0.29 3.21c-4.82,5.38 -9.18,7.88 -13.09,7.53 -1.88,-0.17 -3.33,-0.95 -4.33,-2.34 -1,-1.41 -1.36,-3.67 -1.12,-6.78zm0.33 -3.73l1.8 -19.96c-6.01,1.77 -9.89,3.05 -11.68,3.86 -3.18,1.41 -5.51,2.95 -6.98,4.67 -1.48,1.72 -2.3,3.66 -2.5,5.83 -0.25,2.75 0.37,5.09 1.87,7.06 1.48,1.97 3.31,3.04 5.46,3.23 2.91,0.26 6.92,-1.31 12.03,-4.69z"/>
  <path class="fil2" d="M134.73 289.66l126.61 -30.87 0.88 3.61c-9.45,2.59 -15.21,5.38 -17.26,8.36 -2.08,3.02 -2.03,8.9 0.1,17.67l17.99 73.79c3.48,14.26 6.56,22.87 9.27,25.79 2.72,2.92 9.17,3.12 19.45,0.61l10.19 41.79 -3.93 0.96c-4.58,-9.1 -10.15,-16.01 -16.55,-20.69 -6.45,-4.7 -13.07,-7.24 -19.91,-7.7 -6.84,-0.42 -14.71,0.43 -23.56,2.59l-38.97 9.5c-17.06,4.16 -28.59,11.22 -34.64,21.22 -6.06,9.96 -8.72,19.82 -8,29.62l-3.93 0.96 -10.19 -41.79c11.84,-3.84 20.07,-12.56 24.76,-26.11 4.68,-13.59 6.42,-29.23 5.14,-47.01 -1.24,-17.79 -3.18,-32.14 -5.85,-43.09 -1.59,-6.53 -3.7,-11.13 -6.33,-13.74 -2.64,-2.62 -5.35,-4.02 -8.12,-4.16 -2.77,-0.17 -8.21,0.62 -16.29,2.3l-0.88 -3.62zm38.78 -1.58c7.57,39.23 10.67,67.32 9.2,84.24 -1.42,16.91 -5.51,30.92 -12.18,42.06l56.57 -13.79c10.05,-2.45 15.91,-4.7 17.5,-6.71 1.63,-2.03 1.41,-7.26 -0.65,-15.7l-24.68 -101.24 -45.75 11.16zm134.98 36.95l-4.95 -28.53 4.92 -0.85c1.56,0.89 3.18,1.16 4.86,0.87 1.29,-0.22 4.06,-1.23 8.2,-3.06 6.91,-3.06 12.65,-4.99 17.25,-5.79 10.04,-1.74 18.78,-1.2 26.24,1.67 7.46,2.87 11.75,7.68 12.91,14.37 1.78,10.25 -5.91,19.25 -23.03,27.01 21.55,0.15 33.49,6.85 35.79,20.13 1.21,6.96 -1.08,13.72 -6.87,20.22 -5.79,6.5 -15.09,10.87 -27.91,13.09 -8.35,1.45 -15.96,1.44 -22.77,-0.04 -6.81,-1.48 -14.53,-4.65 -23.05,-9.5l2.6 -3.11c13.96,6.26 26.48,8.42 37.69,6.48 6.4,-1.11 11.31,-3.92 14.74,-8.47 3.44,-4.51 4.65,-9.83 3.6,-15.91 -2.31,-13.31 -13.31,-18.68 -32.97,-16.11l-0.99 -5.7c9.22,-1.6 15.53,-4.89 18.93,-9.86 3.39,-5 4.68,-9.91 3.83,-14.79 -0.75,-4.31 -3.2,-7.77 -7.31,-10.38 -4.11,-2.61 -9.12,-3.42 -15.02,-2.39 -13.63,2.36 -21.19,12.35 -22.72,29.96l-3.98 0.69zm117.16 -13.76c1.72,13.57 6.95,23.69 15.63,30.39 8.68,6.67 18.23,9.33 28.6,7.95 6.88,-0.91 12.68,-3.35 17.35,-7.31 4.68,-3.92 8.2,-10.2 10.59,-18.72l3.81 1.54c-0.39,9.44 -3.96,18.43 -10.71,26.94 -6.74,8.51 -15.95,13.55 -27.58,15.1 -12.65,1.68 -24.06,-1.15 -34.2,-8.53 -10.13,-7.38 -16.18,-18.29 -18.09,-32.74 -2.08,-15.65 0.94,-28.5 9,-38.47 8.07,-10 19.08,-15.92 33.03,-17.77 11.79,-1.57 21.94,0.53 30.42,6.28 8.48,5.76 13.5,14.31 15,25.65l-72.85 9.67zm-0.76 -5.74l48.8 -6.48c-1.17,-5.83 -2.51,-9.85 -4.04,-12.08 -2.42,-3.47 -5.68,-6.02 -9.77,-7.63 -4.06,-1.65 -8.16,-2.19 -12.33,-1.63 -6.37,0.85 -11.78,3.75 -16.23,8.72 -4.46,4.97 -6.57,11.34 -6.42,19.1zm86.11 -32l31.53 -14.32 4.38 -0.4 1.96 21.34c4.75,-8.53 9.71,-14.7 14.94,-18.43 5.23,-3.74 10.88,-5.88 17,-6.44 10.65,-0.98 19.87,1.8 27.64,8.39 9.53,8.05 14.94,19.18 16.25,33.39 1.46,15.89 -2.59,29.48 -12.13,40.85 -7.86,9.3 -18.36,14.56 -31.46,15.76 -5.72,0.53 -10.72,0.3 -15.03,-0.73 -3.17,-0.71 -6.83,-2.38 -10.98,-5.04l2.58 28.07c0.59,6.35 1.39,10.32 2.46,11.96 1.02,1.64 2.73,2.86 5.04,3.69 2.26,0.8 6.33,0.94 12.14,0.41l0.34 3.7 -55.65 5.12 -0.34 -3.71 2.92 -0.27c4.27,-0.32 7.84,-1.35 10.7,-3.09 1.43,-0.89 2.46,-2.17 3.11,-3.89 0.67,-1.69 0.69,-5.91 0.08,-12.57l-8.05 -87.5c-0.54,-5.9 -1.2,-9.61 -1.94,-11.14 -0.78,-1.56 -1.88,-2.66 -3.29,-3.33 -1.41,-0.67 -3.27,-0.91 -5.59,-0.7 -1.82,0.17 -4.14,0.87 -6.9,2.05l-1.68 -3.17zm38.42 12.59l3.17 34.45c0.69,7.48 1.49,12.36 2.38,14.63 1.46,3.81 4.42,7 8.88,9.57 4.5,2.56 9.96,3.54 16.36,2.96 7.73,-0.71 13.73,-3.89 18.02,-9.58 5.65,-7.44 7.88,-17.37 6.74,-29.79 -1.3,-14.11 -5.85,-24.66 -13.66,-31.59 -5.41,-4.8 -11.53,-6.86 -18.32,-6.24 -3.72,0.34 -7.31,1.47 -10.79,3.41 -2.65,1.49 -6.94,5.52 -12.77,12.18zm149.78 55.98l-0.13 -3.72c7.19,-0.87 11.73,-2.69 13.57,-5.48 1.84,-2.82 2.59,-8.43 2.3,-16.84l-0.75 -21.04c-5.11,0.18 -8.46,0.82 -10.09,1.87 -1.63,1.06 -4.31,4.98 -7.99,11.73l-18.78 34.25 -31.37 1.11 -0.13 -3.51c5.38,-0.53 9.45,-2.06 12.13,-4.57 2.7,-2.51 6.26,-7.98 10.72,-16.42 6.85,-12.83 11.85,-20.63 15.08,-23.43 3.19,-2.77 6.7,-4.38 10.53,-4.78 -4.77,-1.59 -9.4,-6.95 -13.89,-16.1 -2.17,-4.34 -3.86,-7.18 -5.07,-8.55 -1.2,-1.34 -2.81,-1.97 -4.83,-1.9 -1.54,0.06 -3.51,0.54 -5.85,1.45 -3.44,1.33 -6.16,2.04 -8.06,2.11 -3.09,0.11 -5.58,-0.7 -7.42,-2.46 -1.85,-1.73 -2.8,-3.9 -2.89,-6.45 -0.1,-2.93 1.16,-5.25 3.8,-6.89 2.68,-1.68 5.82,-2.58 9.43,-2.71 6.34,-0.22 11.51,1.21 15.42,4.35 3.96,3.1 7.81,8.83 11.59,17.07 3.61,7.94 7.52,13.05 11.81,15.34 4.24,2.3 9.48,3.32 15.66,3.1l-0.54 -15.26c-0.31,-8.71 -1.54,-14.36 -3.69,-16.83 -2.15,-2.51 -6.72,-3.94 -13.72,-4.31l-0.13 -3.72 52.52 -1.86 0.13 3.72c-7.03,0.94 -11.52,2.72 -13.45,5.37 -1.93,2.62 -2.72,8.31 -2.41,16.95l0.54 15.26c6.1,-0.22 11.21,-1.6 15.28,-4.2 4.11,-2.59 7.65,-7.96 10.7,-16.14 3.83,-10.48 7.93,-16.93 12.36,-19.4 4.48,-2.44 8.71,-3.72 12.83,-3.87 4.56,-0.16 8.03,0.61 10.48,2.35 2.4,1.71 3.66,3.83 3.75,6.28 0.09,2.55 -0.7,4.78 -2.42,6.64 -1.72,1.89 -4.14,2.87 -7.23,2.98 -1.9,0.07 -4.65,-0.46 -8.19,-1.54 -2.41,-0.74 -4.28,-1.09 -5.59,-1.04 -2.26,0.08 -3.94,0.83 -5.03,2.24 -1.1,1.46 -2.58,4.4 -4.45,8.88 -3.83,9.45 -8.07,15.11 -12.72,17.04 4,0.13 7.7,1.56 11.13,4.26 3.43,2.71 8.81,9.96 16.16,21.77 5.22,8.3 9.25,13.61 12.11,15.92 2.86,2.31 7.03,3.55 12.43,3.7l0.12 3.51 -31.37 1.11 -21.15 -32.84c-4.15,-6.47 -7.1,-10.2 -8.8,-11.13 -1.7,-0.94 -5.09,-1.34 -10.19,-1.15l0.74 21.04c0.34,9.65 1.7,15.43 4.06,17.41 2.33,1.99 6.82,3.21 13.34,3.73l0.13 3.72 -52.52 1.86zm155.24 -31.92l46.03 -46.6c-0.15,-5.17 -1.24,-8.72 -3.38,-10.76 -2.09,-2 -5.7,-3.05 -10.85,-3.13l0.01 -3.72 49.7 0.14 -0.01 3.72c-5.19,-0.01 -8.68,0.43 -10.47,1.35 -1.78,0.89 -3.17,2.03 -4.21,3.4 -0.99,1.34 -1.52,5.75 -1.54,13.19l-0.14 49.21c-0.02,7.13 0.4,11.41 1.23,12.79 0.87,1.38 2.22,2.59 4.04,3.67 1.81,1.04 5.42,1.56 10.85,1.58l-0.01 3.72 -51.61 -0.14 0.01 -3.72c6.42,0.02 10.74,-1 12.93,-3.03 2.18,-2.06 3.27,-7.02 3.29,-14.91l0.12 -43.83 -46.03 46.6c0.15,5.68 1.04,9.62 2.74,11.79 1.7,2.14 5.38,3.26 11.01,3.34l-0.01 3.72 -49.23 -0.14 0.01 -3.72c6.89,0.02 11.34,-1.07 13.29,-3.24 1.94,-2.2 2.91,-7.09 2.94,-14.71l0.13 -49.24c0.02,-7.24 -0.41,-11.51 -1.23,-12.83 -0.87,-1.35 -2.17,-2.52 -3.95,-3.56 -1.78,-1.07 -5.43,-1.6 -10.94,-1.61l0.01 -3.72 51.6 0.14 -0.01 3.72c-5.19,-0.01 -8.68,0.43 -10.47,1.35 -1.78,0.89 -3.17,2.03 -4.21,3.4 -0.99,1.34 -1.52,5.75 -1.55,13.19l-0.12 42.6zm135.59 -20.32l45.86 2.09 0.89 -19.62c0.27,-5.88 0.16,-9.75 -0.31,-11.57 -0.43,-1.81 -1.71,-3.39 -3.79,-4.72 -2.08,-1.37 -5.81,-2.17 -11.24,-2.41l0.17 -3.72 51.55 2.35 -0.17 3.72c-4.79,-0.22 -8.33,0.11 -10.59,0.94 -2.22,0.86 -3.79,2.17 -4.67,3.93 -0.83,1.76 -1.41,5.87 -1.71,12.37l-2.23 49.16c-0.27,5.86 -0.17,9.72 0.34,11.64 0.51,1.92 1.83,3.5 4.03,4.81 2.2,1.27 5.86,2.02 10.96,2.26l-0.17 3.72 -51.56 -2.34 0.17 -3.72c6.41,0.29 10.77,-0.54 13.05,-2.48 2.27,-1.97 3.57,-6.87 3.92,-14.76l1.04 -22.92 -45.86 -2.09 -1.04 22.92c-0.27,5.85 -0.17,9.72 0.35,11.64 0.5,1.92 1.82,3.5 4.02,4.81 2.2,1.27 5.86,2.02 10.97,2.26l-0.17 3.72 -51.55 -2.35 0.17 -3.72c6.89,0.31 11.37,-0.59 13.41,-2.66 2.04,-2.11 3.22,-6.96 3.56,-14.57l2.23 -49.16c0.27,-5.88 0.17,-9.79 -0.34,-11.71 -0.51,-1.92 -1.83,-3.5 -4.03,-4.77 -2.21,-1.24 -5.86,-1.99 -10.97,-2.22l0.17 -3.72 51.56 2.35 -0.17 3.72c-4.79,-0.22 -8.34,0.11 -10.6,0.94 -2.22,0.86 -3.78,2.17 -4.66,3.92 -0.83,1.76 -1.42,5.87 -1.72,12.37l-0.89 19.62zm190.7 28.53c-3.81,11.97 -10.15,20.84 -19,26.67 -8.85,5.83 -18.31,8.37 -28.43,7.57 -12.05,-0.95 -22.21,-6.18 -30.45,-15.68 -8.28,-9.47 -11.8,-21.71 -10.62,-36.68 1.14,-14.46 7.01,-25.85 17.65,-34.14 10.63,-8.25 22.88,-11.85 36.75,-10.75 10.43,0.83 18.78,3.9 25.12,9.24 6.34,5.31 9.31,10.55 8.9,15.74 -0.2,2.54 -1.32,4.53 -3.34,5.96 -2.02,1.43 -4.69,2.01 -8.09,1.74 -4.54,-0.36 -7.84,-1.9 -9.89,-4.65 -1.27,-1.52 -1.97,-4.31 -2.09,-8.33 -0.12,-4.02 -1.42,-7.2 -3.94,-9.5 -2.57,-2.24 -6.2,-3.53 -10.98,-3.91 -7.74,-0.61 -14.14,1.37 -19.24,5.98 -6.77,6.1 -10.57,14.55 -11.43,25.4 -0.87,11.03 1.48,21 7.02,29.94 5.57,8.91 13.61,13.8 24.21,14.63 7.59,0.6 14.56,-1.07 20.91,-5.02 4.51,-2.72 9.06,-8.03 13.74,-15.89l3.21 1.67zm124.35 48.52l-31.18 -3.26c-8.41,-13.29 -15.85,-26.78 -22.39,-40.46 -1.54,-3.17 -2.97,-5.54 -4.32,-7.13 -1.35,-1.6 -3.33,-2.53 -5.97,-2.81 -0.91,-0.09 -2.37,-0.18 -4.39,-0.25l-2.58 24.68c-0.7,6.65 -0.7,10.92 0.02,12.86 0.67,1.94 2.11,3.41 4.35,4.48 2.21,1.03 6.07,1.85 11.51,2.41l-0.39 3.7 -52.98 -5.54 0.39 -3.7c6.86,0.72 11.39,0.08 13.55,-1.87 2.16,-1.99 3.62,-6.76 4.41,-14.33l5.12 -48.95c0.75,-7.2 0.76,-11.52 0.07,-12.92 -0.73,-1.39 -1.91,-2.73 -3.57,-3.94 -1.67,-1.25 -5.24,-2.14 -10.72,-2.72l0.38 -3.7 52.98 5.54 -0.38 3.7c-6.39,-0.67 -10.37,-0.67 -11.95,-0.04 -1.59,0.67 -3.03,1.52 -4.37,2.56 -1.35,1.07 -2.46,5.57 -3.29,13.51l-1.89 18.1c1.76,0.32 2.94,0.51 3.57,0.58 4.69,0.49 9.22,-0.22 13.57,-2.08 4.38,-1.86 8.56,-6.38 12.57,-13.55 3.74,-6.78 6.72,-11.29 8.94,-13.55 2.24,-2.29 5.16,-4 8.84,-5.21 3.67,-1.21 7.42,-1.61 11.25,-1.21 4.17,0.43 7.39,1.63 9.66,3.64 2.3,2 3.28,4.43 2.99,7.24 -0.24,2.33 -1.32,4.23 -3.26,5.69 -1.95,1.46 -4.52,2.02 -7.67,1.7 -1.7,-0.18 -3.74,-0.81 -6.22,-1.9 -3.12,-1.36 -5.51,-2.13 -7.21,-2.31 -3.54,-0.37 -6.74,1.96 -9.62,7.03 -3.24,5.79 -5.58,9.5 -6.98,11.12 -1.44,1.65 -4.01,3.74 -7.79,6.32 2.3,0.87 4.74,2.71 7.31,5.51 2.53,2.79 7,10.44 13.42,22.89 5.1,9.96 9.05,16.36 11.82,19.25 2.77,2.89 7.05,4.68 12.79,5.42l-0.37 3.5zm68.61 -86.14c15.96,2.37 27.96,9.51 36.04,21.47 6.87,10.18 9.46,21.12 7.73,32.78 -1.22,8.18 -4.72,16.13 -10.48,23.84 -5.76,7.72 -12.93,13.13 -21.48,16.22 -8.59,3.08 -17.72,3.89 -27.44,2.44 -15.88,-2.35 -27.69,-9.72 -35.4,-22.07 -6.5,-10.44 -8.93,-21.4 -7.22,-32.92 1.24,-8.39 4.88,-16.38 10.89,-23.95 6.02,-7.57 13.24,-12.78 21.67,-15.57 8.39,-2.8 16.95,-3.54 25.7,-2.25zm-4.54 6.01c-4.04,-0.6 -8.27,-0.15 -12.7,1.32 -4.39,1.51 -8.27,4.66 -11.55,9.54 -3.33,4.87 -5.58,11.44 -6.81,19.68 -1.98,13.3 -0.61,25.2 4.03,35.75 4.64,10.55 11.97,16.55 21.93,18.03 7.4,1.1 13.92,-0.65 19.53,-5.26 5.61,-4.6 9.39,-13.38 11.31,-26.33 2.41,-16.22 0.26,-29.57 -6.39,-40.08 -4.47,-7.18 -10.93,-11.41 -19.36,-12.66zm161.07 21.91l0.01 25.61 -5.15 -0.9c-1.46,-8.69 -3.46,-14.31 -6.04,-16.83 -2.54,-2.51 -8.53,-4.6 -17.9,-6.23l-22.06 -3.85 -11.03 63.35c-1.22,7.03 -1.52,11.31 -0.94,12.81 0.62,1.51 1.74,2.93 3.35,4.29 1.62,1.33 5.09,2.46 10.43,3.39l-0.64 3.67 -52.48 -9.13 0.63 -3.67c7.48,1.17 12.47,0.98 14.9,-0.52 2.48,-1.53 4.39,-6.23 5.76,-14.15l8.44 -48.48c1.13,-6.48 1.41,-10.7 0.91,-12.68 -0.54,-1.98 -1.75,-3.56 -3.72,-4.74 -1.93,-1.14 -5.84,-2.28 -11.68,-3.36l0.64 -3.67 86.57 15.07zm67.65 10.08c15.82,3.15 27.46,10.87 34.94,23.21 6.36,10.51 8.41,21.56 6.11,33.12 -1.61,8.11 -5.5,15.87 -11.63,23.3 -6.12,7.43 -13.55,12.48 -22.24,15.15 -8.73,2.66 -17.9,3.01 -27.53,1.1 -15.75,-3.13 -27.19,-11.06 -34.27,-23.78 -5.99,-10.75 -7.87,-21.8 -5.6,-33.23 1.65,-8.32 5.67,-16.13 12.05,-23.4 6.38,-7.27 13.84,-12.11 22.4,-14.48 8.52,-2.39 17.11,-2.72 25.78,-0.99zm-4.83 5.78c-4.01,-0.8 -8.25,-0.55 -12.74,0.7 -4.46,1.29 -8.49,4.25 -12.01,8.96 -3.56,4.71 -6.13,11.15 -7.76,19.33 -2.62,13.18 -1.85,25.14 2.28,35.9 4.12,10.76 11.14,17.11 21.02,19.07 7.35,1.46 13.94,0.03 19.77,-4.29 5.83,-4.32 10.04,-12.9 12.59,-25.75 3.2,-16.09 1.71,-29.53 -4.43,-40.34 -4.11,-7.39 -10.36,-11.93 -18.72,-13.59z"/>
  <path class="fil0" d="M66.5 405.29c571.67,-175.61 1188.18,-119.57 1692.6,0"/>
  <path class="fil3" d="M692.34 560.86l60.23 -94.18 11.43 0 0 94.18 11.72 0 0 22.28 -11.72 0 0 32.64 -25.74 0 0 -32.64 -45.92 0 0 -22.28zm8.78 0l37.14 0 0 -58.08 -37.14 58.08z"/>
  <path id="1" class="fil3" d="M866.73 615.79l-74.86 0 0 -2.39c23.05,-31.36 37.01,-52.46 41.88,-63.3 4.87,-10.84 7.3,-21.43 7.3,-31.76 0,-7.53 -2.05,-13.82 -6.11,-18.78 -4.07,-5 -9.03,-7.5 -14.92,-7.5 -9.64,0 -17.1,5.55 -22.41,16.61l-3.49 -1.39c3.39,-13.83 8.52,-24.04 15.4,-30.66 6.88,-6.62 14.82,-9.93 23.82,-9.93 6.43,0 12.32,1.73 17.64,5.18 5.31,3.42 9.48,8.16 12.46,14.16 3.01,5.99 4.51,11.61 4.51,16.87 0,9.52 -2.3,19.23 -6.91,29.08 -6.31,13.27 -20.11,31.8 -41.34,55.58l27.47 0c6.75,0 11.14,-0.33 13.16,-0.96 2.04,-0.66 3.72,-1.73 5.02,-3.27 1.31,-1.54 3.01,-4.74 5.15,-9.67l3.39 0 -7.17 42.13z"/>
  <polygon id="2" class="fil3" points="941.05,466.24 899.17,619.09 887.17,619.09 929.05,466.24 "/>
  <path id="3" class="fil3" d="M1006.64 466.68l0 119.55c0,9.04 0.35,14.81 1.02,17.28 0.7,2.5 2.15,4.56 4.35,6.14 2.18,1.58 5.7,2.39 10.54,2.39l2.91 0 0 3.75 -67.05 0 0 -3.75 3.4 0c5.44,0 9.31,-0.74 11.62,-2.17 2.34,-1.44 3.88,-3.42 4.71,-5.96 0.8,-2.54 1.21,-8.42 1.21,-17.68l0 -75.88c0,-6.8 -0.28,-11.07 -0.83,-12.79 -0.58,-1.69 -1.63,-3.12 -3.17,-4.3 -1.54,-1.21 -3.3,-1.8 -5.31,-1.8 -3.2,0 -7.08,1.14 -11.66,3.46l-1.7 -3.75 46.84 -24.48 3.11 0z"/>
 </g>
</svg>
