<?xml version="1.0" encoding="UTF-8"?>
<!DOCTYPE svg PUBLIC "-//W3C//DTD SVG 1.1//EN" "http://www.w3.org/Graphics/SVG/1.1/DTD/svg11.dtd">
<!-- Creator: CorelDRAW 2017 -->
<svg xmlns="http://www.w3.org/2000/svg" xml:space="preserve"  version="1.1" style="shape-rendering:geometricPrecision; text-rendering:geometricPrecision; image-rendering:optimizeQuality; fill-rule:evenodd; clip-rule:evenodd"
viewBox="0 0 1682.46 890.05"
 xmlns:xlink="http://www.w3.org/1999/xlink">
 <defs>
  <style type="text/css">
   <![CDATA[
    .str0 {stroke:black;stroke-width:19.86;stroke-miterlimit:22.9256}
    .fil0 {fill:none}
    .fil1 {fill:black}
    .fil2 {fill:#FEFEFE;fill-rule:nonzero}
    .fil3 {fill:black;fill-rule:nonzero}
   ]]>
  </style>
 </defs>
 <g id="Слой_x0020_1">
  <metadata id="CorelCorpID_0Corel-Layer"/>
  <path class="fil0 str0" d="M9.93 470.25l338.83 0c10.32,227.85 229.19,409.87 497.73,409.87 268.54,0 487.41,-182.02 497.73,-409.87l328.32 0 0 -460.32 -1662.6 0 0 460.32z"/>
  <rect class="fil1" x="54.07" y="47.54" width="1574.32" height="380.44" rx="39.72" ry="39.72"/>
  <path class="fil2" d="M224.5 307.64c-4.16,3.88 -9.64,6.95 -16.37,9.29 -6.73,2.3 -13.51,3.48 -20.41,3.48 -12.37,0 -21.37,-3 -27.02,-9 -5.6,-6 -8.41,-15.3 -8.41,-27.88l0 -82.99 52.01 0 0 78.16c0,6.77 0.67,11.45 2.02,13.98 1.35,2.53 3.57,3.81 6.69,3.81 7.66,0 11.49,-5.78 11.49,-17.38l0 -78.56 52.02 0 0 173.67 -52.02 0 0 -66.56z"/>
  <polygon id="1" class="fil2" points="420.67,200.53 507.28,200.53 507.28,235.23 472.69,235.23 472.69,268.38 505.01,268.38 505.01,301.31 472.69,301.31 472.69,339.51 510.82,339.51 510.82,374.2 420.67,374.2 "/>
  <path id="2" class="fil2" d="M753.99 200.53l-18.18 76.81 27.52 96.86 -47.98 0c-5.72,-17.35 -11.03,-38.46 -15.91,-63.41 -1.47,11.13 -3.36,22.8 -5.72,35.09l-4.63 28.32 -50.5 0 18.93 -96.86 -18.93 -76.81 50.25 0c1.05,4.79 2.82,12.81 5.34,24.01 2.07,8.49 3.83,16.35 5.26,23.53l11.11 -47.53 43.43 0z"/>
  <path id="3" class="fil2" d="M1012.33 302.34c0,17.45 -0.47,29.79 -1.43,37.03 -0.93,7.28 -3.88,13.91 -8.84,19.9 -4.97,6 -11.7,10.61 -20.16,13.83 -8.46,3.22 -18.3,4.83 -29.54,4.83 -10.69,0 -20.24,-1.54 -28.75,-4.58 -8.5,-3.04 -15.36,-7.57 -20.49,-13.65 -5.18,-6.07 -8.25,-12.7 -9.26,-19.83 -0.97,-7.17 -1.47,-19.69 -1.47,-37.54l0 -29.71c0,-17.46 0.46,-29.79 1.43,-37.03 0.92,-7.28 3.87,-13.91 8.83,-19.91 4.97,-6 11.7,-10.61 20.16,-13.83 8.46,-3.22 18.31,-4.83 29.54,-4.83 10.69,0 20.25,1.54 28.75,4.57 8.5,3.04 15.36,7.57 20.5,13.65 5.18,6.07 8.25,12.69 9.25,19.83 0.97,7.17 1.48,19.69 1.48,37.54l0 29.71zm-52.02 -57.05c0,-8.05 -0.5,-13.21 -1.51,-15.48 -1.01,-2.23 -3.07,-3.36 -6.19,-3.36 -2.65,0 -4.67,0.91 -6.1,2.74 -1.39,1.79 -2.11,7.17 -2.11,16.1l0 81.05c0,10.07 0.46,16.29 1.39,18.63 0.93,2.38 3.07,3.55 6.44,3.55 3.45,0 5.68,-1.35 6.65,-4.06 0.97,-2.7 1.43,-9.18 1.43,-19.39l0 -79.77z"/>
  <path id="4" class="fil2" d="M1155.08 200.53l51.68 0c16.33,0 28.7,1.1 37.12,3.33 8.42,2.19 15.2,6.69 20.37,13.43 5.18,6.77 7.74,17.64 7.74,32.64 0,10.14 -1.81,17.2 -5.47,21.19 -3.66,4.02 -10.9,7.06 -21.67,9.22 12.04,2.38 20.2,6.3 24.5,11.75 4.29,5.49 6.44,13.87 6.44,25.21l0 16.1c0,11.75 -1.56,20.42 -4.63,26.09 -3.07,5.63 -7.96,9.51 -14.69,11.6 -6.74,2.09 -20.54,3.11 -41.41,3.11l-59.98 0 0 -173.67zm52.02 29.64l0 38.64c2.19,-0.07 3.87,-0.11 5.09,-0.11 4.97,0 8.17,-1.1 9.51,-3.26 1.39,-2.2 2.07,-8.45 2.07,-18.74 0,-5.45 -0.55,-9.25 -1.69,-11.45 -1.13,-2.16 -2.61,-3.55 -4.42,-4.13 -1.81,-0.55 -5.34,-0.88 -10.56,-0.95zm0 65.65l0 48.74c7.15,-0.22 11.74,-1.21 13.72,-3 1.98,-1.8 2.95,-6.22 2.95,-13.25l0 -16.25c0,-7.46 -0.89,-11.96 -2.65,-13.57 -1.77,-1.57 -6.44,-2.45 -14.01,-2.67z"/>
  <path id="5" class="fil2" d="M1507.34 200.53l29.72 173.67 -53.07 0 -2.82 -31.18 -18.73 0 -2.82 31.18 -53.75 0 26.35 -173.67 75.12 0zm-27.57 111.75c-2.48,-19.69 -5.09,-44.06 -7.87,-73.15 -5.13,33.37 -8.38,57.74 -9.77,73.15l17.64 0z"/>
  <path class="fil2" d="M600.6 79.33l-6.5 53.95c-1.04,8.55 -1.9,14.38 -2.59,17.49 -0.69,3.11 -1.84,5.68 -3.45,7.69 -1.59,2.03 -3.84,3.51 -6.69,4.47 -2.86,0.96 -7.44,1.44 -13.72,1.44l-13.75 0 0 -11.97c3.53,0 5.79,-0.17 6.79,-0.54 1.02,-0.35 1.53,-1.15 1.53,-2.38 0,-0.62 -0.48,-3.21 -1.42,-7.81l-12.43 -62.35 20.58 0 7.44 50.42 3.66 -50.42 20.54 0z"/>
  <path id="1" class="fil2" d="M705.81 153.89l0 -58.91 -8.06 0 0 37.63c0,6.84 -0.79,11.75 -2.36,14.69 -1.57,2.94 -4.05,4.77 -7.44,5.51 -3.38,0.73 -8.94,1.09 -16.65,1.09l-3.7 0 0 -12.2c2.9,-0.04 4.87,-0.4 5.96,-1.09 1.1,-0.69 1.63,-3.15 1.63,-7.34l0 -53.93 53.16 0 0 74.56 -22.55 0z"/>
  <polygon id="2" class="fil2" points="858.73,153.89 838.94,153.89 838.94,113.6 823.16,153.89 802.46,153.89 802.46,79.33 822.26,79.33 822.26,119.28 837.77,79.33 858.73,79.33 "/>
  <polygon id="3" class="fil2" points="933.41,153.89 933.41,79.33 955.97,79.33 955.97,138.24 964.02,138.24 964.02,79.33 986.57,79.33 986.57,138.24 991.4,138.24 991.4,168.28 976.22,168.28 976.22,153.89 "/>
  <path id="4" class="fil2" d="M1083.94 108.21l-21.29 0 0 -5c0,-5.77 0.67,-10.22 1.99,-13.37 1.32,-3.13 4.01,-5.89 8.02,-8.29 4.01,-2.4 9.21,-3.61 15.63,-3.61 7.67,0 13.47,1.36 17.36,4.09 3.89,2.7 6.23,6.04 7.02,9.99 0.79,3.95 1.19,12.1 1.19,24.43l0 37.44 -22.09 0 0 -6.65c-1.38,2.69 -3.18,4.68 -5.37,6.02 -2.18,1.34 -4.79,2.01 -7.84,2.01 -3.97,0 -7.61,-1.11 -10.93,-3.34 -3.32,-2.24 -4.97,-7.12 -4.97,-14.65l0 -6.14c0,-5.58 0.88,-9.38 2.65,-11.41 1.77,-2.03 6.14,-4.39 13.12,-7.08 7.46,-2.93 11.45,-4.89 11.99,-5.91 0.52,-1.02 0.79,-3.07 0.79,-6.19 0,-3.89 -0.29,-6.43 -0.89,-7.61 -0.57,-1.17 -1.55,-1.76 -2.91,-1.76 -1.56,0 -2.51,0.5 -2.88,1.49 -0.38,0.98 -0.58,3.57 -0.58,7.73l0 7.81zm7.25 10.22c-3.67,2.67 -5.8,4.89 -6.37,6.69 -0.6,1.8 -0.89,4.37 -0.89,7.75 0,3.88 0.25,6.35 0.77,7.48 0.5,1.13 1.51,1.69 3.03,1.69 1.44,0 2.36,-0.44 2.8,-1.32 0.44,-0.88 0.66,-3.18 0.66,-6.94l0 -15.34z"/>
  <path class="fil3" d="M846.96 560.37l-60.53 0c0,-11.37 -0.1,-18.54 -0.36,-21.46 -0.25,-2.97 -1.49,-5.48 -3.69,-7.48 -2.15,-2 -5.12,-3.02 -8.86,-3.02 -3.13,0 -5.68,0.97 -7.73,2.87 -2,1.89 -3.17,4.3 -3.48,7.32 -0.31,3.02 -0.46,9.06 -0.46,18.12l0 38.66c3.12,-6.45 7.68,-11.32 13.67,-14.54 6.05,-3.23 13.47,-4.81 22.28,-4.81 11.11,0 20.94,3.02 29.45,9.01 8.55,5.99 13.93,13.16 16.23,21.56 2.3,8.4 3.48,19.77 3.48,34.05l0 19.3c0,17 -0.67,29.65 -1.95,37.94 -1.33,8.3 -4.76,15.98 -10.45,22.99 -5.63,7.07 -13.42,12.54 -23.25,16.44 -9.88,3.89 -21.35,5.83 -34.46,5.83 -16.34,0 -29.7,-2.25 -40.09,-6.76 -10.39,-4.51 -18.43,-10.96 -24.12,-19.41 -5.63,-8.45 -8.96,-17.31 -9.88,-26.63 -0.97,-9.27 -1.43,-27.34 -1.43,-54.12l0 -33.59c0,-28.88 0.41,-48.24 1.28,-57.96 0.87,-9.73 4.3,-19 10.45,-27.65 6.09,-8.71 14.44,-15.26 24.99,-19.61 10.55,-4.35 22.74,-6.5 36.56,-6.5 17,0 30.98,2.76 41.89,8.25 10.91,5.53 18.69,13.31 23.4,23.3 4.71,10.04 7.07,22.68 7.07,37.89zm-60.53 75.58c0,-8.55 -0.97,-14.44 -2.87,-17.61 -1.95,-3.23 -5.07,-4.81 -9.42,-4.81 -4.25,0 -7.37,1.54 -9.32,4.56 -2,3.07 -2.97,9.01 -2.97,17.87l0 43.83c0,10.7 0.92,17.66 2.82,20.99 1.84,3.28 4.97,4.92 9.32,4.92 2.61,0 5.37,-1.28 8.19,-3.84 2.82,-2.51 4.25,-9.37 4.25,-20.53l0 -45.37z"/>
  <path id="1" class="fil3" d="M1000.24 601.08c9.17,3.13 15.98,8.19 20.48,15.21 4.45,7.07 6.7,23.61 6.7,49.62 0,19.3 -2.2,34.31 -6.61,44.96 -4.4,10.65 -11.98,18.74 -22.78,24.27 -10.8,5.58 -24.63,8.35 -41.53,8.35 -19.15,0 -34.26,-3.23 -45.16,-9.68 -10.96,-6.45 -18.18,-14.39 -21.61,-23.76 -3.43,-9.32 -5.17,-25.6 -5.17,-48.75l0 -19.2 60.52 0 0 39.53c0,10.55 0.62,17.25 1.89,20.07 1.23,2.87 4.05,4.3 8.35,4.3 4.71,0 7.83,-1.79 9.32,-5.43 1.49,-3.59 2.25,-13.01 2.25,-28.21l0 -16.85c0,-9.32 -1.02,-16.13 -3.12,-20.43 -2.1,-4.3 -5.22,-7.12 -9.32,-8.45 -4.1,-1.38 -12.04,-2.15 -23.81,-2.36l0 -35.33c14.39,0 23.25,-0.56 26.68,-1.64 3.38,-1.12 5.84,-3.48 7.32,-7.22 1.49,-3.69 2.25,-9.47 2.25,-17.36l0 -13.47c0,-8.5 -0.87,-14.08 -2.61,-16.79 -1.8,-2.71 -4.51,-4.04 -8.19,-4.04 -4.25,0 -7.12,1.43 -8.66,4.25 -1.58,2.87 -2.36,8.91 -2.36,18.23l0 19.92 -60.52 0 0 -20.69c0,-23.2 5.33,-38.82 15.92,-46.96 10.6,-8.14 27.45,-12.24 50.54,-12.24 28.88,0 48.49,5.63 58.78,16.95 10.29,11.32 15.46,27.04 15.46,47.11 0,13.62 -1.84,23.45 -5.53,29.49 -3.74,6.05 -10.24,11.57 -19.51,16.59z"/>
 </g>
</svg>
