<?xml version="1.0" encoding="UTF-8"?>
<!DOCTYPE svg PUBLIC "-//W3C//DTD SVG 1.1//EN" "http://www.w3.org/Graphics/SVG/1.1/DTD/svg11.dtd">
<!-- Creator: CorelDRAW 2017 -->
<svg xmlns="http://www.w3.org/2000/svg" xml:space="preserve" version="1.1" style="shape-rendering:geometricPrecision; text-rendering:geometricPrecision; image-rendering:optimizeQuality; fill-rule:evenodd; clip-rule:evenodd"
viewBox="0 0 1755.69 883.04"
 xmlns:xlink="http://www.w3.org/1999/xlink">
 <defs>
  <style type="text/css">
   <![CDATA[
    .fil2 {fill:none}
    .fil0 {fill:black}
    .fil1 {fill:#FEFEFE;fill-rule:nonzero}
    .fil3 {fill:black;fill-rule:nonzero}
   ]]>
  </style>
 </defs>
 <g id="Слой_x0020_1">
  <metadata id="CorelCorpID_0Corel-Layer"/>
  <path class="fil0" d="M404.99 33.94c319.64,-49.45 624.23,-40.85 958.92,0 0,55.18 0,44.19 0,99.37 142.09,12.47 241.94,33.86 391.3,66.18 0,83.13 0,166.27 0,249.41 0,27.95 4.65,63.84 -15.05,68.8 -19.7,4.95 -61.38,-3.92 -90.26,-10.73 -92.01,-21.73 -165.93,-35.44 -254.66,-49.76 -44.83,-10.86 -62.91,19.35 -72.22,43.65 -25.63,102.91 -61.28,185.08 -129.56,251.64 -82.74,80.66 -196.94,130.55 -322.97,130.55 -126.04,0 -240.23,-49.89 -322.97,-130.55 -66.91,-65.22 -113.23,-150.5 -128.66,-245.77 -7.14,-42.49 -30.42,-59.17 -69.81,-50.06 -72.28,12.21 -145.4,26.9 -219.71,44.06 -42.55,9.83 -79.66,29.04 -107.6,12.14 -27.94,-16.91 -20.96,-48.91 -20.96,-83.31 0,-76.69 0,-153.37 0,-230.05 113.24,-27.95 223.68,-48.84 404.21,-66.18 0,-55.18 0,-44.19 0,-99.37zm861.81 402.73c-267.66,-34.09 -525.73,-33.69 -792.61,1.22 0.37,105.85 44.52,201.65 115.71,271.04 71.72,69.92 170.92,113.16 280.59,113.16 109.67,0 208.87,-43.25 280.59,-113.16 71.46,-69.66 115.68,-165.92 115.72,-272.26z"/>
  <path class="fil1" d="M91.96 276.71l134.86 -32.88 8.82 36.14 -3.93 0.96c-3.97,-8.46 -7.82,-14.19 -11.56,-17.17 -3.7,-2.96 -7.74,-4.49 -12.08,-4.54 -4.33,-0.04 -12.51,1.39 -24.59,4.33l-31.21 7.61 25.21 103.4c1.86,7.6 4.3,12.1 7.32,13.61 3.01,1.5 7.85,1.41 14.54,-0.22l3.92 -0.95 0.84 3.41 -79.67 19.43 -0.83 -3.41 4.31 -1.05c6.61,-1.62 10.85,-3.82 12.73,-6.65 1.88,-2.84 1.91,-7.88 0.12,-15.21l-22.37 -91.75c-1.49,-6.13 -3.55,-10.23 -6.18,-12.29 -2.63,-2.09 -7.48,-2.25 -14.56,-0.53l-4.85 1.18 -0.83 -3.41zm279.42 40.38l-54.3 9.42 -4.46 14.34c-1.39,4.79 -1.8,8.63 -1.3,11.51 0.66,3.84 2.91,6.35 6.7,7.58 2.25,0.69 7.47,0.63 15.64,-0.23l0.6 3.46 -51.56 8.95 -0.6 -3.47c5.41,-1.7 9.66,-4.54 12.64,-8.45 3.01,-3.95 6.28,-11.58 9.71,-22.87l36.77 -117.16 2.19 -0.38 75.11 100.82c7.18,9.66 12.71,15.59 16.62,17.74 2.98,1.65 6.82,2.21 11.64,1.72l0.6 3.46 -75.02 13.01 -0.6 -3.46 3.08 -0.54c6.01,-1.04 10.14,-2.52 12.3,-4.44 1.49,-1.34 2.04,-3.05 1.69,-5.05 -0.21,-1.22 -0.62,-2.44 -1.31,-3.65 -0.26,-0.55 -1.83,-2.9 -4.75,-6.97l-11.39 -15.37zm-4.94 -6.69l-31.12 -41.97 -15.72 50.09 46.84 -8.13zm115.85 -108.28l138.23 -12.72 3.4 37.05 -4.02 0.37c-2.69,-8.95 -5.66,-15.18 -8.91,-18.69 -3.23,-3.47 -7,-5.58 -11.28,-6.27 -4.27,-0.68 -12.58,-0.47 -24.96,0.67l-31.99 2.94 9.74 105.98c0.72,7.79 2.48,12.6 5.24,14.53 2.76,1.93 7.56,2.55 14.42,1.92l4.02 -0.37 0.32 3.5 -81.66 7.51 -0.32 -3.5 4.42 -0.41c6.79,-0.62 11.3,-2.18 13.57,-4.7 2.27,-2.53 3.04,-7.51 2.35,-15.03l-8.65 -94.04c-0.58,-6.28 -2.01,-10.65 -4.3,-13.06 -2.3,-2.45 -7.07,-3.33 -14.33,-2.66l-4.97 0.46 -0.32 -3.5zm269.99 79.84l-55.07 1.95 -6.37 13.6c-2.02,4.55 -2.96,8.31 -2.85,11.23 0.14,3.89 2.02,6.69 5.61,8.42 2.14,0.99 7.31,1.64 15.52,1.9l0.13 3.51 -52.3 1.85 -0.13 -3.51c5.6,-0.95 10.19,-3.19 13.68,-6.65 3.52,-3.5 7.78,-10.61 12.72,-21.34l52.35 -111.07 2.22 -0.08 60.7 110.1c5.8,10.55 10.48,17.17 14.06,19.83 2.73,2.04 6.46,3.12 11.3,3.29l0.12 3.51 -76.09 2.69 -0.13 -3.51 3.13 -0.11c6.09,-0.22 10.38,-1.13 12.79,-2.73 1.66,-1.13 2.43,-2.74 2.36,-4.77 -0.05,-1.24 -0.28,-2.51 -0.81,-3.8 -0.18,-0.58 -1.42,-3.12 -3.76,-7.55l-9.19 -16.77zm-3.99 -7.3l-25.13 -45.81 -22.38 47.49 47.51 -1.68zm184.79 -15.12l-1.24 38.01c-0.24,7.47 0.12,12.17 1.13,14.13 0.96,1.96 2.78,3.57 5.43,4.83 2.62,1.23 7.51,1.97 14.64,2.2l-0.12 3.51 -80.05 -2.61 0.11 -3.51c7.28,0.24 12.25,-0.18 14.87,-1.3 2.65,-1.09 4.52,-2.58 5.61,-4.43 1.13,-1.86 1.8,-6.53 2.04,-14l2.91 -89.02c0.24,-7.47 -0.11,-12.16 -1.13,-14.13 -0.97,-1.96 -2.74,-3.57 -5.36,-4.82 -2.61,-1.23 -7.5,-1.97 -14.7,-2.21l0.11 -3.51 68.65 2.24c22.61,0.74 38.73,4.78 48.32,12.09 9.63,7.34 14.25,16.24 13.91,26.75 -0.29,8.91 -3.71,16.42 -10.29,22.55 -6.54,6.12 -15.43,10.15 -26.67,12.09 -7.54,1.37 -20.27,1.75 -38.17,1.16zm2.19 -67.13l-1.93 59.28c2.57,0.22 4.51,0.36 5.81,0.4 9.46,0.31 16.87,-1.9 22.14,-6.62 5.26,-4.72 8.09,-12.21 8.42,-22.47 0.33,-10.19 -2,-17.71 -6.96,-22.59 -4.95,-4.89 -12.55,-7.51 -22.69,-7.84l-4.79 -0.16zm247.41 30.35c0.61,-7.38 0.05,-12.48 -1.64,-15.27 -1.73,-2.75 -6.5,-4.51 -14.35,-5.25l-5.21 -0.48 0.33 -3.5 84.02 7.84 -0.33 3.5 -5.44 -0.51c-7.26,-0.68 -12.23,0.11 -14.78,2.32 -2.59,2.21 -4.27,7.45 -5.05,15.75l-8.39 89.92c-0.78,8.4 -0.1,13.89 2.08,16.52 2.19,2.59 6.89,4.24 14.07,4.91l5.44 0.51 -0.33 3.5 -84.02 -7.84 0.33 -3.5 5.21 0.49c7.29,0.68 12.18,-0.14 14.7,-2.43 2.49,-2.33 4.13,-7.54 4.88,-15.66l6.94 -74.35 -62.44 70.55c-0.61,6.55 -0.14,11.3 1.45,14.35 1.59,3.01 6.46,4.92 14.59,5.68l5.44 0.51 -0.33 3.5 -84.01 -7.84 0.33 -3.5 5.2 0.49c7.34,0.68 12.31,-0.13 14.87,-2.42 2.56,-2.32 4.2,-7.53 4.96,-15.65l8.39 -89.92c0.77,-8.3 0.33,-13.74 -1.3,-16.35 -1.63,-2.61 -6.56,-4.31 -14.84,-5.09l-5.21 -0.48 0.33 -3.5 84.02 7.84 -0.33 3.5 -5.44 -0.51c-7.06,-0.66 -11.92,0.24 -14.53,2.69 -2.66,2.45 -4.33,7.59 -5.06,15.41l-6.98 74.86 62.45 -70.59zm167.56 68.9l-6.25 42.11c-1.04,6.98 -1.25,11.4 -0.64,13.27 0.64,1.87 2.1,3.65 4.46,5.33 2.35,1.7 5.7,2.86 10.01,3.5l5.13 0.76 -0.52 3.48 -81.11 -12.03 0.52 -3.47 5.14 0.76c4.5,0.67 8.25,0.5 11.2,-0.5 2.15,-0.66 3.9,-2.03 5.3,-4.16 1.06,-1.48 2.12,-5.64 3.13,-12.49l13.25 -89.33c1.04,-6.98 1.25,-11.41 0.69,-13.27 -0.6,-1.87 -2.06,-3.65 -4.42,-5.32 -2.35,-1.71 -5.7,-2.86 -10.09,-3.52l-5.14 -0.76 0.52 -3.48 81.11 12.03 -0.52 3.47 -5.13 -0.76c-4.46,-0.66 -8.17,-0.48 -11.12,0.51 -2.1,0.67 -3.91,2.03 -5.38,4.14 -1.06,1.48 -2.12,5.64 -3.14,12.49l-5.7 38.43 55.25 8.2 5.7 -38.43c1.04,-6.99 1.25,-11.41 0.69,-13.27 -0.61,-1.87 -2.06,-3.65 -4.49,-5.33 -2.39,-1.71 -5.75,-2.87 -10.09,-3.52l-5.05 -0.75 0.52 -3.47 81.11 12.03 -0.52 3.48 -5.05 -0.75c-4.55,-0.67 -8.3,-0.5 -11.17,0.5 -2.14,0.66 -3.95,2.02 -5.42,4.14 -1.06,1.48 -2.12,5.64 -3.13,12.49l-13.25 89.33c-1.04,6.98 -1.25,11.4 -0.69,13.27 0.61,1.86 2.06,3.65 4.5,5.33 2.39,1.71 5.74,2.87 10.09,3.51l5.05 0.75 -0.51 3.48 -81.11 -12.03 0.52 -3.48 5.05 0.75c4.55,0.67 8.3,0.5 11.17,-0.5 2.14,-0.66 3.95,-2.02 5.42,-4.14 1.06,-1.47 2.12,-5.64 3.14,-12.49l6.24 -42.11 -55.25 -8.2zm252.94 71.24l-54.04 -10.74 -9.33 11.77c-3.01,3.97 -4.78,7.41 -5.35,10.28 -0.76,3.82 0.43,6.97 3.53,9.48 1.85,1.46 6.74,3.27 14.68,5.41l-0.68 3.45 -51.34 -10.2 0.69 -3.45c5.66,0.35 10.65,-0.76 14.84,-3.34 4.23,-2.6 10.02,-8.54 17.28,-17.84l76.45 -96.09 2.17 0.43 33.82 121.1c3.22,11.6 6.25,19.12 9.13,22.53 2.19,2.61 5.57,4.52 10.24,5.79l-0.69 3.45 -74.68 -14.84 0.68 -3.45 3.08 0.61c5.98,1.19 10.36,1.29 13.07,0.28 1.88,-0.72 3,-2.11 3.4,-4.1 0.24,-1.21 0.3,-2.51 0.09,-3.88 -0.04,-0.61 -0.67,-3.36 -1.93,-8.21l-5.1 -18.43zm-2.2 -8.02l-13.95 -50.35 -32.68 41.09 46.63 9.27z"/>
  <path class="fil1" d="M535.26 61.41l24.54 -2.41 0.21 2.11 -1.21 0.12c-1.72,0.17 -2.97,0.67 -3.76,1.5 -0.79,0.82 -1.13,1.8 -1.02,2.92 0.15,1.48 1,3.49 2.5,6l15.41 25.32 8.83 -30.23c0.49,-1.63 0.67,-3.22 0.52,-4.74 -0.07,-0.69 -0.26,-1.2 -0.56,-1.51 -0.33,-0.4 -0.86,-0.68 -1.52,-0.87 -0.67,-0.19 -1.84,-0.2 -3.47,-0.04l-0.21 -2.11 17.02 -1.67 0.21 2.11c-1.39,0.29 -2.45,0.69 -3.17,1.24 -0.72,0.52 -1.47,1.47 -2.27,2.81 -0.3,0.56 -0.8,2.09 -1.52,4.58l-16.17 54.51c-1.57,5.28 -3.9,9.37 -7,12.29 -3.09,2.93 -6.18,4.53 -9.28,4.83 -2.25,0.22 -4.16,-0.24 -5.74,-1.41 -1.59,-1.14 -2.46,-2.56 -2.62,-4.23 -0.16,-1.6 0.24,-2.95 1.2,-4 0.96,-1.08 2.36,-1.71 4.19,-1.89 1.27,-0.12 3.03,0.1 5.27,0.69 1.59,0.37 2.58,0.56 2.95,0.52 1.15,-0.11 2.34,-0.82 3.6,-2.13 1.24,-1.28 2.38,-3.68 3.44,-7.18l2.78 -9.54 -22.74 -37.63c-0.7,-1.13 -1.75,-2.53 -3.19,-4.18 -1.08,-1.24 -1.95,-2.08 -2.6,-2.47 -0.94,-0.54 -2.4,-0.93 -4.4,-1.21l-0.2 -2.1zm161.25 -12.79l46.91 -2.15 0.1 2.11c-2.6,0.12 -4.34,0.46 -5.17,1.02 -0.84,0.55 -1.48,1.23 -1.95,2.03 -0.46,0.79 -0.6,3.31 -0.4,7.55l1.28 27.98c0.19,4.06 0.51,6.48 0.96,7.24 0.47,0.76 1.16,1.42 2.09,1.98 0.93,0.54 2.73,0.76 5.41,0.64l0.09 2.11 -27.28 1.25 -0.1 -2.11c2.94,-0.13 4.97,-0.39 6.09,-0.73 1.12,-0.37 1.97,-1.15 2.56,-2.34 0.6,-1.21 0.81,-3.75 0.64,-7.61l-1.68 -36.56 -17.52 0.8 1.02 22.2c0.39,8.39 0.28,14.3 -0.3,17.73 -0.59,3.42 -1.96,6 -4.08,7.73 -2.12,1.73 -4.61,2.67 -7.45,2.8 -4.9,0.22 -7.44,-1.7 -7.63,-5.76 -0.07,-1.39 0.27,-2.52 1.02,-3.44 0.74,-0.92 1.76,-1.41 3.01,-1.47 1.35,-0.07 2.61,0.45 3.82,1.51 1.57,1.4 2.73,2.08 3.49,2.04 1.75,-0.08 2.93,-1.59 3.58,-4.53 0.65,-2.96 0.81,-8.05 0.48,-15.32l-0.53 -11.66c-0.28,-5.98 -0.88,-9.61 -1.78,-10.88 -0.9,-1.26 -3.09,-1.94 -6.59,-2.06l-0.09 -2.11zm168.57 32.82l22.78 -26.55c-0.07,-2.94 -0.62,-4.96 -1.67,-6.12 -1.04,-1.14 -2.82,-1.73 -5.37,-1.78l0 -2.12 24.6 0.06 -0 2.12c-2.57,-0 -4.29,0.25 -5.18,0.77 -0.88,0.51 -1.57,1.16 -2.08,1.94 -0.49,0.77 -0.76,3.28 -0.76,7.52l-0.07 28.01c-0.01,4.06 0.2,6.49 0.61,7.28 0.43,0.78 1.09,1.47 1.99,2.08 0.9,0.59 2.69,0.89 5.37,0.9l-0 2.12 -25.54 -0.06 0 -2.12c3.18,0.01 5.32,-0.57 6.4,-1.73 1.08,-1.17 1.62,-4 1.63,-8.49l0.06 -24.95 -22.78 26.55c0.07,3.23 0.52,5.47 1.36,6.71 0.84,1.21 2.66,1.85 5.45,1.9l-0 2.12 -24.37 -0.06 0 -2.12c3.41,0.01 5.62,-0.62 6.58,-1.85 0.96,-1.25 1.44,-4.04 1.45,-8.37l0.07 -28.03c0.01,-4.12 -0.2,-6.55 -0.61,-7.3 -0.43,-0.77 -1.08,-1.44 -1.96,-2.03 -0.88,-0.61 -2.69,-0.91 -5.41,-0.91l0 -2.12 25.54 0.06 -0 2.12c-2.57,-0.01 -4.3,0.24 -5.18,0.77 -0.88,0.51 -1.57,1.15 -2.08,1.93 -0.49,0.77 -0.75,3.28 -0.76,7.52l-0.06 24.24zm199.81 20.42l-0.89 16.73 -1.99 -0.11c0.12,-4.49 -1.16,-8.11 -3.84,-10.87 -2.68,-2.78 -7.72,-4.36 -15.15,-4.75l-35.95 -1.92 0.11 -2.11c3.41,0.18 5.64,-0.33 6.66,-1.51 1.02,-1.2 1.65,-3.96 1.88,-8.29l1.49 -27.97c0.22,-4.11 0.14,-6.57 -0.23,-7.34 -0.39,-0.77 -1,-1.49 -1.85,-2.12 -0.85,-0.65 -2.64,-1.04 -5.36,-1.19l0.11 -2.12 25.51 1.37 -0.11 2.11c-2.57,-0.14 -4.31,0.03 -5.22,0.51 -0.91,0.46 -1.63,1.07 -2.18,1.83 -0.53,0.74 -0.91,3.23 -1.14,7.46l-1.59 29.72c-0.18,3.33 0.01,5.32 0.56,5.96 0.58,0.64 2.46,1.06 5.65,1.23l9.29 0.5c3.54,0.19 5.6,-0.03 6.12,-0.65 0.52,-0.62 0.89,-2.72 1.08,-6.29l1.56 -29.24c0.2,-3.66 0.12,-6.03 -0.19,-7.1 -0.34,-1.08 -1.04,-1.93 -2.13,-2.49 -1.09,-0.59 -2.8,-0.93 -5.13,-1.06l0.11 -2.11 25.5 1.36 -0.11 2.11c-2.56,-0.13 -4.3,0.03 -5.21,0.51 -0.91,0.46 -1.63,1.07 -2.18,1.83 -0.53,0.74 -0.92,3.23 -1.15,7.47l-1.45 27.07c-0.26,4.94 0.02,8.02 0.85,9.2 0.82,1.2 2.99,1.97 6.55,2.31zm132.84 4.58c-5.75,3.68 -9.35,5.79 -10.79,6.31 -2.14,0.78 -4.37,1.07 -6.7,0.86 -3.63,-0.33 -6.51,-1.84 -8.63,-4.54 -2.12,-2.69 -3,-6.06 -2.64,-10.1 0.23,-2.56 1,-4.73 2.32,-6.49 1.8,-2.46 4.73,-4.66 8.81,-6.61 4.1,-1.94 10.77,-4.16 20.08,-6.63l0.18 -2.05c0.47,-5.22 -0.03,-8.87 -1.51,-10.97 -1.49,-2.08 -3.8,-3.28 -6.96,-3.56 -2.39,-0.22 -4.36,0.26 -5.88,1.44 -1.56,1.16 -2.42,2.58 -2.57,4.26l-0.18 3.33c-0.16,1.76 -0.73,3.08 -1.71,3.96 -0.99,0.87 -2.22,1.24 -3.66,1.11 -1.43,-0.13 -2.56,-0.72 -3.36,-1.8 -0.81,-1.08 -1.14,-2.48 -0.98,-4.2 0.29,-3.28 2.25,-6.16 5.85,-8.61 3.61,-2.45 8.46,-3.39 14.54,-2.85 4.67,0.42 8.41,1.54 11.26,3.38 2.14,1.37 3.63,3.38 4.48,6 0.54,1.68 0.59,5.07 0.13,10.14l-1.6 17.78c-0.45,4.98 -0.63,8.06 -0.53,9.19 0.09,1.15 0.34,1.92 0.74,2.35 0.41,0.41 0.9,0.65 1.47,0.7 0.63,0.06 1.17,-0.03 1.66,-0.25 0.85,-0.43 2.52,-1.68 5.03,-3.76l-0.29 3.21c-4.81,5.38 -9.18,7.88 -13.08,7.53 -1.88,-0.17 -3.32,-0.95 -4.32,-2.34 -1,-1.41 -1.36,-3.66 -1.12,-6.78zm0.33 -3.73l1.8 -19.95c-6.01,1.77 -9.89,3.05 -11.67,3.86 -3.18,1.41 -5.51,2.95 -6.98,4.67 -1.47,1.72 -2.3,3.66 -2.49,5.83 -0.25,2.75 0.37,5.09 1.87,7.06 1.47,1.97 3.31,3.04 5.46,3.23 2.91,0.26 6.92,-1.31 12.02,-4.68z"/>
  <path class="fil2" d="M46.17 386.82c571.37,-175.52 1187.55,-119.5 1691.69,0"/>
  <path class="fil3" d="M729.96 471.59l0 170.34c0,12.88 0.58,21.11 1.68,24.61 1.15,3.56 3.51,6.5 7.12,8.75 3.56,2.25 9.32,3.4 17.23,3.4l4.77 0 0 5.34 -109.68 0 0 -5.34 5.55 0c8.91,0 15.24,-1.05 19.02,-3.09 3.82,-2.04 6.34,-4.87 7.7,-8.49 1.31,-3.61 1.99,-11.99 1.99,-25.19l0 -108.11c0,-9.69 -0.47,-15.76 -1.36,-18.23 -0.94,-2.41 -2.67,-4.45 -5.19,-6.13 -2.51,-1.73 -5.39,-2.57 -8.69,-2.57 -5.24,0 -11.58,1.63 -19.07,4.92l-2.78 -5.34 76.63 -34.89 5.08 0z"/>
  <path id="1" class="fil3" d="M838.4 475.67l97.42 0 -15.4 39.6 -82.07 0 -7.7 20.74c35.25,1.31 62.38,10.16 81.4,26.5 15.66,13.41 23.46,30.17 23.46,50.18 0,12.84 -3.62,25.35 -10.79,37.61 -7.23,12.31 -17.44,21.68 -30.69,28.28 -13.25,6.55 -27.76,9.85 -43.58,9.85 -17.02,0 -30.12,-3.14 -39.29,-9.48 -6.33,-4.51 -9.53,-9.59 -9.53,-15.3 0,-4.4 1.68,-8.27 5.03,-11.68 3.3,-3.35 7.18,-5.03 11.63,-5.03 3.98,0 8.01,0.84 12.15,2.46 4.09,1.63 11.1,5.92 21.11,12.88 6.23,4.29 11.63,7.28 16.13,8.91 3.19,1.2 6.76,1.83 10.79,1.83 8.43,0 15.56,-3.09 21.48,-9.22 5.92,-6.18 8.85,-13.57 8.85,-22.16 0,-18.12 -9.01,-32.84 -27.08,-44.21 -18.02,-11.32 -40.8,-16.97 -68.25,-16.97 -2.78,0 -6.92,0.05 -12.47,0.16l37.4 -104.96z"/>
  <path id="2" class="fil3" d="M1056.21 471.59l0 170.34c0,12.88 0.58,21.11 1.68,24.61 1.15,3.56 3.51,6.5 7.12,8.75 3.56,2.25 9.32,3.4 17.23,3.4l4.77 0 0 5.34 -109.68 0 0 -5.34 5.55 0c8.91,0 15.24,-1.05 19.02,-3.09 3.82,-2.04 6.34,-4.87 7.7,-8.49 1.31,-3.61 1.99,-11.99 1.99,-25.19l0 -108.11c0,-9.69 -0.47,-15.76 -1.36,-18.23 -0.94,-2.41 -2.67,-4.45 -5.19,-6.13 -2.51,-1.73 -5.39,-2.57 -8.69,-2.57 -5.24,0 -11.58,1.63 -19.07,4.92l-2.78 -5.34 76.63 -34.89 5.08 0z"/>
 </g>
</svg>
