<?xml version="1.0" encoding="UTF-8"?>
<!DOCTYPE svg PUBLIC "-//W3C//DTD SVG 1.1//EN" "http://www.w3.org/Graphics/SVG/1.1/DTD/svg11.dtd">
<!-- Creator: CorelDRAW 2017 -->
<svg xmlns="http://www.w3.org/2000/svg" xml:space="preserve" version="1.1" style="shape-rendering:geometricPrecision; text-rendering:geometricPrecision; image-rendering:optimizeQuality; fill-rule:evenodd; clip-rule:evenodd"
viewBox="0 0 728.61 655.2"
 xmlns:xlink="http://www.w3.org/1999/xlink">
 <defs>
  <style type="text/css">
   <![CDATA[
    .str2 {stroke:#FEFEFE;stroke-width:24.63;stroke-miterlimit:22.9256}
    .str0 {stroke:#FEFEFE;stroke-width:12.32;stroke-miterlimit:22.9256}
    .str3 {stroke:#FEFEFE;stroke-width:1.88;stroke-miterlimit:22.9256}
    .str1 {stroke:#FEFEFE;stroke-width:1.88;stroke-miterlimit:22.9256}
    .fil3 {fill:none}
    .fil4 {fill:#FEFEFE}
    .fil0 {fill:black}
    .fil2 {fill:#FEFEFE;fill-rule:nonzero}
    .fil1 {fill:#FEFEFE;fill-rule:nonzero}
   ]]>
  </style>
 </defs>
 <g id="Слой_x0020_1">
  <metadata id="CorelCorpID_0Corel-Layer"/>
  <path class="fil0 str0" d="M364.3 6.16c23.77,0 53.32,13.71 75.79,18.12 28.92,5.68 50.26,3.46 76.23,15.65 30.19,70.24 98.81,89.16 177.64,110.76 18.34,43.06 28.49,90.45 28.49,140.22 0,197.8 -160.35,358.14 -358.15,358.14 -197.8,0 -358.14,-160.35 -358.14,-358.14 0,-48.72 9.73,-95.16 27.34,-137.5 86.97,-20.53 130.9,-52.5 175.73,-112.02 24.87,-11.97 53.24,-12.92 80.9,-18.9 24.51,-5.3 48.07,-16.32 74.17,-16.32z"/>
  <path class="fil1" d="M683.47 185.24c5.78,17.17 10.07,34.81 12.92,52.7 2.95,18.43 4.38,36.94 4.38,55.29 0,93.28 -37.81,177.73 -98.94,238.85 -61.13,61.13 -145.58,98.94 -238.85,98.94 -93.27,0 -177.72,-37.81 -238.85,-98.94 -61.13,-61.13 -98.94,-145.58 -98.94,-238.85 0,-18.23 1.51,-36.53 4.49,-54.71 2.96,-18.05 7.4,-35.87 13.27,-53.27l2.74 -8.12 214.39 -0.19 -14.59 19.17c-9.96,13.08 -17.63,27.6 -22.8,42.94 -5.17,15.31 -7.85,31.53 -7.85,48.04 0,41.48 16.81,79.03 43.99,106.21 27.18,27.18 64.73,43.99 106.21,43.99 41.48,0 79.03,-16.81 106.21,-43.99 27.18,-27.18 43.99,-64.73 43.99,-106.21 0,-16.48 -2.68,-32.67 -7.82,-47.95 -5.17,-15.37 -12.81,-29.88 -22.71,-42.91l-14.51 -19.11 210.52 0 2.74 8.13zm-10.62 56.44c-2.2,-13.77 -5.32,-27.39 -9.38,-40.74l-147.16 0c5.57,9.77 10.17,20.03 13.73,30.63 6,17.84 9.13,36.58 9.13,55.52 0,48.08 -19.49,91.61 -51,123.12 -31.51,31.51 -75.04,51 -123.12,51 -48.08,0 -91.61,-19.49 -123.12,-51 -31.51,-31.51 -51,-75.04 -51,-123.12 0,-18.97 3.13,-37.75 9.16,-55.61 3.58,-10.63 8.19,-20.91 13.76,-30.68l-150.9 0.13c-4.18,13.58 -7.42,27.42 -9.72,41.42 -2.74,16.67 -4.12,33.68 -4.12,50.88 0,86.68 35.13,165.15 91.93,221.95 56.8,56.8 135.27,91.93 221.94,91.93 86.68,0 165.15,-35.13 221.95,-91.93 56.8,-56.8 91.93,-135.27 91.93,-221.95 0,-17.42 -1.32,-34.69 -4.01,-51.55z"/>
  <path class="fil1" d="M684.12 185.02c2.87,8.54 5.38,17.21 7.53,25.96 2.18,8.87 3.98,17.83 5.42,26.84 1.47,9.21 2.57,18.42 3.29,27.59 0.73,9.28 1.1,18.57 1.1,27.8 0,45.84 -9.12,89.55 -25.63,129.43 -17.16,41.42 -42.3,78.7 -73.5,109.9 -31.2,31.2 -68.48,56.35 -109.9,73.5 -39.88,16.52 -83.6,25.63 -129.44,25.63 -45.84,0 -89.55,-9.12 -129.43,-25.63 -41.42,-17.16 -78.7,-42.3 -109.9,-73.5 -31.2,-31.2 -56.35,-68.48 -73.5,-109.9 -16.52,-39.88 -25.63,-83.6 -25.63,-129.43 0,-9.13 0.38,-18.28 1.13,-27.42 0.75,-9.13 1.88,-18.28 3.38,-27.41 1.48,-9.05 3.34,-18.04 5.56,-26.94 2.22,-8.9 4.8,-17.72 7.74,-26.44l2.9 -8.58c72.08,0 144.17,-0.1 216.26,-0.19l-15.43 20.27c-4.94,6.49 -9.31,13.34 -13.1,20.46 -3.81,7.18 -7.02,14.63 -9.6,22.27 -2.58,7.64 -4.54,15.52 -5.85,23.54 -1.3,7.96 -1.97,16.08 -1.97,24.28 0,20.26 4.03,39.58 11.32,57.19 7.57,18.29 18.68,34.76 32.47,48.54 13.79,13.79 30.25,24.9 48.54,32.47 17.61,7.29 36.93,11.32 57.19,11.32 20.26,0 39.58,-4.03 57.18,-11.32 18.29,-7.57 34.76,-18.68 48.54,-32.47 13.78,-13.78 24.9,-30.26 32.47,-48.54 7.29,-17.61 11.32,-36.93 11.32,-57.19 0,-8.18 -0.66,-16.29 -1.96,-24.24 -1.31,-8 -3.26,-15.86 -5.83,-23.49 -2.58,-7.67 -5.78,-15.13 -9.58,-22.3 -3.77,-7.12 -8.12,-13.96 -13.03,-20.42l-15.33 -20.2c70.79,0.09 141.59,0 212.38,0l2.9 8.59zm6.2 26.28c-2.13,-8.71 -4.63,-17.34 -7.5,-25.85l-2.58 -7.66 -208.65 -0 13.68 18.01c4.96,6.53 9.36,13.43 13.15,20.61 3.83,7.23 7.06,14.76 9.66,22.5 2.59,7.7 4.56,15.63 5.88,23.71 1.31,8.03 1.98,16.22 1.98,24.46 0,20.43 -4.07,39.92 -11.43,57.7 -7.65,18.47 -18.86,35.09 -32.77,48.99 -13.91,13.91 -30.53,25.12 -48.99,32.77 -17.77,7.36 -37.27,11.43 -57.7,11.43 -20.43,0 -39.93,-4.07 -57.71,-11.43 -18.47,-7.65 -35.09,-18.86 -48.99,-32.77 -13.91,-13.91 -25.12,-30.53 -32.77,-48.99 -7.36,-17.78 -11.43,-37.27 -11.43,-57.7 0,-8.26 0.67,-16.45 1.99,-24.5 1.32,-8.09 3.3,-16.05 5.9,-23.76 2.61,-7.73 5.85,-15.25 9.68,-22.48 3.82,-7.18 8.23,-14.09 13.22,-20.65l13.76 -18.08 -212.52 0.19 -2.59 7.66c-2.93,8.68 -5.5,17.46 -7.71,26.33 -2.21,8.87 -4.06,17.83 -5.53,26.84 -1.49,9.06 -2.61,18.17 -3.36,27.29 -0.75,9.11 -1.12,18.22 -1.12,27.31 0,45.66 9.08,89.21 25.53,128.91 17.08,41.25 42.13,78.37 73.21,109.45 31.08,31.08 68.21,56.13 109.45,73.21 39.71,16.45 83.25,25.53 128.92,25.53 45.67,0 89.21,-9.08 128.92,-25.53 41.24,-17.08 78.37,-42.13 109.45,-73.21 31.08,-31.08 56.12,-68.21 73.21,-109.45 16.45,-39.71 25.53,-83.25 25.53,-128.91 0,-9.2 -0.36,-18.44 -1.1,-27.7 -0.73,-9.18 -1.82,-18.36 -3.28,-27.48 -1.44,-8.99 -3.23,-17.91 -5.4,-26.74zm-18.14 30.48c-1.1,-6.89 -2.44,-13.76 -4.01,-20.59 -1.52,-6.6 -3.25,-13.13 -5.21,-19.58l-145.49 -0c2.57,4.58 4.93,9.26 7.07,14.03 2.3,5.13 4.35,10.38 6.15,15.71 3.02,8.99 5.32,18.2 6.86,27.55 1.52,9.29 2.31,18.72 2.31,28.18 0,23.67 -4.71,46.25 -13.24,66.84 -8.86,21.39 -21.85,40.65 -37.96,56.76 -16.11,16.11 -35.37,29.1 -56.76,37.96 -20.59,8.53 -43.18,13.24 -66.84,13.24 -23.67,0 -46.25,-4.71 -66.84,-13.24 -21.39,-8.86 -40.65,-21.85 -56.76,-37.96 -16.11,-16.11 -29.1,-35.37 -37.96,-56.76 -8.53,-20.59 -13.24,-43.18 -13.24,-66.84 0,-9.48 0.78,-18.92 2.32,-28.23 1.54,-9.37 3.85,-18.6 6.88,-27.59 1.8,-5.34 3.86,-10.6 6.16,-15.74 2.14,-4.77 4.5,-9.46 7.07,-14.04l-149.22 0.13c-2.01,6.6 -3.82,13.28 -5.4,20.02 -1.62,6.91 -3.01,13.86 -4.15,20.82 -1.36,8.3 -2.39,16.72 -3.08,25.21 -0.68,8.46 -1.03,17 -1.03,25.57 0,42.42 8.43,82.88 23.71,119.77 15.87,38.32 39.14,72.81 68.02,101.69 28.88,28.88 63.37,52.14 101.69,68.01 36.89,15.28 77.35,23.72 119.77,23.72 42.43,0 82.88,-8.44 119.78,-23.72 38.32,-15.87 72.81,-39.14 101.69,-68.01 28.88,-28.88 52.14,-63.37 68.02,-101.69 15.28,-36.89 23.71,-77.35 23.71,-119.77 0,-8.74 -0.33,-17.44 -1,-26.07 -0.67,-8.55 -1.66,-17.03 -3,-25.37zm-2.68 -20.89c1.57,6.83 2.91,13.73 4.02,20.68 1.35,8.42 2.35,16.93 3.01,25.49 0.67,8.66 1,17.4 1,26.17 0,42.6 -8.47,83.23 -23.82,120.29 -15.94,38.5 -39.31,73.14 -68.31,102.14 -29,29 -63.64,52.37 -102.14,68.31 -37.06,15.35 -77.69,23.82 -120.29,23.82 -42.6,0 -83.23,-8.47 -120.29,-23.82 -38.49,-15.94 -73.14,-39.31 -102.14,-68.31 -29,-29 -52.36,-63.64 -68.31,-102.14 -15.35,-37.06 -23.82,-77.69 -23.82,-120.29 0,-8.61 0.34,-17.18 1.03,-25.67 0.69,-8.5 1.72,-16.94 3.1,-25.32 1.15,-7.03 2.54,-14.01 4.17,-20.91 1.62,-6.9 3.48,-13.78 5.58,-20.59l0.15 -0.48c50.86,0 101.72,-0.06 152.58,-0.14l-0.58 1.02c-2.77,4.86 -5.3,9.85 -7.59,14.94 -2.29,5.11 -4.33,10.32 -6.12,15.62 -3.01,8.92 -5.3,18.08 -6.83,27.38 -1.52,9.22 -2.3,18.59 -2.3,28.01 0,23.49 4.67,45.9 13.13,66.33 8.79,21.22 21.67,40.32 37.67,56.31 15.99,15.99 35.09,28.88 56.31,37.67 20.43,8.46 42.83,13.13 66.33,13.13 23.49,0 45.9,-4.67 66.33,-13.13 21.22,-8.79 40.32,-21.67 56.31,-37.67 15.99,-15.99 28.88,-35.1 37.67,-56.31 8.46,-20.43 13.13,-42.83 13.13,-66.33 0,-9.4 -0.77,-18.76 -2.29,-27.96 -1.52,-9.28 -3.81,-18.42 -6.8,-27.34 -1.78,-5.28 -3.82,-10.48 -6.1,-15.58 -2.28,-5.09 -4.81,-10.07 -7.58,-14.93l-0.58 -1.02c49.61,0.07 99.23,0 148.84,0l0.15 0.49c2.03,6.68 3.83,13.4 5.38,20.15z"/>
  <path class="fil2" d="M398.43 201.24c14.89,10.9 25.25,21.05 31.05,30.46 5.79,9.36 8.67,20.15 8.67,32.27 0,17.07 -6.43,31.47 -19.25,43.22 -12.81,11.8 -30.25,17.7 -52.31,17.7 -20.89,0 -37,-5.16 -48.43,-15.47 -11.43,-10.31 -17.17,-22.86 -17.17,-37.75 0,-11.38 3.3,-21.32 9.89,-29.82 6.59,-8.56 17.54,-16.32 32.91,-23.44 -16.75,-12.6 -27.49,-22.97 -32.22,-31.05 -4.73,-8.08 -7.07,-17.49 -7.07,-28.18 0,-14.14 6.01,-26.58 18.02,-37.32 11.96,-10.74 28.44,-16.11 49.28,-16.11 20.2,0 35.67,4.73 46.57,14.25 10.85,9.52 16.27,20.89 16.27,34.18 0,10 -2.92,18.77 -8.83,26.42 -5.85,7.6 -14.99,14.51 -27.38,20.63zm-11.96 -7.87c3.88,-5.16 6.75,-11.01 8.67,-17.39 1.86,-6.43 2.82,-13.5 2.82,-21.16 0,-13.5 -2.92,-23.82 -8.72,-30.94 -4.41,-5.48 -10.42,-8.24 -18.13,-8.24 -6.96,0 -12.92,2.5 -17.81,7.5 -4.89,5.05 -7.34,11.27 -7.34,18.72 0,7.55 2.76,15.36 8.24,23.5 5.48,8.14 16.22,17.44 32.27,28.02zm-30.89 32.43c-3.24,2.92 -5.53,5.58 -6.91,7.98 -2.07,3.67 -3.93,8.98 -5.63,15.95 -1.65,7.02 -2.5,14.3 -2.5,21.9 0,9.84 1.22,18.08 3.72,24.67 2.5,6.65 6.06,11.43 10.63,14.36 4.62,2.92 9.36,4.36 14.25,4.36 7.55,0 13.93,-2.82 19.14,-8.4 5.16,-5.58 7.76,-13.24 7.76,-22.96 0.16,-20.31 -13.29,-39.61 -40.46,-57.84z"/>
  <path class="fil1 str1" d="M291.17 329.82l-1 -1.16 -10.33 8 0.99 1.16c6.32,-2.3 11,-1.67 14.06,1.91 1.21,1.41 1.77,3.04 1.68,4.9 -0.08,1.84 -0.71,3.55 -1.92,5.09 -1.2,1.55 -3.4,3.69 -6.58,6.41l-6.08 -7.12 -2.33 1.99 6.08 7.12c-3.54,2.99 -6.34,5.07 -8.38,6.21 -2.06,1.15 -3.97,1.59 -5.73,1.31 -1.76,-0.27 -3.42,-1.3 -4.94,-3.08 -2.26,-2.64 -3.26,-6.68 -3,-12.09l-1.49 -0.52c-0.71,3.81 -0.87,6.92 -0.47,9.38 0.39,2.45 1.65,4.9 3.75,7.37 4.04,4.73 8.76,7.03 14.13,6.9 5.37,-0.13 10.38,-2.19 15.06,-6.18 4.87,-4.16 7.65,-8.94 8.36,-14.34 0.71,-5.4 -0.55,-10 -3.79,-13.79 -1.26,-1.47 -3.05,-2.96 -5.36,-4.45 -1.62,-1.04 -2.59,-1.73 -2.89,-2.09 -0.73,-0.85 -0.67,-1.82 0.17,-2.92zm16.97 70.31l0.6 -1.41c1.62,0.68 2.9,0.72 3.85,0.13 0.97,-0.58 1.98,-2.13 3.04,-4.64l11.65 -27.51 -3.78 -1.6c-2.67,-1.13 -4.7,-1.44 -6.13,-0.95 -1.43,0.49 -3.07,2.09 -4.9,4.78l-1.41 -0.6 4.18 -9.86 37.7 15.97 -4.18 9.86 -1.41 -0.6c0.64,-2.86 0.71,-5.02 0.22,-6.51 -0.5,-1.48 -2.19,-2.83 -5.06,-4.05l-3.87 -1.64 -11.65 27.51c-1.1,2.6 -1.51,4.41 -1.23,5.46 0.26,1.04 1.19,1.92 2.79,2.63l-0.6 1.41 -19.81 -8.39zm76.9 5.42c-4.37,5.07 -8.54,7.88 -12.48,8.41 -2.33,0.32 -4.37,-0.18 -6.12,-1.5 -1.74,-1.31 -2.77,-3.12 -3.08,-5.41 -0.42,-3.11 0.54,-6.08 2.88,-8.92 2.34,-2.85 7.72,-6.93 16.14,-12.27l-0.55 -4.09c-0.41,-3.06 -0.84,-4.97 -1.29,-5.73 -0.43,-0.74 -1.17,-1.36 -2.18,-1.83 -1.02,-0.47 -2.11,-0.62 -3.27,-0.46 -1.9,0.26 -3.41,0.88 -4.51,1.9 -0.69,0.62 -0.98,1.28 -0.88,1.98 0.08,0.61 0.58,1.3 1.52,2.09 1.27,1.1 1.98,2.23 2.14,3.39 0.19,1.41 -0.17,2.7 -1.1,3.84 -0.92,1.14 -2.23,1.83 -3.94,2.06 -1.83,0.25 -3.43,-0.09 -4.82,-1.03 -1.38,-0.93 -2.18,-2.14 -2.38,-3.61 -0.29,-2.1 0.28,-4.2 1.67,-6.33 1.41,-2.11 3.52,-3.88 6.34,-5.31 2.84,-1.41 5.85,-2.34 9.04,-2.77 3.86,-0.52 7.04,-0.12 9.5,1.21 2.48,1.33 4.18,2.9 5.1,4.73 0.57,1.17 1.16,3.93 1.75,8.3l2.13 15.77c0.25,1.84 0.48,3.01 0.7,3.46 0.21,0.46 0.47,0.78 0.8,0.98 0.33,0.18 0.67,0.26 1.04,0.2 0.77,-0.1 1.48,-0.73 2.14,-1.88l1.44 0.83c-1.17,2.35 -2.45,4.13 -3.88,5.31 -1.41,1.19 -3.12,1.92 -5.09,2.19 -2.32,0.31 -4.22,0.01 -5.68,-0.9 -1.46,-0.92 -2.47,-2.47 -3.06,-4.64zm-0.44 -3.21l-1.83 -13.56c-3.23,2.54 -5.55,5.1 -6.95,7.68 -0.92,1.71 -1.27,3.38 -1.05,4.97 0.18,1.34 0.82,2.45 1.92,3.33 0.84,0.69 1.9,0.94 3.2,0.76 1.46,-0.2 3.02,-1.26 4.71,-3.18zm57.31 -14.42l-1.03 -1.13c1.18,-1.11 1.73,-2.22 1.64,-3.34 -0.07,-1.11 -0.91,-2.54 -2.49,-4.28l-8.23 -9.06c-0.8,0.73 -0.95,1.96 -0.46,3.72l5.41 18.78 -10.69 9.71 -1.03 -1.13c0.86,-0.79 1.38,-1.5 1.52,-2.14 0.16,-0.63 0.02,-1.71 -0.39,-3.19l-3.59 -12.42c-0.64,-2.35 -0.8,-4.2 -0.45,-5.55 0.35,-1.35 1.32,-3.01 2.91,-4.98 -2.34,-0.28 -5.43,-1.53 -9.25,-3.78 -2.21,-1.34 -3.7,-2.11 -4.48,-2.33 -0.8,-0.23 -1.41,-0.14 -1.84,0.25 -0.54,0.5 -0.22,1.48 0.96,2.95 1.23,1.58 1.91,2.88 2.03,3.93 0.12,1.05 -0.35,2.04 -1.42,3.01 -0.89,0.81 -2.01,1.2 -3.37,1.18 -1.36,-0 -2.72,-0.77 -4.09,-2.27 -1.26,-1.39 -1.88,-3.05 -1.85,-4.99 0.04,-1.94 0.88,-3.65 2.53,-5.15 1.6,-1.45 3.37,-2.07 5.34,-1.89 1.97,0.2 4.45,1.15 7.46,2.85 3.86,2.18 6.54,3.34 7.99,3.48 1.47,0.15 3.08,-0.58 4.83,-2.18l-7.26 -7.99c-1.46,-1.61 -2.76,-2.48 -3.89,-2.63 -1.12,-0.14 -2.26,0.27 -3.44,1.26l-1.03 -1.13 15.78 -14.34 1.03 1.13c-1.25,1.3 -1.84,2.43 -1.76,3.41 0.07,0.97 0.98,2.41 2.73,4.35l6.96 7.66c1.09,-0.99 1.82,-2.06 2.19,-3.23 0.38,-1.16 0.42,-2.31 0.14,-3.41 -0.3,-1.11 -1.22,-3.47 -2.78,-7.06 -1.44,-3.29 -2.01,-5.84 -1.71,-7.61 0.29,-1.78 1.07,-3.24 2.36,-4.41 1.43,-1.3 3.12,-1.96 5.08,-1.99 1.96,-0.03 3.65,0.74 5.08,2.32 1.15,1.26 1.76,2.6 1.79,4 0.06,1.4 -0.43,2.58 -1.48,3.53 -2.05,1.87 -4.44,1.36 -7.15,-1.53 -1.09,-1.2 -1.9,-1.55 -2.44,-1.06 -0.87,0.79 -0.38,3.08 1.47,6.9 1.89,3.96 2.83,7.04 2.81,9.22 2.23,-1.5 4.04,-2.31 5.47,-2.46 1.42,-0.13 3.44,0.3 6.06,1.34l11.23 4.4c1.33,0.54 2.32,0.77 2.98,0.69 0.65,-0.09 1.46,-0.51 2.41,-1.3l1.03 1.13 -10.69 9.71 -18.2 -7.16c-1.67,-0.65 -2.91,-0.62 -3.73,0.09l8.77 9.66c1.43,1.58 2.56,2.39 3.39,2.48 0.82,0.08 2.03,-0.42 3.57,-1.51l1.03 1.13 -15.78 14.34z"/>
  <path class="fil2" d="M119.21 264.19l48.59 34.93 -0.06 6.54 -48.93 -0.48 -0.06 6.7 -11.57 -0.11 0.06 -6.7 -16.96 -0.17 0.15 -14.73 16.96 0.17 0.26 -26.27 11.57 0.12zm-0.05 5.02l-0.21 21.25 30.18 0.3 -29.97 -21.54zm49.11 53.26l7.66 33.19 -15.28 -2 -6.45 -27.96 -7.97 -0.92c2.31,12.12 1.29,22.09 -3.02,29.91 -3.53,6.44 -8.87,10.47 -15.98,12.11 -4.56,1.05 -9.29,0.85 -14.21,-0.59 -4.94,-1.45 -9.08,-4.17 -12.46,-8.14 -3.37,-3.98 -5.68,-8.65 -6.92,-14.04 -1.34,-5.8 -1.25,-10.52 0.28,-14.16 1.1,-2.53 2.66,-4.03 4.69,-4.5 1.56,-0.36 3.07,-0.11 4.55,0.75 1.45,0.85 2.35,2.03 2.7,3.55 0.31,1.36 0.33,2.8 0.08,4.34 -0.26,1.52 -1.23,4.27 -2.92,8.25 -1.03,2.48 -1.67,4.56 -1.9,6.23 -0.17,1.19 -0.12,2.45 0.2,3.83 0.66,2.87 2.32,5.05 4.96,6.56 2.66,1.51 5.52,1.9 8.57,1.2 6.44,-1.49 10.96,-5.76 13.58,-12.85 2.6,-7.06 2.82,-15.29 0.66,-24.64 -0.22,-0.95 -0.56,-2.35 -1.04,-4.23l40.24 4.13zm22.88 108.35l-1.63 1.06c-1.52,-1.83 -2.93,-2.77 -4.21,-2.78 -1.29,-0.01 -3.39,0.92 -6.3,2.82l-26.2 17.11c-2.78,1.82 -4.4,3.35 -4.88,4.61 -0.48,1.25 -0.16,2.84 1,4.75l-1.63 1.07 -14 -21.44 1.63 -1.06c1.21,1.85 2.49,2.66 3.8,2.39 1.33,-0.27 3.18,-1.18 5.56,-2.73l32.43 -21.18 -7.87 -12.05 -32.14 20.99c-2.9,1.89 -4.62,3.41 -5.15,4.52 -0.52,1.13 -0.25,2.52 0.84,4.19l-1.63 1.06 -14 -21.44 1.63 -1.06c1.22,1.81 2.52,2.71 3.89,2.75 1.39,0.03 3.63,-0.97 6.75,-3.01l26.19 -17.11c2.93,-1.91 4.54,-3.49 4.89,-4.75 0.33,-1.27 -0.05,-2.72 -1.14,-4.39l1.63 -1.07 30.53 46.74zm-9.48 53.56c-8.33,-0.07 -14.28,-1.8 -17.82,-5.12 -2.09,-1.97 -3.16,-4.31 -3.2,-7.05 -0.04,-2.71 0.96,-5.16 2.97,-7.3 2.73,-2.91 6.4,-4.39 10.98,-4.46 4.59,-0.06 12.72,1.77 24.4,5.5l3.6 -3.83c2.69,-2.86 4.25,-4.81 4.65,-5.85 0.4,-1.01 0.44,-2.21 0.12,-3.55 -0.32,-1.35 -1,-2.52 -2.04,-3.5 -1.7,-1.61 -3.47,-2.53 -5.31,-2.77 -1.14,-0.15 -2.01,0.11 -2.62,0.76 -0.54,0.57 -0.83,1.6 -0.9,3.14 -0.11,2.1 -0.68,3.69 -1.7,4.77 -1.25,1.33 -2.79,2.02 -4.62,2.05 -1.83,0.04 -3.51,-0.65 -5.05,-2.1 -1.64,-1.54 -2.53,-3.35 -2.67,-5.42 -0.14,-2.07 0.44,-3.81 1.73,-5.19 1.85,-1.96 4.35,-3.12 7.51,-3.51 3.16,-0.36 6.5,0.22 10.06,1.76 3.56,1.56 6.77,3.69 9.63,6.39 3.47,3.27 5.5,6.61 6.07,10.04 0.59,3.44 0.34,6.32 -0.75,8.68 -0.71,1.48 -2.99,4.27 -6.84,8.36l-13.89 14.76c-1.62,1.72 -2.59,2.89 -2.88,3.46 -0.29,0.57 -0.42,1.08 -0.36,1.55 0.07,0.46 0.26,0.85 0.59,1.16 0.69,0.65 1.85,0.82 3.48,0.52l0.28 2.05c-3.2,0.79 -5.94,1 -8.19,0.58 -2.25,-0.39 -4.27,-1.42 -6.04,-3.09 -2.08,-1.96 -3.23,-4.02 -3.45,-6.14 -0.21,-2.13 0.54,-4.34 2.22,-6.67zm2.83 -3.01l11.94 -12.69c-4.97,-1.03 -9.25,-1.18 -12.87,-0.44 -2.39,0.51 -4.3,1.52 -5.69,3.01 -1.18,1.25 -1.79,2.75 -1.81,4.51 -0.04,1.35 0.53,2.57 1.7,3.67 1.31,1.23 3.55,1.87 6.73,1.93zm36.71 36.94l-9.68 17.04c-1.34,2.36 -2.08,4.07 -2.19,5.12 -0.13,1.05 0.07,2 0.6,2.8 0.52,0.83 1.87,1.85 4.06,3.09l-0.96 1.69 -25.04 -14.22 0.96 -1.69c2.01,1.06 3.8,1.32 5.38,0.77 1.06,-0.38 2.49,-2.17 4.27,-5.3l27.33 -48.13c1.85,-3.26 2.65,-5.52 2.44,-6.86 -0.22,-1.31 -1.35,-2.63 -3.37,-3.96l0.96 -1.7 18.44 10.47 -3.39 5.98c2.85,-1.46 5.36,-2.28 7.53,-2.4 3.1,-0.19 5.99,0.46 8.67,1.98 3.2,1.82 5.52,4.52 6.95,8.12 1.43,3.6 1.77,7.64 1.04,12.12 -0.73,4.48 -2.31,8.86 -4.74,13.14 -2.61,4.6 -5.7,8.4 -9.28,11.4 -3.58,3 -7.27,4.72 -11.09,5.19 -3.81,0.47 -7.37,-0.23 -10.67,-2.1 -2.39,-1.36 -4.32,-3.18 -5.78,-5.48 -1.07,-1.71 -1.89,-4.08 -2.44,-7.09zm2.79 -4.92c0.44,5.46 2.18,9.06 5.24,10.8 1.69,0.96 3.59,0.83 5.72,-0.4 3.17,-1.8 6.91,-6.51 11.24,-14.13 4.44,-7.82 6.59,-13.68 6.45,-17.56 -0.11,-2.59 -1.15,-4.43 -3.16,-5.57 -3.14,-1.78 -7.07,-0.9 -11.77,2.67l-13.73 24.18zm65.89 33.41c-7.37,3.87 -13.43,5.17 -18.12,3.91 -2.78,-0.75 -4.82,-2.31 -6.15,-4.7 -1.32,-2.37 -1.6,-5 -0.83,-7.84 1.04,-3.85 3.56,-6.89 7.57,-9.12 4.01,-2.22 12.05,-4.45 24.1,-6.69l1.36 -5.07c1.02,-3.8 1.47,-6.25 1.34,-7.36 -0.13,-1.08 -0.66,-2.15 -1.57,-3.19 -0.92,-1.04 -2.07,-1.75 -3.45,-2.12 -2.27,-0.61 -4.26,-0.59 -6,0.07 -1.08,0.4 -1.72,1.04 -1.96,1.91 -0.2,0.76 0.03,1.81 0.7,3.19 0.89,1.9 1.15,3.57 0.76,5.01 -0.47,1.75 -1.5,3.1 -3.1,3.99 -1.59,0.9 -3.4,1.08 -5.44,0.54 -2.18,-0.59 -3.81,-1.76 -4.91,-3.52 -1.1,-1.76 -1.41,-3.56 -0.92,-5.39 0.7,-2.6 2.36,-4.8 4.96,-6.64 2.61,-1.81 5.84,-2.88 9.7,-3.2 3.87,-0.3 7.7,0.06 11.51,1.08 4.6,1.24 7.97,3.23 10.1,5.98 2.14,2.75 3.28,5.41 3.44,8.01 0.07,1.64 -0.62,5.18 -2.07,10.6l-5.27 19.57c-0.62,2.29 -0.92,3.77 -0.9,4.41 0.02,0.64 0.15,1.15 0.42,1.54 0.28,0.37 0.63,0.62 1.07,0.74 0.92,0.25 2.01,-0.15 3.32,-1.18l1.22 1.67c-2.45,2.21 -4.76,3.68 -6.94,4.38 -2.17,0.72 -4.44,0.76 -6.79,0.13 -2.76,-0.74 -4.75,-2.01 -5.94,-3.77 -1.19,-1.79 -1.58,-4.09 -1.19,-6.93zm1.07 -3.98l4.53 -16.82c-4.86,1.44 -8.71,3.33 -11.55,5.69 -1.86,1.57 -3.07,3.37 -3.6,5.34 -0.45,1.66 -0.27,3.27 0.54,4.83 0.6,1.21 1.68,2.01 3.23,2.43 1.73,0.47 4.01,-0.03 6.85,-1.48zm58.45 21.77l0.15 -1.94c1.78,0.1 3.29,-0.27 4.51,-1.08 1.22,-0.81 1.95,-2.76 2.19,-5.88l2.97 -39.2 -14.14 -1.07 -1.72 22.8c-0.62,8.21 -1.43,13.84 -2.46,16.9 -1.02,3.06 -2.72,5.35 -5.09,6.84 -2.37,1.51 -4.83,2.16 -7.37,1.97 -2.85,-0.21 -5.06,-1.3 -6.66,-3.24 -1.6,-1.94 -2.3,-4.08 -2.12,-6.43 0.17,-2.29 0.95,-4.08 2.32,-5.44 1.37,-1.33 3.05,-1.93 5.04,-1.78 3.82,0.29 5.53,2.87 5.16,7.75 -0.17,2.21 0.15,3.34 0.97,3.41 1.57,0.12 2.88,-1.14 3.94,-3.8 1.06,-2.66 1.9,-8.17 2.53,-16.51l1.15 -15.2c0.27,-3.49 0.01,-5.9 -0.79,-7.26 -0.8,-1.34 -2.26,-2.17 -4.43,-2.44l0.15 -1.94 44.16 3.34 -0.15 1.94c-3.59,-0.19 -5.56,2.07 -5.92,6.79l-2.53 33.48c-0.2,2.63 0.04,4.56 0.7,5.82 0.66,1.25 2.01,2.01 4.09,2.24l-0.15 1.94 -26.52 -2.01zm68.25 -4.78l-0.31 -1.92c1.75,-0.32 3.14,-1.03 4.13,-2.1 1,-1.07 1.25,-3.15 0.75,-6.24l-6.29 -38.8 -14 2.27 3.66 22.57c1.32,8.13 1.84,13.79 1.57,17.01 -0.28,3.21 -1.39,5.84 -3.35,7.84 -1.96,2.02 -4.19,3.23 -6.7,3.64 -2.82,0.46 -5.23,-0.08 -7.23,-1.59 -2.01,-1.51 -3.19,-3.43 -3.57,-5.75 -0.37,-2.26 -0.03,-4.19 0.99,-5.83 1.02,-1.62 2.51,-2.59 4.48,-2.91 3.78,-0.61 6.05,1.5 6.83,6.32 0.35,2.19 0.93,3.22 1.74,3.09 1.55,-0.25 2.53,-1.78 2.94,-4.62 0.41,-2.83 -0.06,-8.38 -1.4,-16.64l-2.44 -15.05c-0.56,-3.45 -1.37,-5.74 -2.47,-6.87 -1.09,-1.12 -2.7,-1.58 -4.87,-1.34l-0.31 -1.92 43.72 -7.08 0.31 1.92c-3.53,0.65 -4.92,3.31 -4.16,7.99l5.37 33.14c0.42,2.6 1.11,4.43 2.04,5.5 0.93,1.07 2.43,1.48 4.51,1.22l0.31 1.92 -26.25 4.25zm67.22 -53.24l-25.14 11.35c3.15,6.18 7.03,10.45 11.62,12.8 3.53,1.8 6.87,1.99 10.04,0.56 1.97,-0.89 3.48,-2.26 4.57,-4.12 1.09,-1.86 1.88,-4.69 2.38,-8.45l2.19 0.39c-0.11,6.36 -1.18,11.32 -3.18,14.85 -2.02,3.53 -5,6.19 -8.96,7.98 -6.78,3.06 -13.14,2.66 -19.08,-1.19 -4.78,-3.1 -8.63,-7.9 -11.56,-14.39 -3.58,-7.94 -4.37,-15.19 -2.36,-21.75 2,-6.56 5.78,-11.1 11.32,-13.6 4.63,-2.09 9.54,-1.94 14.73,0.48 5.19,2.42 9.67,7.45 13.44,15.1zm-13.53 2.08c-2.47,-5.47 -4.45,-9.1 -5.94,-10.88 -1.5,-1.77 -3.09,-2.92 -4.76,-3.43 -0.96,-0.3 -2.02,-0.2 -3.17,0.32 -1.68,0.76 -2.68,2.26 -2.99,4.47 -0.55,3.9 0.35,8.48 2.73,13.75l0.8 1.78 13.32 -6.02zm58.59 0.55l-1.18 -1.55c1.4,-1.1 2.29,-2.38 2.67,-3.79 0.38,-1.41 -0.36,-3.36 -2.26,-5.86l-23.73 -31.34 -11.3 8.56 13.8 18.23c4.97,6.56 8.09,11.32 9.35,14.29 1.26,2.97 1.51,5.81 0.71,8.49 -0.78,2.7 -2.19,4.82 -4.21,6.36 -2.28,1.73 -4.66,2.38 -7.14,1.98 -2.48,-0.4 -4.42,-1.54 -5.84,-3.41 -1.38,-1.83 -1.99,-3.69 -1.86,-5.61 0.14,-1.91 1,-3.47 2.6,-4.67 3.05,-2.31 6.04,-1.51 9,2.39 1.34,1.76 2.33,2.4 2.98,1.91 1.26,-0.95 1.4,-2.76 0.44,-5.46 -0.96,-2.7 -3.98,-7.38 -9.04,-14.05l-9.2 -12.15c-2.11,-2.79 -3.9,-4.42 -5.4,-4.92 -1.49,-0.48 -3.13,-0.13 -4.93,1.1l-1.18 -1.55 35.31 -26.74 1.18 1.55c-2.82,2.23 -2.8,5.23 0.07,9.01l20.27 26.77c1.59,2.1 3.05,3.39 4.38,3.9 1.32,0.51 2.84,0.17 4.55,-1.03l1.17 1.55 -21.2 16.05zm32.31 -26.58l-1.53 -1.2c1.03,-1.82 1.32,-3.36 0.84,-4.64 -0.45,-1.28 -1.91,-2.89 -4.36,-4.81l-24.93 -19.47c-2.27,-1.78 -4.09,-2.71 -5.47,-2.81 -1.35,-0.1 -2.78,0.52 -4.28,1.88l-1.53 -1.2 15.76 -20.18 1.54 1.2c-1.04,1.88 -1.29,3.48 -0.74,4.79 0.53,1.3 2.08,2.95 4.62,4.94l9.85 7.69 2.38 -3.05c5.37,-6.87 10.43,-11.24 15.2,-13.13 4.76,-1.9 8.96,-1.44 12.58,1.39 3.4,2.66 4.92,6.33 4.53,11.02 -0.39,4.69 -2.97,10.07 -7.71,16.15l-16.74 21.42zm-7.44 -31.61l12.84 10.03c2,1.56 3.48,2.21 4.45,1.94 0.96,-0.27 1.8,-0.85 2.51,-1.76 1.71,-2.19 2.43,-4.72 2.11,-7.58 -0.29,-2.85 -1.8,-5.33 -4.46,-7.41 -5.68,-4.43 -11.49,-2.84 -17.45,4.78zm63.5 -12.36l-2.09 -1.19c0.41,-4.51 -0.23,-8.3 -1.9,-11.38 -1.67,-3.1 -3.85,-5.41 -6.56,-6.95 -0.55,-0.31 -1.03,-0.43 -1.44,-0.4 -0.39,0.07 -0.63,0.21 -0.75,0.44 -0.11,0.19 -0.15,0.53 -0.15,1.03 0.04,1.2 -0.31,2.48 -1.07,3.82 -1.04,1.83 -2.68,2.98 -4.95,3.49 -2.25,0.51 -4.38,0.18 -6.38,-0.95 -2.15,-1.22 -3.58,-3.06 -4.33,-5.53 -0.73,-2.48 -0.47,-4.82 0.78,-7.03 1.52,-2.68 3.89,-4.34 7.13,-5.01 3.24,-0.67 6.73,0.05 10.49,2.18 4.63,2.63 7.99,6.31 10.07,11.05 2.06,4.71 2.45,10.19 1.15,16.43zm13.21 -79.37l-56.92 -33.09 -3.31 14.71c-1.3,5.75 -1.49,10.25 -0.57,13.5 0.63,2.26 2.3,4.39 5.02,6.41l-0.45 1.98 -21.76 -10.29 9.53 -42.33 70.32 40.88 -1.85 8.24zm-32.27 -62.08l-1.94 -0.19c-0.82,-4.18 -1.68,-7.1 -2.59,-8.78 -0.91,-1.67 -2.39,-3.2 -4.45,-4.54 -2.05,-1.36 -4.2,-2.14 -6.43,-2.36 -3.08,-0.3 -5.83,0.51 -8.26,2.47 -2.41,1.93 -3.78,4.52 -4.1,7.73 -0.49,5.01 1.85,9.53 7,13.56l-0.91 1.9c-5.96,-3.18 -10.32,-6.92 -13.04,-11.24 -2.74,-4.32 -3.86,-8.94 -3.38,-13.86 0.49,-5.01 2.5,-9.01 6.01,-11.96 3.51,-2.95 7.42,-4.21 11.7,-3.79 2.77,0.27 5.4,1.28 7.82,3.05 2.44,1.75 4.48,4.34 6.15,7.76 2.51,-3.93 5.43,-6.83 8.74,-8.71 3.31,-1.86 7.32,-2.58 11.99,-2.12 7.85,0.77 14.27,4.16 19.25,10.15 4.98,6.01 7.01,13.61 6.11,22.78 -0.6,6.12 -2.1,10.49 -4.49,13.08 -1.68,1.88 -3.68,2.71 -6.02,2.48 -1.69,-0.17 -3.1,-0.89 -4.18,-2.19 -1.08,-1.29 -1.56,-2.69 -1.41,-4.22 0.11,-1.18 0.49,-2.25 1.1,-3.24 0.34,-0.54 2.18,-2.4 5.45,-5.59 3.28,-3.18 5.07,-6.29 5.36,-9.32 0.26,-2.63 -0.61,-4.99 -2.59,-7.1 -1.98,-2.09 -4.65,-3.31 -7.99,-3.64 -5.07,-0.5 -9.94,0.76 -14.55,3.74 -4.61,3.01 -8.07,7.71 -10.35,14.13z"/>
  <path class="fil3 str2" d="M47.55 183.78c0,0 135.7,-36.48 192.37,-124.9"/>
  <path class="fil3 str2" d="M341.13 51.7c0,0 -22.61,-11.63 -54.78,9.82 -32.17,21.45 -55.42,10.16 -49.67,0"/>
  <ellipse class="fil4 str3" cx="239.71" cy="59" rx="8.38" ry="7.82"/>
  <path class="fil4 str3" d="M361.38 62.98c-2.43,0.02 -3.11,2.68 -3.67,6.32 -0.93,6.03 -7.01,15.38 -11.77,3.25 -3.26,-8.3 -2.4,-7.92 -8.28,-5.68 -21.43,8.2 4.37,-32.31 23.71,-34.47 19.34,2.16 45.14,42.67 23.71,34.47 -5.87,-2.25 -5.01,-2.63 -8.27,5.68 -4.76,12.12 -10.84,2.77 -11.77,-3.25 -0.56,-3.64 -1.24,-6.3 -3.67,-6.32z"/>
  <path class="fil3 str2" d="M675.52 183.12c0,0 -135.71,-36.48 -192.37,-124.9"/>
  <path class="fil3 str2" d="M381.95 51.04c0,0 22.61,-11.63 54.78,9.82 32.17,21.45 55.42,10.16 49.67,0"/>
  <ellipse class="fil4 str3" cx="483.36" cy="58.34" rx="8.38" ry="7.82"/>
 </g>
</svg>
