<?xml version="1.0" encoding="UTF-8"?>
<!DOCTYPE svg PUBLIC "-//W3C//DTD SVG 1.1//EN" "http://www.w3.org/Graphics/SVG/1.1/DTD/svg11.dtd">
<!-- Creator: CorelDRAW 2017 -->
<svg xmlns="http://www.w3.org/2000/svg" xml:space="preserve" version="1.1" style="shape-rendering:geometricPrecision; text-rendering:geometricPrecision; image-rendering:optimizeQuality; fill-rule:evenodd; clip-rule:evenodd"
viewBox="0 0 2595.07 1198.44"
 xmlns:xlink="http://www.w3.org/1999/xlink">
 <defs>
  <style type="text/css">
   <![CDATA[
    .fil3 {fill:#FEFEFE}
    .fil0 {fill:black}
    .fil1 {fill:#FEFEFE;fill-rule:nonzero}
    .fil2 {fill:#FEFEFE;fill-rule:nonzero}
   ]]>
  </style>
 </defs>
 <g id="Слой_x0020_1">
  <metadata id="CorelCorpID_0Corel-Layer"/>
  <path class="fil0" d="M203.77 239.04c133.63,0 267.27,0 400.9,0 0,-14.19 0,-28.38 0,-42.57 291.85,21.1 457.91,-192.72 696.92,-192.72 239.02,0 384.82,225.72 684.4,192.72 0,14.19 0,28.38 0,42.57l389 0 0 80.47c119.47,0 216.33,117.73 216.33,262.97 0,145.24 -96.86,262.97 -216.33,262.97l0 69.46 -389 0 0 79.39 -684.4 200.25 -696.92 -200.25 0 -79.39 -400.9 0 0 -72.19c-111.86,-10.14 -200.02,-123.66 -200.02,-262.23 0,-138.56 88.16,-252.09 200.02,-262.23l0 -79.23z"/>
  <path class="fil1" d="M203.77 235.29l397.15 0 0 -42.85 4.01 0.29c157.36,11.37 278.23,-46.11 393.82,-101.09 98.22,-46.71 192.67,-91.64 302.83,-91.64 107.85,0 196.57,45.43 288.77,92.65 112.78,57.75 230.84,118.21 395.22,100.1l4.16 -0.46 0 43 388.99 0 0 80.51c59.42,1.2 113.08,30.92 152.11,78.35 39.68,48.23 64.22,114.82 64.22,188.32 0,73.5 -24.55,140.09 -64.22,188.32 -39.02,47.44 -92.68,77.16 -152.11,78.36l0 69.5 -388.99 0 0 78.43c-229.31,67.24 -458.63,134.95 -688.17,201.35 -233.67,-66.64 -467.13,-134.19 -700.66,-201.32l0 -78.46 -400.9 0 0 -72.56c-55.84,-6.11 -105.65,-37.47 -141.58,-84.59 -36.26,-47.54 -58.44,-111.16 -58.44,-181.02 0,-69.86 22.18,-133.48 58.44,-181.02 35.94,-47.11 85.74,-78.48 141.58,-84.59l0 -79.6 3.75 0zm400.9 7.5l-397.15 0 0 78.89 -3.41 0.32c-55.04,4.98 -104.29,35.58 -139.72,82.03 -35.3,46.28 -56.89,108.29 -56.89,176.48 0,68.19 21.59,130.2 56.89,176.48 35.43,46.45 84.68,77.04 139.72,82.03l3.41 0.31 0 71.85 400.9 0 0 80.32 693.18 199.17 680.64 -199.15 0 -80.34 389 0 0 -69.46 3.75 0c58.56,0 111.63,-28.91 150.08,-75.65 38.61,-46.94 62.5,-111.84 62.5,-183.57 0,-71.73 -23.89,-136.64 -62.5,-183.57 -38.45,-46.74 -91.52,-75.65 -150.08,-75.65l-3.75 0 0 -80.47 -389 0 0 -42.18c-164.41,16.9 -282.47,-43.54 -395.28,-101.31 -91.35,-46.78 -179.26,-91.8 -285.37,-91.8 -108.51,0 -202.21,44.57 -299.64,90.91 -115.48,54.93 -236.2,112.32 -393.54,102.06l0 42.32 -3.75 0z"/>
  <path class="fil1" d="M254.15 274.07l403.38 0 0 -39.34 10.04 0.73c140.96,10.19 249.79,-44.7 353.83,-97.18 90.05,-45.42 176.6,-89.08 278.25,-89.08 99.73,0 181.11,44.11 265.75,89.98 101.39,54.95 207.6,112.51 354.61,96.32l10.4 -1.15 0 39.73 409.42 0 0 62.07c54.93,2.93 108.6,31.41 148.57,75.76 40.16,44.57 66.6,105.24 66.6,172.11 0,66.87 -26.43,127.55 -66.6,172.12 -39.96,44.35 -93.63,72.83 -148.57,75.76l0 52.06 -409.42 0 0 80.96c-210.25,61.55 -420.5,123.1 -630.78,184.56l-642.11 -184.5 0 -81.01 -412.75 0 0 -55.34c-51.18,-7.17 -99.2,-36.73 -134.49,-80.3 -35.6,-43.96 -58.36,-102.23 -58.36,-166.1 0,-63.88 22.76,-122.15 58.36,-166.1 35.28,-43.56 83.3,-73.12 134.49,-80.3l0 -61.75 9.38 0zm412.75 18.75l-403.37 0 0 59.84 -8.54 0.78c-49.21,4.46 -96.03,32.29 -130.2,74.47 -33.01,40.76 -54.11,94.89 -54.11,154.32 0,59.43 21.1,113.55 54.11,154.31 34.17,42.18 80.99,70.02 130.2,74.47l8.54 0.77 0 53.43 412.75 0 0 85.66 623.4 179.12 611.99 -179.06 0 -85.72 409.42 0 0 -51.81 9.38 0c52.77,0 105.26,-26.76 144.04,-69.8 37.25,-41.33 61.76,-97.59 61.76,-159.58 0,-61.99 -24.52,-118.26 -61.76,-159.58 -38.78,-43.03 -91.27,-69.79 -144.04,-69.79l-9.38 0 0 -61.81 -409.42 0 0 -37.7c-147.38,13.11 -253.62,-44.45 -355.13,-99.46 -82.5,-44.71 -161.83,-87.7 -256.89,-87.7 -97.29,0 -181.86,42.65 -269.83,87.03 -103.86,52.39 -212.4,107.11 -353.54,99.76l0 38.08 -9.38 0z"/>
  <path class="fil1" d="M1010.84 227.78l31.46 -3.08 0.27 2.7 -1.55 0.15c-2.21,0.21 -3.81,0.86 -4.82,1.92 -1.01,1.06 -1.44,2.31 -1.31,3.74 0.19,1.9 1.28,4.47 3.21,7.69l19.76 32.46 11.32 -38.76c0.63,-2.09 0.85,-4.13 0.67,-6.08 -0.09,-0.88 -0.33,-1.54 -0.72,-1.93 -0.43,-0.51 -1.1,-0.87 -1.95,-1.12 -0.86,-0.24 -2.36,-0.25 -4.46,-0.05l-0.26 -2.7 21.82 -2.13 0.27 2.7c-1.78,0.38 -3.15,0.88 -4.07,1.58 -0.92,0.68 -1.89,1.89 -2.91,3.6 -0.39,0.72 -1.03,2.68 -1.95,5.87l-20.73 69.88c-2.02,6.77 -4.99,12.01 -8.97,15.77 -3.96,3.75 -7.92,5.8 -11.91,6.19 -2.88,0.28 -5.34,-0.32 -7.35,-1.81 -2.04,-1.46 -3.16,-3.28 -3.36,-5.43 -0.2,-2.05 0.31,-3.78 1.54,-5.13 1.23,-1.39 3.02,-2.2 5.38,-2.43 1.63,-0.16 3.88,0.13 6.76,0.88 2.04,0.48 3.31,0.72 3.78,0.67 1.48,-0.15 3,-1.06 4.61,-2.73 1.59,-1.65 3.05,-4.72 4.41,-9.2l3.56 -12.23 -29.16 -48.25c-0.9,-1.45 -2.24,-3.24 -4.09,-5.36 -1.39,-1.58 -2.51,-2.66 -3.34,-3.16 -1.2,-0.69 -3.07,-1.19 -5.65,-1.54l-0.26 -2.7zm139.02 -16.41l60.14 -2.76 0.12 2.71c-3.34,0.16 -5.56,0.59 -6.63,1.31 -1.07,0.72 -1.9,1.58 -2.5,2.61 -0.58,1.01 -0.77,4.25 -0.51,9.67l1.64 35.87c0.24,5.2 0.66,8.31 1.23,9.29 0.59,0.99 1.49,1.83 2.68,2.54 1.18,0.71 3.5,0.98 6.94,0.82l0.12 2.71 -34.97 1.6 -0.12 -2.71c3.77,-0.17 6.38,-0.48 7.82,-0.93 1.44,-0.46 2.53,-1.48 3.28,-3 0.77,-1.54 1.05,-4.81 0.82,-9.76l-2.15 -46.88 -22.46 1.03 1.31 28.47c0.49,10.75 0.36,18.34 -0.39,22.73 -0.75,4.39 -2.52,7.69 -5.24,9.91 -2.72,2.21 -5.91,3.42 -9.55,3.59 -6.28,0.28 -9.54,-2.19 -9.78,-7.39 -0.08,-1.78 0.36,-3.23 1.31,-4.41 0.96,-1.17 2.26,-1.81 3.87,-1.89 1.73,-0.08 3.35,0.57 4.9,1.94 2.01,1.79 3.5,2.66 4.47,2.62 2.24,-0.11 3.77,-2.04 4.59,-5.8 0.84,-3.79 1.03,-10.32 0.61,-19.64l-0.68 -14.95c-0.35,-7.66 -1.12,-12.32 -2.28,-13.94 -1.15,-1.61 -3.96,-2.48 -8.46,-2.64l-0.12 -2.71zm148.41 42.08l29.21 -34.04c-0.1,-3.77 -0.79,-6.37 -2.14,-7.85 -1.33,-1.46 -3.62,-2.22 -6.89,-2.28l0.01 -2.71 31.54 0.07 -0.01 2.71c-3.29,-0.01 -5.51,0.33 -6.65,0.99 -1.13,0.66 -2.02,1.48 -2.67,2.48 -0.64,0.98 -0.97,4.21 -0.98,9.64l-0.09 35.91c-0.01,5.2 0.25,8.33 0.78,9.33 0.54,1.01 1.4,1.9 2.56,2.67 1.14,0.76 3.44,1.14 6.89,1.15l-0.01 2.71 -32.74 -0.08 0.01 -2.71c4.07,0.01 6.82,-0.74 8.2,-2.22 1.39,-1.5 2.07,-5.13 2.09,-10.89l0.08 -31.99 -29.21 34.03c0.09,4.15 0.66,7.02 1.74,8.61 1.07,1.55 3.41,2.37 6.99,2.43l-0.01 2.71 -31.24 -0.08 0.01 -2.71c4.38,0.01 7.2,-0.79 8.43,-2.37 1.23,-1.6 1.84,-5.18 1.86,-10.74l0.09 -35.94c0.01,-5.28 -0.25,-8.41 -0.78,-9.35 -0.55,-0.99 -1.39,-1.84 -2.51,-2.6 -1.13,-0.77 -3.45,-1.16 -6.94,-1.17l0.01 -2.72 32.75 0.08 -0.01 2.71c-3.3,-0.01 -5.51,0.33 -6.65,0.99 -1.13,0.66 -2.02,1.48 -2.67,2.48 -0.64,0.98 -0.97,4.21 -0.98,9.63l-0.08 31.09zm183.25 26.18l-1.14 21.45 -2.56 -0.14c0.16,-5.75 -1.5,-10.41 -4.93,-13.94 -3.42,-3.54 -9.92,-5.58 -19.42,-6.09l-46.09 -2.46 0.15 -2.71c4.37,0.23 7.24,-0.43 8.54,-1.94 1.31,-1.52 2.11,-5.08 2.41,-10.63l1.91 -35.86c0.28,-5.27 0.18,-8.44 -0.29,-9.41 -0.48,-0.99 -1.3,-1.92 -2.38,-2.72 -1.08,-0.82 -3.38,-1.34 -6.87,-1.53l0.14 -2.71 32.7 1.75 -0.14 2.71c-3.29,-0.18 -5.53,0.05 -6.69,0.65 -1.15,0.59 -2.1,1.38 -2.79,2.34 -0.68,0.93 -1.18,4.17 -1.47,9.57l-2.03 38.11c-0.22,4.25 0.02,6.84 0.72,7.64 0.73,0.82 3.15,1.36 7.25,1.57l11.91 0.64c4.54,0.24 7.17,-0.04 7.85,-0.84 0.67,-0.8 1.14,-3.49 1.39,-8.06l2 -37.49c0.25,-4.7 0.16,-7.75 -0.24,-9.11 -0.41,-1.38 -1.35,-2.47 -2.73,-3.2 -1.39,-0.73 -3.59,-1.19 -6.58,-1.36l0.15 -2.71 32.7 1.74 -0.15 2.71c-3.29,-0.17 -5.52,0.06 -6.68,0.65 -1.15,0.59 -2.1,1.39 -2.79,2.35 -0.67,0.93 -1.18,4.17 -1.47,9.57l-1.85 34.71c-0.33,6.32 0.05,10.28 1.08,11.8 1.05,1.52 3.84,2.52 8.4,2.96zm97.39 5.87c-7.37,4.72 -12,7.44 -13.84,8.09 -2.73,0.98 -5.61,1.35 -8.58,1.1 -4.64,-0.41 -8.36,-2.38 -11.07,-5.82 -2.7,-3.45 -3.83,-7.78 -3.38,-12.96 0.28,-3.26 1.31,-6.07 2.97,-8.32 2.31,-3.13 6.08,-6 11.3,-8.48 5.23,-2.48 13.81,-5.33 25.74,-8.5l0.24 -2.63c0.59,-6.69 -0.05,-11.38 -1.94,-14.06 -1.89,-2.66 -4.88,-4.22 -8.93,-4.57 -3.04,-0.26 -5.59,0.37 -7.55,1.84 -1.98,1.49 -3.19,3.33 -3.29,5.47l-0.23 4.27c-0.11,2.23 -0.93,3.96 -2.2,5.08 -1.26,1.12 -2.86,1.57 -4.7,1.42 -1.82,-0.15 -3.28,-0.93 -4.31,-2.31 -1.04,-1.38 -1.45,-3.2 -1.26,-5.39 0.36,-4.2 2.9,-7.91 7.51,-11.04 4.61,-3.14 10.86,-4.33 18.64,-3.65 5.97,0.53 10.79,2 14.43,4.33 2.73,1.75 4.67,4.34 5.75,7.69 0.69,2.14 0.75,6.53 0.17,12.99l-2.05 22.79c-0.57,6.36 -0.79,10.34 -0.68,11.78 0.11,1.46 0.44,2.49 0.94,3.01 0.51,0.52 1.17,0.85 1.89,0.9 0.78,0.06 1.52,-0.04 2.12,-0.32 1.08,-0.52 3.23,-2.15 6.44,-4.82l-0.37 4.11c-6.17,6.89 -11.78,10.08 -16.77,9.65 -2.39,-0.21 -4.28,-1.22 -5.54,-3 -1.27,-1.79 -1.74,-4.7 -1.44,-8.69zm0.43 -4.78l2.3 -25.58c-7.7,2.27 -12.68,3.93 -14.96,4.94 -4.07,1.8 -7.07,3.79 -8.95,5.99 -1.88,2.19 -2.96,4.7 -3.2,7.47 -0.3,3.52 0.5,6.53 2.4,9.05 1.89,2.5 4.25,3.9 7,4.14 3.72,0.32 8.87,-1.68 15.41,-6.01z"/>
  <path class="fil2" d="M310.6 586.83c15.97,4.01 27.22,8.89 33.67,14.59 9.27,8.11 13.91,18.65 13.91,31.6 0,13.63 -5.06,24.94 -15.21,33.88 -12.43,10.8 -30.51,16.18 -54.19,16.18l-85.12 0 0 -4.65c7.75,0 13.02,-0.78 15.76,-2.37 2.78,-1.55 4.72,-3.6 5.81,-6.11 1.14,-2.51 1.69,-8.71 1.69,-18.6l0 -117.9c0,-9.89 -0.54,-16.09 -1.69,-18.64 -1.09,-2.56 -3.07,-4.61 -5.86,-6.16 -2.82,-1.5 -8.04,-2.28 -15.71,-2.28l0 -4.65 80.31 0c19.22,0 32.78,1.87 40.79,5.56 8,3.69 14.28,9.21 18.92,16.55 4.59,7.34 6.91,15.18 6.91,23.44 0,8.76 -2.95,16.5 -8.85,23.34 -5.9,6.79 -16.27,12.22 -31.14,16.23zm-45 -3.6c11.79,0 20.52,-1.41 26.12,-4.28 5.6,-2.83 9.9,-6.84 12.9,-12.04 2.99,-5.15 4.51,-11.76 4.51,-19.79 0,-8.02 -1.47,-14.59 -4.42,-19.7 -2.95,-5.15 -7.17,-9.03 -12.69,-11.72 -5.48,-2.69 -14.28,-3.97 -26.42,-3.88l0 71.4zm0 10.4l0 58.08 0 6.7c0,4.79 1.09,8.44 3.33,10.85 2.24,2.46 5.52,3.69 9.9,3.69 6.48,0 12.42,-1.6 17.91,-4.74 5.48,-3.15 9.65,-7.7 12.56,-13.72 2.91,-5.97 4.39,-12.67 4.39,-20.02 0,-8.44 -1.65,-16 -4.89,-22.7 -3.29,-6.7 -8.09,-11.44 -14.5,-14.18 -6.4,-2.74 -15.97,-4.06 -28.69,-3.97z"/>
  <path id="1" class="fil2" d="M408.09 642.05c5.78,0 10.66,2.18 14.66,6.57 4,4.38 5.99,9.62 5.99,15.77 0,6.2 -2.02,11.44 -6.07,15.78 -4.05,4.33 -8.89,6.47 -14.58,6.47 -5.73,0 -10.57,-2.14 -14.58,-6.47 -4,-4.33 -5.98,-9.57 -5.98,-15.78 0,-6.15 1.98,-11.4 5.98,-15.77 4,-4.38 8.85,-6.57 14.58,-6.57z"/>
  <path id="2" class="fil2" d="M608.54 501.71l0 48.97 -4.3 0c-2.66,-11.31 -5.56,-19.42 -8.77,-24.34 -3.2,-4.97 -7.62,-8.89 -13.23,-11.81 -3.12,-1.6 -8.59,-2.42 -16.43,-2.42l-12.64 0 0 140.06c0,9.34 0.47,15.18 1.39,17.51 0.93,2.33 2.78,4.38 5.48,6.11 2.74,1.78 6.44,2.65 11.16,2.65l5.48 0 0 4.65 -87.23 0 0 -4.65 5.52 0c4.81,0 8.68,-0.96 11.63,-2.83 2.1,-1.28 3.79,-3.42 5.02,-6.48 0.88,-2.14 1.35,-7.79 1.35,-16.96l0 -140.06 -12.13 0c-11.21,0 -19.34,2.6 -24.44,7.75 -7.12,7.21 -11.59,17.46 -13.48,30.82l-4.81 0 0 -48.97 150.43 0z"/>
  <path id="3" class="fil2" d="M695.79 512.11l0 73.86 3.33 0c10.66,0 18.37,-3.6 23.18,-10.81 4.76,-7.21 7.84,-17.83 9.14,-31.87l4.81 0 0 94.92 -4.81 0c-0.97,-10.35 -3.07,-18.83 -6.23,-25.4 -3.2,-6.61 -6.87,-11.03 -11.08,-13.31 -4.21,-2.28 -10.33,-3.42 -18.33,-3.42l0 50.98c0,9.98 0.38,16.05 1.18,18.28 0.76,2.23 2.24,4.05 4.38,5.47 2.15,1.42 5.6,2.14 10.37,2.14l10.03 0c15.64,0 28.19,-3.92 37.63,-11.72 9.43,-7.79 16.22,-19.7 20.31,-35.74l4.59 0 -7.55 57.58 -144.65 0 0 -4.65 5.52 0c4.84,0 8.76,-0.96 11.71,-2.83 2.15,-1.28 3.79,-3.42 4.93,-6.48 0.89,-2.14 1.35,-7.79 1.35,-16.96l0 -119.54c0,-8.25 -0.21,-13.31 -0.63,-15.23 -0.8,-3.15 -2.32,-5.56 -4.55,-7.25 -3.12,-2.51 -7.37,-3.78 -12.81,-3.78l-5.52 0 0 -4.65 140.06 0 0 53.62 -4.81 0c-2.36,-13.13 -5.73,-22.52 -10.03,-28.22 -4.3,-5.7 -10.37,-9.89 -18.25,-12.58 -4.59,-1.6 -13.19,-2.42 -25.83,-2.42l-17.44 0z"/>
  <path id="4" class="fil2" d="M873.31 601.01l0 50.34c0,9.89 0.55,16.09 1.69,18.65 1.1,2.55 3.07,4.6 5.94,6.15 2.83,1.5 8.05,2.28 15.64,2.28l0 4.65 -85.2 0 0 -4.65c7.75,0 13.02,-0.78 15.76,-2.37 2.78,-1.55 4.72,-3.6 5.82,-6.11 1.13,-2.51 1.68,-8.71 1.68,-18.6l0 -117.9c0,-9.89 -0.55,-16.09 -1.68,-18.64 -1.1,-2.56 -3.04,-4.61 -5.86,-6.16 -2.83,-1.5 -8.05,-2.28 -15.72,-2.28l0 -4.65 73.06 0c24.06,0 41.34,4.65 51.78,13.91 10.5,9.3 15.72,20.88 15.72,34.79 0,11.81 -3.37,21.89 -10.15,30.27 -6.74,8.39 -16.06,14.09 -27.94,17.14 -7.96,2.14 -21.49,3.19 -40.54,3.19zm0 -88.9l0 78.51c2.74,0.18 4.81,0.27 6.19,0.27 10.08,0 17.87,-3.24 23.3,-9.72 5.44,-6.47 8.18,-16.5 8.18,-30.09 0,-13.5 -2.74,-23.34 -8.18,-29.59 -5.43,-6.24 -13.61,-9.39 -24.4,-9.39l-5.1 0z"/>
  <path id="5" class="fil2" d="M1037.63 512.11l0 73.86 3.33 0c10.66,0 18.37,-3.6 23.18,-10.81 4.76,-7.21 7.84,-17.83 9.14,-31.87l4.81 0 0 94.92 -4.81 0c-0.97,-10.35 -3.07,-18.83 -6.23,-25.4 -3.2,-6.61 -6.87,-11.03 -11.08,-13.31 -4.21,-2.28 -10.33,-3.42 -18.33,-3.42l0 50.98c0,9.98 0.38,16.05 1.18,18.28 0.76,2.23 2.24,4.05 4.39,5.47 2.15,1.42 5.6,2.14 10.37,2.14l10.03 0c15.63,0 28.19,-3.92 37.63,-11.72 9.44,-7.79 16.22,-19.7 20.31,-35.74l4.59 0 -7.55 57.58 -144.65 0 0 -4.65 5.51 0c4.85,0 8.77,-0.96 11.71,-2.83 2.15,-1.28 3.8,-3.42 4.93,-6.48 0.89,-2.14 1.35,-7.79 1.35,-16.96l0 -119.54c0,-8.25 -0.21,-13.31 -0.63,-15.23 -0.8,-3.15 -2.32,-5.56 -4.55,-7.25 -3.12,-2.51 -7.37,-3.78 -12.82,-3.78l-5.51 0 0 -4.65 140.06 0 0 53.62 -4.8 0c-2.36,-13.13 -5.73,-22.52 -10.03,-28.22 -4.3,-5.7 -10.37,-9.89 -18.25,-12.58 -4.59,-1.6 -13.19,-2.42 -25.83,-2.42l-17.45 0z"/>
  <path id="6" class="fil2" d="M1157.51 506.37l0 -4.65 76.1 0 0 4.65 -2.95 0c-6.07,0 -10.07,1.69 -12.05,5.02 -1.98,3.33 -2.95,10.39 -2.95,21.25l0 122.55c0,7.61 0.84,12.22 2.53,13.77 1.69,1.6 6.32,2.37 13.82,2.37l15.64 0c9.82,0 15.29,-0.86 16.39,-2.64 1.14,-1.73 1.68,-6.25 1.68,-13.5l0 -122.55c0,-10.85 -0.97,-17.92 -2.95,-21.25 -1.98,-3.33 -6.03,-5.02 -12.18,-5.02l-2.82 0 0 -4.65 76.1 0 0 4.65 -2.96 0c-6.07,0 -10.07,1.64 -12.05,4.92 -1.98,3.33 -2.95,10.39 -2.95,21.34l0 119.54c0,8.89 0.43,14.31 1.31,16.23 0.85,1.96 5.9,2.92 15.05,2.92l19.72 0c7.67,0 11.93,-1.09 12.76,-3.24 0.8,-2.19 1.23,-6.84 1.23,-14l0 -121.45c0,-10.67 -0.98,-17.69 -2.96,-21.11 -1.98,-3.41 -6.03,-5.15 -12.17,-5.15l-2.83 0 0 -4.65 76.1 0 0 4.65 -2.83 0c-6.15,0 -10.2,1.69 -12.18,5.06 -1.98,3.41 -2.95,10.44 -2.95,21.2l0 119.54c0,10.35 0.89,17.32 2.62,20.88 1.72,3.6 5.9,5.38 12.55,5.38l2.87 0 0 4.65 -256.7 0 0 -4.65 2.83 0c7.45,0 11.84,-2.19 13.15,-6.52 1.31,-4.38 1.98,-11.49 1.98,-21.38l0 -117.9c0,-10.95 -1.01,-18.01 -2.99,-21.34 -2.02,-3.28 -6.07,-4.92 -12.13,-4.92l-2.83 0z"/>
  <path id="7" class="fil2" d="M1438.98 501.71l87.23 0 0 4.65 -2.87 0c-8.22,0 -13.73,1.64 -16.52,4.97 -2.74,3.28 -4.13,9.57 -4.13,18.83l0 54.17c11.55,0 19.05,-0.41 22.5,-1.28 3.46,-0.82 6.66,-3.28 9.65,-7.34 2.95,-4.06 5.81,-11.85 8.56,-23.44 3.2,-13.5 6.32,-23.66 9.31,-30.41 3,-6.79 7.16,-12.17 12.47,-16.14 5.27,-3.97 11.89,-5.92 19.85,-5.92 7.88,0 14.24,2.41 19,7.29 4.76,4.88 7.12,10.85 7.12,18.01 0,5.52 -1.6,9.89 -4.81,13.08 -3.2,3.24 -7.16,4.83 -11.92,4.83 -9.35,0 -14.36,-5.88 -15.13,-17.69 -0.34,-5.88 -2.23,-8.85 -5.69,-8.85 -3.71,0 -6.87,2.28 -9.53,6.79 -2.61,4.56 -5.47,12.72 -8.51,24.44 -2.95,11.49 -5.52,20.11 -7.67,25.85 -2.1,5.75 -5.18,10.53 -9.1,14.45 5.26,1.41 9.31,3.28 12.14,5.61 2.82,2.33 5.39,5.34 7.67,9.03 2.31,3.69 7.25,13.08 14.83,28.22l17.03 33.06c2.61,4.92 5.77,8.57 9.44,10.94 3.66,2.37 8.09,3.56 13.27,3.56l0 4.65 -56.16 0 -34.47 -69.44c-3.92,-7.93 -6.82,-12.72 -8.64,-14.36 -1.85,-1.69 -5.56,-2.65 -11.21,-2.92l0 61.55c0,8.8 1.69,14.45 5.02,16.87 3.33,2.42 9.52,3.65 18.5,3.65l0 4.65 -87.23 0 0 -4.65c9.65,-0.18 15.97,-1.73 19,-4.65 2.99,-2.97 4.51,-9.21 4.51,-18.88l0 -121.46c0,-10.67 -1.18,-17.87 -3.58,-21.57 -2.41,-3.69 -7.84,-5.51 -16.36,-5.51l-3.58 0 0 -4.65z"/>
  <path id="8" class="fil2" d="M1717.87 499.53c26.67,-1.05 48.37,7.34 65.06,25.21 16.69,17.92 25.03,40.25 25.03,67.16 0,22.93 -6.23,43.13 -18.67,60.59 -16.47,23.12 -39.74,34.7 -69.82,34.7 -30.17,0 -53.47,-11.04 -69.94,-33.1 -13.02,-17.46 -19.55,-38.12 -19.55,-62.05 0,-26.9 8.47,-49.28 25.41,-67.21 16.94,-17.96 37.76,-26.35 62.49,-25.3zm1.47 8.48c-15.38,0 -27.05,8.44 -35.1,25.35 -6.52,13.86 -9.77,33.79 -9.77,59.77 0,30.87 5.06,53.71 15.13,68.48 7.03,10.3 16.85,15.46 29.5,15.46 8.51,0 15.63,-2.24 21.32,-6.66 7.25,-5.7 12.93,-14.82 16.98,-27.31 4.04,-12.49 6.07,-28.82 6.07,-48.87 0,-23.94 -2.07,-41.86 -6.19,-53.71 -4.13,-11.9 -9.4,-20.29 -15.8,-25.17 -6.41,-4.88 -13.78,-7.34 -22.12,-7.34z"/>
  <path id="9" class="fil2" d="M1938.63 586.83c15.97,4.01 27.22,8.89 33.66,14.59 9.27,8.11 13.91,18.65 13.91,31.6 0,13.63 -5.06,24.94 -15.21,33.88 -12.43,10.8 -30.5,16.18 -54.19,16.18l-85.12 0 0 -4.65c7.75,0 13.02,-0.78 15.76,-2.37 2.78,-1.55 4.72,-3.6 5.81,-6.11 1.14,-2.51 1.69,-8.71 1.69,-18.6l0 -117.9c0,-9.89 -0.54,-16.09 -1.69,-18.64 -1.09,-2.56 -3.07,-4.61 -5.85,-6.16 -2.83,-1.5 -8.04,-2.28 -15.72,-2.28l0 -4.65 80.31 0c19.22,0 32.78,1.87 40.79,5.56 8,3.69 14.28,9.21 18.92,16.55 4.59,7.34 6.91,15.18 6.91,23.44 0,8.76 -2.95,16.5 -8.85,23.34 -5.9,6.79 -16.26,12.22 -31.13,16.23zm-45.01 -3.6c11.79,0 20.52,-1.41 26.12,-4.28 5.6,-2.83 9.9,-6.84 12.9,-12.04 2.99,-5.15 4.51,-11.76 4.51,-19.79 0,-8.02 -1.47,-14.59 -4.42,-19.7 -2.95,-5.15 -7.17,-9.03 -12.69,-11.72 -5.48,-2.69 -14.28,-3.97 -26.42,-3.88l0 71.4zm0 10.4l0 58.08 0 6.7c0,4.79 1.09,8.44 3.33,10.85 2.24,2.46 5.52,3.69 9.9,3.69 6.49,0 12.43,-1.6 17.91,-4.74 5.48,-3.15 9.65,-7.7 12.56,-13.72 2.91,-5.97 4.38,-12.67 4.38,-20.02 0,-8.44 -1.65,-16 -4.89,-22.7 -3.29,-6.7 -8.09,-11.44 -14.5,-14.18 -6.4,-2.74 -15.97,-4.06 -28.69,-3.97z"/>
  <path id="10" class="fil2" d="M2101.94 499.53c26.68,-1.05 48.38,7.34 65.06,25.21 16.69,17.92 25.03,40.25 25.03,67.16 0,22.93 -6.23,43.13 -18.66,60.59 -16.47,23.12 -39.74,34.7 -69.83,34.7 -30.17,0 -53.47,-11.04 -69.94,-33.1 -13.02,-17.46 -19.55,-38.12 -19.55,-62.05 0,-26.9 8.47,-49.28 25.41,-67.21 16.94,-17.96 37.75,-26.35 62.49,-25.3zm1.47 8.48c-15.38,0 -27.05,8.44 -35.1,25.35 -6.53,13.86 -9.77,33.79 -9.77,59.77 0,30.87 5.05,53.71 15.12,68.48 7.04,10.3 16.86,15.46 29.5,15.46 8.51,0 15.63,-2.24 21.32,-6.66 7.25,-5.7 12.94,-14.82 16.98,-27.31 4.04,-12.49 6.07,-28.82 6.07,-48.87 0,-23.94 -2.07,-41.86 -6.2,-53.71 -4.13,-11.9 -9.4,-20.29 -15.8,-25.17 -6.4,-4.88 -13.78,-7.34 -22.12,-7.34z"/>
  <path id="11" class="fil2" d="M2308.32 484.48c-16.85,0 -29.12,-2.42 -36.66,-7.3 -7.59,-4.88 -11.38,-10.85 -11.38,-18.01 0,-3.65 1.18,-6.7 3.58,-9.12 2.36,-2.42 5.27,-3.6 8.72,-3.6 6.66,0 11.72,4.7 15.25,14.09 1.98,5.11 4.51,8.66 7.55,10.72 3.03,2.05 7.2,3.1 12.42,3.1 6.15,0 10.7,-1.05 13.61,-3.1 2.91,-2.05 5.65,-5.88 8.13,-11.44 3.84,-8.89 8.89,-13.36 15.25,-13.36 3.41,0 6.32,1.23 8.72,3.65 2.4,2.41 3.58,5.7 3.58,9.94 0,6.97 -3.92,12.81 -11.71,17.46 -7.84,4.65 -20.19,6.98 -37.08,6.98zm30.09 46.96c-0.08,-9.8 -1.18,-16.46 -3.24,-19.92 -2.11,-3.41 -7.34,-5.15 -15.72,-5.15l-5.56 0 0 -4.65 89.75 0 0 4.65 -5.81 0c-7.75,0 -12.94,1.64 -15.42,4.88 -2.54,3.24 -3.8,10.35 -3.8,21.38l0 119.54c0,11.17 1.26,18.33 3.84,21.52 2.57,3.15 7.71,4.74 15.38,4.74l5.81 0 0 4.65 -89.75 0 0 -4.65 5.56 0c7.8,0 12.89,-1.69 15.34,-5.02 2.4,-3.37 3.62,-10.44 3.62,-21.25l0 -98.85 -59.16 100.67c0,8.7 0.97,14.91 2.95,18.73 1.98,3.79 7.33,5.7 16.01,5.7l5.81 0 0 4.65 -89.75 0 0 -4.65 5.56 0c7.84,0 13.02,-1.69 15.51,-5.02 2.48,-3.37 3.7,-10.44 3.7,-21.25l0 -119.54c0,-11.04 -1.01,-18.15 -2.99,-21.38 -1.98,-3.24 -7.37,-4.88 -16.22,-4.88l-5.56 0 0 -4.65 89.75 0 0 4.65 -5.81 0c-7.54,0 -12.6,1.78 -15.13,5.33 -2.57,3.56 -3.84,10.53 -3.84,20.93l0 99.53 59.16 -100.72z"/>
  <path class="fil2" d="M1245.58 1033.01l-162.35 0 0 -4.88c50,-64.09 80.28,-107.22 90.83,-129.38 10.56,-22.16 15.83,-43.81 15.83,-64.92 0,-15.4 -4.45,-28.25 -13.26,-38.39 -8.82,-10.22 -19.58,-15.33 -32.36,-15.33 -20.9,0 -37.08,11.34 -48.61,33.96l-7.57 -2.86c7.37,-28.25 18.48,-49.14 33.4,-62.66 14.93,-13.52 32.15,-20.28 51.67,-20.28 13.96,0 26.73,3.53 38.26,10.59 11.53,6.99 20.56,16.68 27.01,28.93 6.53,12.25 9.79,23.74 9.79,34.49 0,19.46 -5,39.29 -15,59.43 -13.68,27.12 -43.61,64.99 -89.65,113.6l59.58 0c14.64,0 24.16,-0.68 28.54,-1.95 4.44,-1.36 8.05,-3.53 10.9,-6.69 2.85,-3.16 6.53,-9.7 11.18,-19.76l7.36 0 -15.55 86.1z"/>
  <path id="1" class="fil2" d="M1492.85 728.26l0 6.31c-24.58,6.76 -44.3,15.4 -59.16,26.07 -14.86,10.59 -26.6,23.52 -35.21,38.69 -8.61,15.1 -15.28,33.96 -20.07,56.35 5.97,-4.36 10.97,-7.22 14.93,-8.57 8.82,-2.93 17.7,-4.35 26.66,-4.35 20.7,0 37.92,8.11 51.74,24.34 13.82,16.23 20.69,38.39 20.69,66.42 0,19.69 -3.75,37.79 -11.18,54.25 -7.5,16.45 -18.13,29.15 -31.81,38.09 -13.75,8.94 -28.39,13.45 -44.02,13.45 -17.02,0 -32.71,-5.04 -47.15,-15.1 -14.38,-10.07 -25.63,-24.8 -33.68,-44.11 -8.13,-19.39 -12.15,-40.5 -12.15,-63.26 0,-33.44 7.43,-64.61 22.29,-93.47 14.86,-28.93 35.97,-51.92 63.33,-68.97 27.36,-17.13 58.95,-25.85 94.79,-26.15zm-117.08 145.24c-1.11,20.36 -1.67,35.24 -1.67,44.63 0,20.37 1.8,40.05 5.42,59.06 3.61,19.01 8.61,32.31 14.86,39.97 4.51,5.48 9.86,8.19 15.97,8.19 6.24,0 11.88,-3.91 16.8,-11.8 4.93,-7.89 7.36,-23.97 7.36,-48.08 0,-40.65 -4.58,-68.75 -13.75,-84.23 -5.84,-9.99 -13.75,-15.03 -23.68,-15.03 -5.48,0 -12.57,2.4 -21.32,7.29z"/>
  <circle class="fil3" cx="975.07" cy="380.48" r="20.02"/>
  <circle class="fil3" cx="1623.05" cy="380.48" r="20.02"/>
  <polygon class="fil2" points="975.07,376.74 1623.05,376.74 1623.05,384.24 975.07,384.24 "/>
 </g>
</svg>
