<?xml version="1.0" encoding="UTF-8"?>
<!DOCTYPE svg PUBLIC "-//W3C//DTD SVG 1.1//EN" "http://www.w3.org/Graphics/SVG/1.1/DTD/svg11.dtd">
<!-- Creator: CorelDRAW 2017 -->
<svg xmlns="http://www.w3.org/2000/svg" xml:space="preserve" version="1.1" style="shape-rendering:geometricPrecision; text-rendering:geometricPrecision; image-rendering:optimizeQuality; fill-rule:evenodd; clip-rule:evenodd"
viewBox="0 0 3417.25 1516.06"
 xmlns:xlink="http://www.w3.org/1999/xlink">
 <defs>
  <style type="text/css">
   <![CDATA[
    .str1 {stroke:#FEFEFE;stroke-width:29.94;stroke-miterlimit:22.9256}
    .str0 {stroke:#FEFEFE;stroke-width:11.98;stroke-miterlimit:22.9256}
    .fil1 {fill:none}
    .fil0 {fill:black}
    .fil2 {fill:#FEFEFE;fill-rule:nonzero}
   ]]>
  </style>
 </defs>
 <g id="Слой_x0020_1">
  <metadata id="CorelCorpID_0Corel-Layer"/>
  <path class="fil0 str0" d="M70.49 205.55l736.27 0 0 -45.75c0,-84.59 69.21,-153.81 153.81,-153.81l1490.85 0c84.59,0 153.81,69.21 153.81,153.81l0 45.75 741.52 0c35.48,0 64.5,29.03 64.5,64.5l0 579.88c0,35.47 -29.02,64.5 -64.5,64.5l-737.2 0c-99.99,342.05 -464.8,595.64 -899.62,595.64 -434.82,0 -799.64,-253.59 -899.62,-595.64l-739.83 0c-35.48,0 -64.5,-29.03 -64.5,-64.5l0 -579.88c0,-35.47 29.02,-64.5 64.5,-64.5z"/>
  <path class="fil0 str1" d="M189.83 252.81l670.21 0 0 -50.41c0,-87.33 71.45,-158.77 158.77,-158.77l1372.52 0c87.33,0 158.77,71.44 158.77,158.77l0 50.41 666.81 0 133.96 133.96 0 346.44 -133.96 133.96 -661.58 0c-71.67,329.93 -424.13,580.51 -848.27,580.51 -424.14,0 -776.6,-250.57 -848.27,-580.51l-668.96 0 -133.96 -133.96 0 -346.44 133.96 -133.96z"/>
  <line class="fil1 str1" x1="860.04" y1="252.81" x2="2592.11" y2= "252.81" />
  <path class="fil2" d="M1282.66 96.53l46.17 0 0 3.97 -2.28 0c-3.23,0 -5.65,0.69 -7.27,2.09 -1.62,1.4 -2.43,3.16 -2.43,5.25 0,2.79 1.21,6.69 3.56,11.65l24.1 49.99 21.96 -54.73c1.22,-2.93 1.84,-5.88 1.84,-8.74 0,-1.29 -0.26,-2.28 -0.77,-2.9 -0.55,-0.81 -1.47,-1.43 -2.68,-1.91 -1.22,-0.48 -3.38,-0.69 -6.47,-0.69l0 -3.97 32.03 0 0 3.97c-2.64,0.29 -4.7,0.84 -6.13,1.72 -1.43,0.84 -3.01,2.46 -4.74,4.81 -0.66,0.99 -1.87,3.75 -3.67,8.26l-40.08 98.63c-3.89,9.55 -8.97,16.75 -15.28,21.63 -6.28,4.89 -12.34,7.31 -18.18,7.31 -4.22,0 -7.71,-1.21 -10.43,-3.67 -2.75,-2.43 -4.11,-5.22 -4.11,-8.38 0,-3.01 0.99,-5.44 2.98,-7.23 1.98,-1.84 4.7,-2.75 8.16,-2.75 2.39,0 5.62,0.74 9.7,2.24 2.9,0.99 4.7,1.51 5.4,1.51 2.17,0 4.52,-1.1 7.09,-3.31 2.53,-2.17 5.1,-6.43 7.71,-12.75l6.91 -17.27 -35.52 -74.27c-1.1,-2.25 -2.8,-5.04 -5.18,-8.38 -1.8,-2.5 -3.27,-4.22 -4.41,-5.07 -1.65,-1.18 -4.3,-2.17 -7.97,-3.05l0 -3.97z"/>
  <path id="1" class="fil2" d="M1478.42 96.53l87.94 0 0 3.97c-4.89,0 -8.16,0.47 -9.77,1.47 -1.62,0.95 -2.86,2.17 -3.82,3.64 -0.92,1.43 -1.4,6.13 -1.4,14.07l0 52.46c0,7.61 0.41,12.16 1.18,13.62 0.81,1.47 2.05,2.75 3.74,3.9 1.69,1.1 5.04,1.65 10.07,1.65l0 3.96 -51.13 0 0 -3.96c5.51,0 9.33,-0.29 11.46,-0.84 2.13,-0.59 3.78,-1.99 4.99,-4.16 1.21,-2.2 1.84,-6.94 1.84,-14.18l0 -68.54 -32.84 0 0 41.62c0,15.72 -0.69,26.78 -2.09,33.13 -1.4,6.36 -4.19,11.06 -8.31,14.11 -4.11,3.05 -8.85,4.59 -14.18,4.59 -9.19,0 -13.77,-3.81 -13.77,-11.42 0,-2.61 0.73,-4.7 2.2,-6.35 1.47,-1.65 3.41,-2.5 5.77,-2.5 2.53,0 4.85,1.07 7.01,3.16 2.83,2.75 4.92,4.11 6.35,4.11 3.27,0 5.62,-2.72 7.09,-8.15 1.47,-5.47 2.2,-14.99 2.2,-28.62l0 -21.86c0,-11.21 -0.81,-18.03 -2.39,-20.49 -1.58,-2.43 -5.62,-3.9 -12.16,-4.41l0 -3.97z"/>
  <path id="2" class="fil2" d="M1687.55 165.07l42.54 -49.81c-0.15,-5.51 -1.18,-9.29 -3.16,-11.46 -1.95,-2.13 -5.29,-3.23 -10.06,-3.31l0 -3.97 46.06 0 0 3.97c-4.82,0 -8.04,0.47 -9.7,1.47 -1.65,0.95 -2.94,2.17 -3.89,3.64 -0.92,1.43 -1.4,6.13 -1.4,14.07l0 52.46c0,7.61 0.41,12.16 1.18,13.62 0.81,1.47 2.05,2.75 3.74,3.9 1.69,1.1 5.04,1.65 10.07,1.65l0 3.96 -47.83 0 0 -3.96c5.95,0 9.95,-1.1 11.98,-3.27 2.02,-2.2 3.01,-7.5 3.01,-15.91l0 -46.73 -42.54 49.81c0.15,6.06 0.99,10.25 2.57,12.56 1.58,2.28 4.99,3.45 10.21,3.53l0 3.96 -45.62 0 0 -3.96c6.39,0 10.5,-1.18 12.3,-3.49 1.8,-2.35 2.68,-7.57 2.68,-15.69l0 -52.49c0,-7.71 -0.4,-12.27 -1.17,-13.67 -0.81,-1.43 -2.02,-2.68 -3.68,-3.78 -1.65,-1.14 -5.03,-1.69 -10.13,-1.69l0 -3.97 47.82 0 0 3.97c-4.81,0 -8.04,0.47 -9.7,1.47 -1.65,0.95 -2.93,2.17 -3.89,3.64 -0.92,1.43 -1.4,6.13 -1.4,14.07l0 45.4z"/>
  <path id="3" class="fil2" d="M1959.75 191.23l0 31.37 -3.75 0c-0.22,-8.41 -2.98,-15.06 -8.26,-19.94 -5.29,-4.92 -14.88,-7.38 -28.79,-7.38l-67.41 0 0 -3.96c6.39,0 10.5,-1.18 12.3,-3.49 1.8,-2.35 2.68,-7.57 2.68,-15.69l0 -52.46c0,-7.71 -0.4,-12.3 -1.17,-13.7 -0.81,-1.4 -2.02,-2.68 -3.68,-3.78 -1.65,-1.14 -5.03,-1.69 -10.13,-1.69l0 -3.97 47.82 0 0 3.97c-4.81,0 -8.04,0.47 -9.7,1.47 -1.65,0.95 -2.93,2.17 -3.89,3.64 -0.92,1.43 -1.4,6.13 -1.4,14.07l0 55.73c0,6.24 0.55,9.95 1.65,11.09 1.14,1.14 4.7,1.72 10.69,1.72l17.41 0c6.65,0 10.47,-0.62 11.39,-1.83 0.92,-1.22 1.4,-5.18 1.4,-11.86l0 -54.85c0,-6.87 -0.37,-11.28 -1.07,-13.26 -0.74,-1.98 -2.13,-3.49 -4.23,-4.44 -2.09,-0.99 -5.32,-1.47 -9.7,-1.47l0 -3.97 47.83 0 0 3.97c-4.82,0 -8.04,0.47 -9.7,1.47 -1.65,0.95 -2.94,2.17 -3.89,3.64 -0.92,1.43 -1.4,6.13 -1.4,14.07l0 50.77c0,9.25 0.85,14.98 2.5,17.12 1.65,2.17 5.8,3.38 12.49,3.67z"/>
  <path id="4" class="fil2" d="M2106.09 180.94c-10.1,7.82 -16.45,12.38 -19.06,13.59 -3.86,1.8 -7.97,2.72 -12.34,2.72 -6.83,0 -12.45,-2.35 -16.86,-7.01 -4.41,-4.67 -6.61,-10.8 -6.61,-18.4 0,-4.82 1.07,-9 3.23,-12.49 2.93,-4.88 8.04,-9.47 15.31,-13.81 7.31,-4.29 19.4,-9.55 36.33,-15.72l0 -3.86c0,-9.81 -1.54,-16.53 -4.66,-20.2 -3.13,-3.64 -7.64,-5.47 -13.59,-5.47 -4.48,0 -8.08,1.21 -10.73,3.67 -2.72,2.43 -4.08,5.22 -4.08,8.38l0.22 6.24c0,3.31 -0.84,5.88 -2.53,7.68 -1.69,1.8 -3.93,2.68 -6.65,2.68 -2.68,0 -4.89,-0.92 -6.58,-2.79 -1.69,-1.87 -2.53,-4.44 -2.53,-7.68 0,-6.17 3.16,-11.86 9.47,-17.04 6.32,-5.18 15.21,-7.75 26.63,-7.75 8.78,0 15.94,1.47 21.56,4.41 4.23,2.2 7.35,5.69 9.37,10.43 1.29,3.05 1.95,9.37 1.95,18.88l0 33.43c0,9.37 0.19,15.13 0.55,17.22 0.37,2.13 0.96,3.53 1.77,4.26 0.84,0.69 1.8,1.07 2.86,1.07 1.17,0 2.17,-0.26 3.05,-0.74 1.51,-0.95 4.41,-3.56 8.74,-7.86l0 6.02c-8.08,10.84 -15.79,16.24 -23.14,16.24 -3.53,0 -6.35,-1.21 -8.45,-3.64 -2.09,-2.46 -3.16,-6.61 -3.23,-12.45zm0 -7.02l0 -37.5c-10.91,4.3 -17.93,7.35 -21.12,9.15 -5.7,3.16 -9.77,6.43 -12.24,9.88 -2.46,3.46 -3.67,7.2 -3.67,11.28 0,5.18 1.55,9.44 4.67,12.86 3.08,3.41 6.68,5.11 10.73,5.11 5.47,0 12.67,-3.61 21.63,-10.77z"/>
  <line class="fil1 str1" x1="858.8" y1="867.17" x2="2590.85" y2= "867.17" />
  <path class="fil2" d="M854.08 752.11l0 11.95 -633.01 0 0 -11.95c1.11,-0.22 5.1,-0.66 11.96,-1.33 16.49,-1.22 28.12,-5.43 34.65,-12.29 6.53,-6.97 9.86,-25.24 9.86,-54.8l0 -279.64c0,-28.45 -3.55,-46.61 -10.52,-54.58 -6.98,-7.97 -22.26,-12.51 -45.95,-13.84l0 -11.95 168.72 0 0 11.95c-21.25,2.22 -34.87,7.31 -40.85,15.5 -5.98,8.09 -8.97,25.79 -8.97,52.92l0 279.64c0,22.26 0.77,36.42 2.44,42.29 1.66,5.98 4.32,9.85 8.08,11.62 3.87,1.66 12.51,2.55 26.24,2.55l85.79 0c21.59,0 34.43,-1.77 38.31,-5.2 3.87,-3.43 5.87,-20.6 5.87,-51.26l0 -279.64c0,-26.46 -2.99,-43.95 -8.86,-52.48 -5.87,-8.41 -19.82,-13.73 -41.62,-15.94l0 -11.95 162.73 0 0 11.95c-21.48,2.22 -35.2,7.42 -41.07,15.83 -5.87,8.3 -8.75,25.9 -8.75,52.58l0 279.64c0,28.56 1.88,45.06 5.53,49.59 3.65,4.54 17.61,6.86 41.74,6.86l87.01 0c11.95,0 19.7,-0.99 23.36,-3.1 3.65,-1.99 5.98,-5.1 6.98,-9.19 0.99,-4.21 1.44,-18.93 1.44,-44.17l0 -279.64c0,-26.9 -2.99,-44.5 -8.97,-52.8 -6.09,-8.19 -19.93,-13.4 -41.52,-15.61l0 -11.95 168.72 0 0 11.95c-16.05,0.44 -28.01,2.88 -36.2,7.2 -8.08,4.32 -13.39,10.4 -15.83,18.37 -2.55,7.97 -3.76,22.26 -3.76,42.85l0 279.64c0,22.69 0.99,37.2 2.87,43.4 1.99,6.31 6.2,11.95 12.62,17.05 6.43,5.09 20.15,7.75 40.96,7.97z"/>
  <path id="1" class="fil2" d="M1213.94 764.06l-87.57 0c-27.23,-39.64 -51.8,-80.26 -73.95,-121.77 -5.2,-9.63 -9.85,-16.72 -14.06,-21.37 -4.2,-4.65 -9.96,-6.97 -17.38,-6.97 -2.55,0 -6.64,0.22 -12.29,0.66l0 79.71c0,21.48 1.22,35.09 3.77,41.07 2.43,5.98 6.86,10.19 13.39,12.85 6.43,2.55 17.38,3.87 32.66,3.87l0 11.95 -148.78 0 0 -11.95c19.26,0 31.66,-3.55 37.08,-10.52 5.43,-7.08 8.09,-22.81 8.09,-47.27l0 -158.08c0,-23.25 -1.22,-37.09 -3.55,-41.29 -2.43,-4.21 -6.08,-8.09 -11.07,-11.4 -4.98,-3.43 -15.17,-5.09 -30.56,-5.09l0 -11.96 148.78 0 0 11.96c-17.93,0 -29,1.32 -33.21,3.87 -4.2,2.65 -7.97,5.86 -11.4,9.63 -3.43,3.87 -5.2,18.6 -5.2,44.28l0 58.45c4.98,0.44 8.31,0.66 10.07,0.66 13.18,0 25.57,-3.76 37.09,-11.18 11.62,-7.41 21.92,-23.24 30.99,-47.49 8.41,-22.91 15.39,-38.3 20.93,-46.27 5.53,-8.08 13.18,-14.51 23.03,-19.6 9.85,-5.09 20.15,-7.64 30.89,-7.64 11.73,0 21.03,2.77 27.9,8.41 6.98,5.64 10.41,13.06 10.41,22.14 0,7.53 -2.44,13.95 -7.42,19.27 -4.98,5.31 -11.95,7.97 -20.81,7.97 -4.76,0 -10.62,-1.33 -17.82,-3.99 -9.08,-3.32 -15.94,-4.98 -20.7,-4.98 -9.97,0 -18.16,8.53 -24.69,25.69 -7.31,19.6 -12.73,32.21 -16.16,37.86 -3.55,5.76 -10.07,13.28 -19.82,22.8 6.64,1.99 13.95,7.08 21.92,15.17 7.86,8.08 22.47,31 43.95,68.63 17.05,30.11 29.89,49.27 38.41,57.57 8.53,8.31 20.93,12.62 37.09,13.07l0 11.29z"/>
  <path id="2" class="fil2" d="M1373.64 457.85c45.06,0 81.15,17.05 108.38,51.26 23.14,29.11 34.76,62.66 34.76,100.52 0,26.57 -6.42,53.47 -19.15,80.7 -12.73,27.23 -30.33,47.83 -52.7,61.66 -22.47,13.84 -47.38,20.7 -74.83,20.7 -44.83,0 -80.49,-17.82 -106.83,-53.47 -22.25,-30.11 -33.43,-63.76 -33.43,-101.18 0,-27.24 6.75,-54.36 20.25,-81.26 13.51,-26.9 31.33,-46.83 53.48,-59.67 22.03,-12.84 45.38,-19.27 70.07,-19.27zm-10.07 21.25c-11.4,0 -22.91,3.43 -34.54,10.19 -11.51,6.86 -20.93,18.71 -28.01,35.76 -7.19,17.04 -10.74,38.96 -10.74,65.75 0,43.18 8.64,80.37 25.79,111.71 17.16,31.33 39.86,46.94 67.97,46.94 20.93,0 38.19,-8.64 51.81,-25.9 13.61,-17.27 20.48,-46.94 20.48,-89.01 0,-52.7 -11.4,-94.1 -34.1,-124.32 -15.28,-20.7 -34.87,-31.11 -58.67,-31.11z"/>
  <path id="3" class="fil2" d="M1604.98 466.49l265.02 0 0 11.96c-14.72,0 -24.58,1.44 -29.45,4.43 -4.87,2.88 -8.64,6.53 -11.51,10.96 -2.77,4.32 -4.21,18.49 -4.21,42.4l0 158.08c0,22.91 1.22,36.64 3.55,41.07 2.43,4.43 6.2,8.31 11.29,11.74 5.1,3.32 15.17,4.98 30.33,4.98l0 11.95 -154.1 0 0 -11.95c16.61,0 28.12,-0.89 34.54,-2.55 6.42,-1.77 11.4,-5.98 15.05,-12.51 3.65,-6.64 5.54,-20.93 5.54,-42.73l0 -206.58 -98.97 0 0 125.43c0,47.38 -2.1,80.71 -6.31,99.86 -4.21,19.15 -12.62,33.32 -25.02,42.51 -12.4,9.19 -26.68,13.83 -42.73,13.83 -27.68,0 -41.52,-11.51 -41.52,-34.42 0,-7.86 2.22,-14.18 6.65,-19.15 4.43,-4.98 10.3,-7.53 17.38,-7.53 7.64,0 14.61,3.21 21.14,9.52 8.53,8.31 14.83,12.4 19.15,12.4 9.85,0 16.94,-8.19 21.37,-24.58 4.43,-16.49 6.64,-45.17 6.64,-86.24l0 -65.87c0,-33.77 -2.44,-54.36 -7.2,-61.77 -4.76,-7.31 -16.94,-11.74 -36.64,-13.28l0 -11.96z"/>
  <path id="4" class="fil2" d="M2020.08 599.33l36.87 -0.66c87.89,0 131.85,27.23 131.85,81.7 0,25.35 -10.74,45.61 -32.21,60.78 -21.48,15.28 -52.48,22.91 -92.88,22.91l-142.59 0 0 -11.95c19.26,0 31.66,-3.55 37.08,-10.52 5.43,-7.08 8.09,-22.81 8.09,-47.27l0 -158.08c0,-23.25 -1.22,-37.09 -3.55,-41.29 -2.43,-4.21 -6.08,-8.09 -11.07,-11.4 -4.98,-3.43 -15.17,-5.09 -30.56,-5.09l0 -11.96 155.43 0 0 11.96c-21.25,0 -34.42,1.22 -39.3,3.76 -4.98,2.55 -9.07,5.76 -12.28,9.74 -3.21,4.1 -4.88,18.82 -4.88,44.28l0 63.1zm0 138.93c11.4,2.99 22.81,4.54 34.21,4.54 21.59,0 39.08,-5.76 52.58,-17.16 13.4,-11.52 20.15,-26.02 20.15,-43.51 0,-41.51 -28.78,-62.21 -86.24,-62.21 -4.98,0 -11.85,0.11 -20.7,0.33l0 118.01z"/>
  <path id="5" class="fil2" d="M2345.5 599.33l128.2 0 0 -63.1c0,-18.93 -0.78,-31.33 -2.33,-37.09 -1.44,-5.76 -5.2,-10.62 -11.18,-14.61 -5.98,-4.1 -16.49,-6.08 -31.66,-6.08l0 -11.96 144.14 0 0 11.96c-13.4,0 -23.25,1.55 -29.45,4.53 -6.09,3.1 -10.3,7.53 -12.51,13.29 -2.1,5.76 -3.21,19.04 -3.21,39.96l0 158.08c0,18.82 0.77,31.21 2.44,37.31 1.66,6.09 5.53,10.96 11.85,14.83 6.31,3.76 16.6,5.65 30.89,5.65l0 11.95 -144.14 0 0 -11.95c17.93,0 30,-3.32 36.09,-9.85 6.08,-6.65 9.08,-22.58 9.08,-47.94l0 -73.73 -128.2 0 0 73.73c0,18.82 0.78,31.21 2.44,37.31 1.66,6.09 5.53,10.96 11.85,14.83 6.31,3.76 16.6,5.65 30.89,5.65l0 11.95 -144.14 0 0 -11.95c19.26,0 31.66,-3.55 37.08,-10.52 5.43,-7.08 8.09,-22.81 8.09,-47.27l0 -158.08c0,-18.93 -0.78,-31.44 -2.44,-37.53 -1.66,-6.08 -5.53,-10.96 -11.85,-14.72 -6.31,-3.65 -16.61,-5.53 -30.89,-5.53l0 -11.96 144.14 0 0 11.96c-13.4,0 -23.25,1.55 -29.45,4.53 -6.09,3.1 -10.3,7.53 -12.51,13.29 -2.1,5.76 -3.21,19.04 -3.21,39.96l0 63.1z"/>
  <path id="6" class="fil2" d="M2798.58 720.89c-30.44,23.58 -49.59,37.31 -57.46,40.96 -11.62,5.43 -24.02,8.19 -37.2,8.19 -20.59,0 -37.53,-7.08 -50.81,-21.14 -13.28,-14.06 -19.93,-32.55 -19.93,-55.46 0,-14.51 3.21,-27.12 9.74,-37.64 8.86,-14.72 24.25,-28.56 46.17,-41.62 22.03,-12.95 58.45,-28.78 109.48,-47.38l0 -11.62c0,-29.56 -4.65,-49.82 -14.06,-60.88 -9.41,-10.96 -23.02,-16.49 -40.96,-16.49 -13.51,0 -24.36,3.65 -32.33,11.07 -8.19,7.31 -12.28,15.72 -12.28,25.24l0.66 18.82c0,9.97 -2.55,17.72 -7.64,23.14 -5.09,5.43 -11.85,8.09 -20.04,8.09 -8.08,0 -14.72,-2.77 -19.81,-8.41 -5.1,-5.65 -7.64,-13.4 -7.64,-23.14 0,-18.6 9.52,-35.76 28.56,-51.37 19.04,-15.61 45.83,-23.36 80.26,-23.36 26.45,0 48.04,4.43 64.98,13.29 12.73,6.64 22.14,17.16 28.23,31.44 3.87,9.19 5.86,28.23 5.86,56.9l0 100.74c0,28.23 0.56,45.61 1.66,51.92 1.11,6.42 2.87,10.62 5.31,12.84 2.55,2.1 5.43,3.21 8.64,3.21 3.54,0 6.53,-0.77 9.19,-2.22 4.54,-2.87 13.28,-10.74 26.35,-23.69l0 18.15c-24.35,32.66 -47.6,48.93 -69.74,48.93 -10.63,0 -19.15,-3.65 -25.46,-10.96 -6.31,-7.41 -9.52,-19.93 -9.74,-37.53zm0 -21.15l0 -113.02c-32.88,12.95 -54.03,22.14 -63.66,27.56 -17.16,9.52 -29.45,19.37 -36.86,29.78 -7.42,10.4 -11.07,21.7 -11.07,33.98 0,15.61 4.65,28.45 14.06,38.75 9.3,10.3 20.15,15.39 32.32,15.39 16.5,0 38.2,-10.85 65.21,-32.44z"/>
  <path id="7" class="fil2" d="M3218.22 466.49l0 11.96c-13.4,0 -23.36,1.88 -29.78,5.53 -6.31,3.76 -10.52,8.41 -12.5,14.06 -1.89,5.65 -2.88,18.38 -2.88,38.2l0 158.08c0,18.82 0.89,31.21 2.55,37.2 1.77,5.98 5.98,10.85 12.62,14.72 6.53,3.87 16.61,5.87 30,5.87l0 11.95 -144.14 0 0 -11.95c17.93,0 30,-3.32 36.09,-9.85 6.08,-6.65 9.07,-22.58 9.07,-47.94l0 -64.76 -13.39 0.34c-1.88,0 -5.43,-0.11 -10.41,-0.34l-95.09 134.51 -73.39 0 0 -11.95c10.85,0 18.37,-1.44 22.58,-4.43 4.21,-2.87 11.96,-12.5 23.47,-28.78l69.41 -98.2c-49.71,-17.27 -74.62,-43.84 -74.62,-79.49 0,-20.15 8.97,-37.63 26.79,-52.47 17.82,-14.83 48.37,-22.26 91.44,-22.26l132.18 0zm-98.97 24.8c-8.41,-2.32 -16.38,-3.55 -23.91,-3.55 -21.81,0 -38.08,5.43 -48.93,16.16 -10.74,10.85 -16.16,23.69 -16.16,38.63 0,19.04 7.64,34.76 23.03,47.27 15.27,12.51 34.54,18.82 57.9,18.82 2.32,0 5.09,-0.22 8.08,-0.66l0 -116.68z"/>
  <path class="fil2" d="M1451.74 977.72l101.1 -48.73 10.1 0 0 349.23c0,23.22 0.93,37.8 2.91,43.52 1.98,5.62 5.94,10.1 12.08,13.12 6.14,3.02 18.64,4.79 37.48,5.2l0 11.25 -156.19 0 0 -11.25c19.58,-0.41 32.18,-2.08 37.8,-5.1 5.73,-2.91 9.68,-6.87 11.98,-11.87 2.19,-4.99 3.33,-19.99 3.33,-44.88l0 -223.66c0,-30.09 -1.04,-49.46 -3.02,-58 -1.46,-6.56 -4.06,-11.35 -7.81,-14.37 -3.85,-3.02 -8.33,-4.58 -13.64,-4.58 -7.6,0 -18.12,3.13 -31.54,9.47l-4.58 -9.37z"/>
  <path id="1" class="fil2" d="M1832.68 1142.75c-33.01,-26.86 -54.25,-48.41 -63.72,-64.66 -9.47,-16.25 -14.27,-33.11 -14.27,-50.61 0,-26.86 10.41,-49.98 31.24,-69.35 20.82,-19.47 48.41,-29.15 82.88,-29.15 33.53,0 60.39,9.06 80.8,27.18 20.41,18.01 30.62,38.63 30.62,61.85 0,15.41 -5.52,31.24 -16.45,47.27 -11.04,16.04 -33.95,34.99 -68.72,56.64 35.92,27.7 59.66,49.46 71.33,65.29 15.51,20.72 23.22,42.59 23.22,65.5 0,29.05 -11.15,53.93 -33.32,74.55 -22.28,20.61 -51.44,30.92 -87.56,30.92 -39.36,0 -70.08,-12.28 -92.04,-36.86 -17.6,-19.68 -26.35,-41.23 -26.35,-64.66 0,-18.22 6.14,-36.34 18.54,-54.35 12.28,-18.01 33.63,-37.8 63.82,-59.56zm48 -32.69c24.57,-22.08 40.09,-39.46 46.65,-52.27 6.56,-12.7 9.79,-27.17 9.79,-43.31 0,-21.45 -6.04,-38.22 -18.12,-50.4 -12.08,-12.18 -28.53,-18.22 -49.36,-18.22 -20.93,0 -37.9,6.04 -50.92,18.12 -13.12,11.97 -19.68,26.14 -19.68,42.27 0,10.62 2.71,21.24 8.13,31.86 5.41,10.62 13.12,20.72 23.22,30.3l50.29 41.65zm-33.63 44.35c-16.97,14.16 -29.47,29.57 -37.69,46.34 -8.12,16.66 -12.18,34.78 -12.18,54.25 0,26.14 7.18,47.07 21.55,62.79 14.37,15.72 32.7,23.53 54.98,23.53 21.97,0 39.67,-6.14 52.89,-18.54 13.22,-12.39 19.89,-27.38 19.89,-44.98 0,-14.58 -3.85,-27.7 -11.66,-39.26 -14.48,-21.45 -43.73,-49.56 -87.78,-84.13z"/>
  <polyline class="fil1 str1" points="76.81,233.75 103.73,256.06 98.55,344.1 "/>
  <polyline class="fil1 str1" points="50.89,265.59 77.47,282.33 169.1,273.53 "/>
  <polyline class="fil1 str1" points="65.52,871.16 92.43,848.85 87.25,760.82 "/>
  <polyline class="fil1 str1" points="39.59,839.32 66.18,822.59 157.81,831.38 "/>
  <polyline class="fil1 str1" points="3334.34,241.31 3307.43,263.62 3312.61,351.65 "/>
  <polyline class="fil1 str1" points="3360.26,273.15 3333.68,289.88 3242.05,281.09 "/>
  <polyline class="fil1 str1" points="3345.64,878.72 3318.72,856.4 3323.91,768.37 "/>
  <polyline class="fil1 str1" points="3371.57,846.88 3344.98,830.14 3253.35,838.94 "/>
 </g>
</svg>
