<?xml version="1.0" encoding="UTF-8"?>
<!DOCTYPE svg PUBLIC "-//W3C//DTD SVG 1.1//EN" "http://www.w3.org/Graphics/SVG/1.1/DTD/svg11.dtd">
<!-- Creator: CorelDRAW 2017 -->
<svg xmlns="http://www.w3.org/2000/svg" xml:space="preserve" version="1.1" style="shape-rendering:geometricPrecision; text-rendering:geometricPrecision; image-rendering:optimizeQuality; fill-rule:evenodd; clip-rule:evenodd"
viewBox="0 0 3607.71 1532.12"
 xmlns:xlink="http://www.w3.org/1999/xlink">
 <defs>
  <style type="text/css">
   <![CDATA[
    .fil2 {fill:#EBECEC}
    .fil0 {fill:black}
    .fil1 {fill:#FEFEFE;fill-rule:nonzero}
    .fil3 {fill:#EBECEC;fill-rule:nonzero}
   ]]>
  </style>
 </defs>
 <g id="Слой_x0020_1">
  <metadata id="CorelCorpID_0Corel-Layer"/>
  <path class="fil0" d="M1803.86 1532.12c-409.05,-17.4 -494.33,-214.94 -543.47,-232.29 -398.94,-176.34 -682.22,-305.4 -702.46,-435.49 -104.07,0 -231.27,14.46 -304.98,-13.01 -127.19,-43.36 -90.34,-113.84 -130.8,-177.43 -46.55,-77.59 -121.17,-102.21 -122.14,-183.5 7.71,-107.1 93.48,-89.9 127.2,-169.54 16.4,-50.38 -2.74,-142.23 132.16,-185.59 0,0 122.23,-4.29 339.04,0.58 158.99,-136.77 1146.9,-133.88 1205.46,-135.87 60.68,2.03 1046.47,-0.91 1205.46,135.87 216.81,-4.87 339.04,-0.58 339.04,-0.58 134.9,43.36 115.76,135.21 132.16,185.59 33.72,79.64 119.49,62.44 127.2,169.54 -0.97,81.28 -75.59,105.9 -122.14,183.5 -40.46,63.59 -3.61,134.07 -130.8,177.43 -73.71,27.46 -200.91,13.01 -304.98,13.01 -20.24,130.09 -303.52,259.15 -702.46,435.49 -49.14,17.35 -145.98,223.56 -543.47,232.29z"/>
  <path class="fil1" d="M758.61 405.29l0 108.62 -8.97 0c-6.77,-28.49 -19.28,-50.37 -37.7,-65.56 -18.42,-15.19 -39.27,-22.74 -62.57,-22.74 -19.44,0 -37.31,5.59 -53.6,16.84 -16.21,11.26 -28.1,25.97 -35.66,44.16 -9.68,23.3 -14.48,49.19 -14.48,77.68 0,28.02 3.55,53.6 10.55,76.66 7.09,22.98 18.1,40.45 33.13,52.18 15.04,11.8 34.55,17.71 58.48,17.71 19.68,0 37.62,-4.33 53.99,-12.91 16.29,-8.66 33.53,-23.46 51.63,-44.55l0 26.91c-17.47,18.34 -35.73,31.64 -54.7,39.91 -18.97,8.26 -41.08,12.35 -66.43,12.35 -33.37,0 -62.97,-6.69 -88.78,-20.07 -25.9,-13.38 -45.89,-32.66 -59.89,-57.69 -14.09,-25.11 -21.09,-51.79 -21.09,-80.13 0,-29.82 7.79,-58.16 23.37,-84.92 15.59,-26.76 36.6,-47.54 63.12,-62.34 26.45,-14.72 54.55,-22.12 84.37,-22.12 21.96,0 45.1,4.8 69.5,14.33 14.17,5.59 23.14,8.34 26.92,8.34 4.96,0 9.21,-1.81 12.83,-5.43 3.62,-3.62 5.91,-9.36 7.01,-17.24l8.97 0z"/>
  <path id="1" class="fil1" d="M1011.09 636.21l-109.48 0 -13.61 30.54c-4.33,10.23 -6.46,18.73 -6.46,25.42 0,8.89 3.55,15.42 10.55,19.68 4.17,2.44 14.41,4.33 30.7,5.58l0 8.03 -103.98 0 0 -8.03c11.18,-1.73 20.46,-6.45 27.63,-14.09 7.24,-7.71 16.22,-23.61 26.77,-47.69l111.76 -249.42 4.41 0 112.79 256.35c10.78,24.55 19.6,40.06 26.52,46.44 5.27,4.88 12.6,7.63 22.19,8.42l0 8.03 -151.27 0 0 -8.03 6.22 0c12.12,0 20.7,-1.73 25.58,-5.19 3.38,-2.44 5.04,-6.06 5.04,-10.71 0,-2.83 -0.4,-5.75 -1.34,-8.74 -0.31,-1.34 -2.6,-7.24 -6.93,-17.55l-17.08 -39.04zm-7.4 -17l-46.67 -106.65 -47.77 106.65 94.45 0z"/>
  <path id="2" class="fil1" d="M1267.26 412.37l258.31 0 0 8.02c-18.97,0.63 -31.01,3.54 -36.2,8.66 -5.11,5.19 -7.71,16.29 -7.71,33.29l0 209.76c0,13.22 1.02,22.43 2.99,27.63 1.97,5.19 6.29,9.44 13.06,12.75 6.77,3.31 16.06,4.96 27.86,4.96l0 99.17 -8.02 0c-1.81,-27 -11.73,-48.95 -29.51,-65.8 -17.87,-16.92 -42.35,-25.34 -73.44,-25.34l-85.16 0c-32.19,0 -58.01,7.87 -77.45,23.61 -19.52,15.74 -30.77,38.25 -33.84,67.53l-8.03 0 0 -99.17c37.78,-7.87 64.85,-33.77 81.23,-77.6 16.37,-43.92 24.55,-102.63 24.55,-176.15 0,-17.79 -3.07,-29.36 -9.13,-34.86 -6.14,-5.43 -19.28,-8.27 -39.51,-8.42l0 -8.02zm147.34 20.3l-78.39 0 0 26.77c0,37.62 -2.52,74.22 -7.63,109.95 -5.04,35.73 -11.96,63.75 -20.7,84.14 -8.82,20.39 -20.46,37.62 -35.1,51.63l111.21 0c15.04,0 23.93,-1.02 26.61,-3.15 2.67,-2.05 4.01,-8.82 4.01,-20.15l0 -249.19z"/>
  <path id="3" class="fil1" d="M1771.13 408.59c49.82,-1.81 90.36,12.67 121.52,43.52 31.17,30.94 46.75,69.5 46.75,115.94 0,39.59 -11.65,74.46 -34.87,104.6 -30.77,39.9 -74.22,59.89 -130.42,59.89 -56.35,0 -99.88,-19.05 -130.65,-57.14 -24.32,-30.14 -36.52,-65.8 -36.52,-107.12 0,-46.44 15.82,-85.08 47.46,-116.01 31.64,-31.01 70.52,-45.49 116.72,-43.68zm2.75 14.64c-28.73,0 -50.53,14.56 -65.56,43.76 -12.2,23.92 -18.26,58.32 -18.26,103.18 0,53.29 9.45,92.72 28.26,118.22 13.15,17.79 31.48,26.68 55.09,26.68 15.9,0 29.2,-3.85 39.83,-11.49 13.54,-9.84 24.16,-25.58 31.72,-47.14 7.56,-21.57 11.33,-49.75 11.33,-84.38 0,-41.32 -3.86,-72.25 -11.57,-92.72 -7.71,-20.54 -17.55,-35.02 -29.51,-43.44 -11.96,-8.42 -25.73,-12.67 -41.32,-12.67z"/>
  <path id="4" class="fil1" d="M2219.89 559.32c29.82,6.93 50.84,15.34 62.88,25.19 17.32,14.01 25.97,32.19 25.97,54.54 0,23.54 -9.44,43.05 -28.41,58.48 -23.22,18.65 -56.98,27.94 -101.22,27.94l-158.99 0 0 -8.03c14.49,0 24.32,-1.34 29.44,-4.09 5.2,-2.67 8.82,-6.22 10.87,-10.55 2.12,-4.33 3.15,-15.03 3.15,-32.11l0 -203.54c0,-17.08 -1.02,-27.78 -3.15,-32.19 -2.05,-4.41 -5.75,-7.95 -10.94,-10.63 -5.28,-2.6 -15.04,-3.93 -29.36,-3.93l0 -8.02 150.02 0c35.89,0 61.24,3.22 76.19,9.6 14.96,6.38 26.68,15.9 35.34,28.57 8.58,12.68 12.91,26.21 12.91,40.46 0,15.11 -5.51,28.49 -16.52,40.3 -11.02,11.73 -30.38,21.09 -58.16,28.02zm-84.06 -6.22c22.04,0 38.33,-2.44 48.8,-7.4 10.47,-4.88 18.5,-11.8 24.09,-20.78 5.59,-8.89 8.42,-20.31 8.42,-34.16 0,-13.85 -2.75,-25.19 -8.26,-34 -5.51,-8.89 -13.38,-15.58 -23.69,-20.23 -10.23,-4.65 -26.68,-6.85 -49.35,-6.69l0 123.25zm0 17.95l0 100.27 0 11.57c0,8.27 2.05,14.56 6.22,18.73 4.17,4.25 10.31,6.38 18.49,6.38 12.12,0 23.22,-2.75 33.45,-8.19 10.23,-5.43 18.02,-13.3 23.46,-23.69 5.43,-10.32 8.19,-21.88 8.19,-34.56 0,-14.56 -3.07,-27.62 -9.13,-39.19 -6.14,-11.57 -15.11,-19.76 -27.08,-24.48 -11.96,-4.72 -29.83,-7.01 -53.6,-6.84z"/>
  <path id="5" class="fil1" d="M2545.48 636.21l-109.48 0 -13.61 30.54c-4.33,10.23 -6.46,18.73 -6.46,25.42 0,8.89 3.55,15.42 10.55,19.68 4.17,2.44 14.41,4.33 30.7,5.58l0 8.03 -103.98 0 0 -8.03c11.18,-1.73 20.46,-6.45 27.63,-14.09 7.24,-7.71 16.22,-23.61 26.77,-47.69l111.76 -249.42 4.41 0 112.79 256.35c10.78,24.55 19.6,40.06 26.52,46.44 5.27,4.88 12.6,7.63 22.19,8.42l0 8.03 -151.27 0 0 -8.03 6.22 0c12.12,0 20.7,-1.73 25.58,-5.19 3.38,-2.44 5.04,-6.06 5.04,-10.71 0,-2.83 -0.4,-5.75 -1.34,-8.74 -0.31,-1.34 -2.6,-7.24 -6.93,-17.55l-17.08 -39.04zm-7.4 -17l-46.67 -106.65 -47.77 106.65 94.45 0z"/>
  <path id="6" class="fil1" d="M2958.44 582.85l0 88.31c0,16.85 -1.02,27.55 -3.15,31.88 -2.05,4.41 -5.75,7.87 -10.94,10.47 -5.28,2.6 -15.04,3.93 -29.36,3.93l0 8.03 160.08 0 0 -8.03c-14.48,0 -24.32,-1.34 -29.43,-4.01 -5.2,-2.68 -8.82,-6.22 -10.87,-10.47 -2.12,-4.33 -3.15,-14.95 -3.15,-31.8l0 -204.48c0,-16.92 1.02,-27.55 3.15,-31.87 2.05,-4.41 5.75,-7.87 10.94,-10.47 5.28,-2.6 15.04,-3.93 29.36,-3.93l0 -8.02 -145.45 0c-37.86,0 -65.48,2.6 -83.04,7.87 -17.55,5.2 -31.88,14.88 -42.98,29.04 -11.1,14.09 -16.6,30.62 -16.6,49.58 0,23.06 8.34,42.19 24.95,57.3 10.63,9.6 25.5,16.76 44.63,21.48l-75.01 106.02c-9.92,13.62 -17,22.12 -21.17,25.5 -6.29,4.72 -13.69,7.32 -22.04,7.79l0 8.5 98.54 0 100.98 -142.62 20.55 0zm0 -153l0 136.47 -13.15 0c-21.41,0 -37.46,-1.97 -48.09,-5.82 -10.62,-3.93 -18.97,-11.02 -25.03,-21.18 -6.06,-10.15 -9.13,-23.46 -9.13,-39.82 0,-23.77 5.59,-41.32 16.77,-52.66 11.17,-11.33 29.12,-17 53.91,-17l24.72 0z"/>
  <path class="fil1" d="M1437.28 269.72l-43.27 -99.6c-6.5,-15.16 -11.3,-24.49 -14.38,-27.96 -3.13,-3.47 -6.84,-5.87 -11.25,-7.24l0 -4.99 71.29 0 0 4.99c-4.65,0.19 -7.97,1.12 -9.88,2.74 -1.9,1.66 -2.84,3.62 -2.84,5.97 0,3.62 2.35,10.85 7.14,21.66l22.93 52.86 15.64 -40.73c5.63,-14.57 8.41,-24.74 8.41,-30.46 0,-3.57 -1.17,-6.41 -3.47,-8.56 -2.35,-2.1 -6.5,-3.28 -12.42,-3.47l0 -4.99 44.5 0 0 4.99c-4.4,0.49 -7.97,2.2 -10.76,5.13 -2.79,2.94 -7.38,12.96 -13.89,30.07l-38.14 99.46c-9.64,24.79 -16.77,40.04 -21.46,45.77 -6.6,8.02 -14.82,12.03 -24.74,12.03 -7.92,0 -14.38,-2.3 -19.27,-6.85 -4.94,-4.55 -7.39,-10.02 -7.39,-16.42 0,-5.58 1.71,-10.17 5.09,-13.79 3.42,-3.67 7.57,-5.48 12.56,-5.48 4.79,0 8.66,1.51 11.59,4.6 2.89,3.08 4.4,7.87 4.5,14.33 0.1,3.67 0.49,6.01 1.17,7.04 0.83,1.08 1.95,1.62 3.42,1.62 2.25,0 4.7,-1.37 7.29,-4.16 3.81,-4.06 8.26,-13.25 13.44,-27.63l4.15 -10.9z"/>
  <path id="1" class="fil1" d="M1621.75 264l0 -4.99c4.75,-0.09 8.71,-1.32 11.78,-3.62 3.08,-2.3 4.65,-7.43 4.65,-15.45l0 -100.63 -37.84 0 0 58.53c0,21.08 -1.03,35.6 -3.13,43.61 -2.1,8.02 -6.16,14.18 -12.18,18.43 -6.01,4.3 -12.42,6.46 -19.22,6.46 -7.63,0 -13.74,-2.35 -18.38,-6.99 -4.65,-4.65 -6.94,-9.97 -6.94,-15.99 0,-5.87 1.71,-10.61 5.08,-14.33 3.37,-3.67 7.72,-5.53 13.06,-5.53 10.22,0 15.31,6.26 15.31,18.77 0,5.68 1.07,8.51 3.27,8.51 4.21,0 7.43,-3.47 9.73,-10.47 2.3,-6.99 3.42,-21.22 3.42,-42.63l0 -39.02c0,-8.95 -1.17,-15.06 -3.57,-18.38 -2.4,-3.28 -6.46,-5.08 -12.27,-5.38l0 -4.99 118.23 0 0 4.99c-9.59,0.19 -14.38,6.36 -14.38,18.48l0 85.96c0,6.74 1.03,11.63 3.03,14.72 2,3.08 5.77,4.74 11.35,4.93l0 4.99 -71 0z"/>
  <path id="2" class="fil1" d="M1827.5 264l0 -4.99c8.61,0 12.91,-6.55 12.91,-19.65l0 -66.01 -38.43 66.01c0.09,12.81 4.5,19.36 13.2,19.65l0 4.99 -68.36 0 0 -4.99c5.43,0 9.24,-1.56 11.54,-4.65 2.3,-3.08 3.42,-8.46 3.42,-16.18l0 -83.03c0,-13.49 -4.98,-20.24 -14.96,-20.24l0 -4.99 68.36 0 0 4.99c-5.04,0.19 -8.51,1.61 -10.37,4.35 -1.91,2.69 -2.84,7.97 -2.84,15.89l0 65.72 38.43 -66.6c-0.1,-7.23 -1.12,-12.27 -3.13,-15.11 -2.05,-2.84 -5.28,-4.25 -9.78,-4.25l0 -4.99 68.36 0 0 4.99c-5.18,0.09 -9,1.42 -11.49,3.91 -2.49,2.54 -3.77,7.39 -3.77,14.58l0 85.37c0,8.07 1.12,13.44 3.37,16.18 2.25,2.69 6.21,4.06 11.88,4.06l0 4.99 -68.36 0z"/>
  <path id="3" class="fil1" d="M2098.43 259.01l0 40.2 -5.57 0c-0.98,-11.05 -4.85,-19.71 -11.69,-25.92 -6.84,-6.21 -19.02,-9.29 -36.62,-9.29l-95.16 0 0 -4.99c5.72,0 9.64,-1.51 11.74,-4.55 2.15,-3.03 3.22,-9.14 3.22,-18.33l0 -79.51c0,-9.83 -1.17,-15.84 -3.57,-18.14 -2.35,-2.3 -6.16,-3.47 -11.4,-3.57l0 -4.99 68.36 0 0 4.99c-4.94,0.19 -8.36,1.37 -10.32,3.57 -1.91,2.2 -2.89,7.73 -2.89,16.67l0 78.63c0,9.39 0.97,15.31 2.93,17.75 1.96,2.45 6.31,3.67 13.01,3.67l7.72 0c6.01,0 9.98,-1.17 11.88,-3.47 1.9,-2.3 2.89,-8.12 2.89,-17.36l0 -77.75c0,-9.24 -0.88,-15.16 -2.64,-17.8 -1.76,-2.59 -5.18,-3.91 -10.27,-3.91l0 -4.99 68.36 0 0 4.99c-5.67,0.19 -9.63,1.71 -11.88,4.6 -2.25,2.84 -3.37,8.07 -3.37,15.64l0 81.56c0,8.9 0.98,14.81 2.94,17.75 2,2.94 6.06,4.45 12.32,4.55z"/>
  <path id="4" class="fil1" d="M2225.89 244.05c-16.33,14.48 -31.05,21.71 -44.01,21.71 -7.67,0 -14.03,-2.49 -19.12,-7.53 -5.04,-4.99 -7.58,-11.3 -7.58,-18.82 0,-10.22 4.4,-19.41 13.2,-27.58 8.81,-8.16 27.97,-19.02 57.5,-32.56l0 -13.45c0,-10.07 -0.54,-16.43 -1.66,-19.07 -1.07,-2.59 -3.18,-4.89 -6.26,-6.85 -3.08,-1.95 -6.55,-2.93 -10.37,-2.93 -6.26,0 -11.4,1.37 -15.41,4.15 -2.49,1.71 -3.72,3.72 -3.72,6.01 0,2 1.32,4.45 4.01,7.43 3.62,4.11 5.43,8.07 5.43,11.88 0,4.65 -1.72,8.66 -5.23,11.93 -3.47,3.27 -8.02,4.93 -13.64,4.93 -6.01,0 -11.05,-1.8 -15.11,-5.43 -4.06,-3.62 -6.11,-7.87 -6.11,-12.71 0,-6.89 2.74,-13.45 8.17,-19.71 5.47,-6.21 13.05,-11 22.78,-14.38 9.78,-3.32 19.9,-4.99 30.42,-4.99 12.71,0 22.78,2.69 30.17,8.07 7.43,5.38 12.22,11.2 14.43,17.5 1.32,4.02 2,13.21 2,27.58l0 51.88c0,6.06 0.24,9.93 0.73,11.49 0.49,1.57 1.17,2.74 2.15,3.52 0.97,0.73 2.05,1.12 3.27,1.12 2.54,0 5.08,-1.71 7.72,-5.13l4.3 3.32c-4.79,7.09 -9.73,12.28 -14.86,15.46 -5.08,3.22 -10.9,4.84 -17.4,4.84 -7.63,0 -13.64,-1.81 -17.95,-5.38 -4.3,-3.62 -6.89,-9.05 -7.87,-16.34zm0 -10.56l0 -44.59c-11.54,6.79 -20.15,14.03 -25.82,21.76 -3.72,5.14 -5.58,10.37 -5.58,15.6 0,4.4 1.57,8.27 4.75,11.59 2.4,2.59 5.72,3.87 10.02,3.87 4.79,0 10.32,-2.74 16.62,-8.22z"/>
  <path class="fil1" d="M1783.12 1335.44l-270.57 0 0 -7.52c83.32,-98.72 133.78,-165.14 151.37,-199.28 17.59,-34.14 26.38,-67.47 26.38,-99.99 0,-23.72 -7.41,-43.51 -22.1,-59.14 -14.7,-15.74 -32.64,-23.61 -53.93,-23.61 -34.84,0 -61.8,17.48 -81.01,52.31l-12.61 -4.4c12.26,-43.52 30.79,-75.69 55.67,-96.52 24.88,-20.83 53.58,-31.25 86.1,-31.25 23.26,0 44.56,5.44 63.77,16.32 19.22,10.76 34.26,25.69 45.02,44.56 10.88,18.87 16.32,36.57 16.32,53.12 0,29.97 -8.33,60.53 -25,91.54 -22.79,41.78 -72.68,100.11 -149.41,174.98l99.3 0c24.42,0 40.27,-1.04 47.57,-3.01 7.41,-2.08 13.43,-5.44 18.17,-10.3 4.75,-4.86 10.88,-14.93 18.63,-30.44l12.26 0 -25.92 132.63z"/>
  <path id="1" class="fil1" d="M1850.2 1162.54l217.69 -296.5 41.32 0 0 296.5 42.36 0 0 70.13 -42.36 0 0 102.77 -93.05 0 0 -102.77 -165.95 0 0 -70.13zm31.71 0l134.24 0 0 -182.85 -134.24 182.85z"/>
  <path class="fil2" d="M1168.89 904.05c19.16,0 34.69,15.53 34.69,34.69 0,19.16 -15.53,34.69 -34.69,34.69 -14.37,0 -26.7,-8.74 -31.97,-21.2l-146.59 -0.52 0 -27.2 146.69 0.52c5.31,-12.34 17.59,-20.98 31.87,-20.98z"/>
  <path class="fil2" d="M2474.93 904.38c-19.16,0 -34.69,15.53 -34.69,34.69 0,19.16 15.53,34.69 34.69,34.69 14.37,0 26.71,-8.75 31.97,-21.2l146.59 -0.52 0 -27.21 -146.69 0.52c-5.31,-12.33 -17.59,-20.97 -31.87,-20.97z"/>
  <path class="fil3" d="M1803.32 1493.51c-301.95,-12.84 -418.38,-129.6 -477.17,-188.56 -15.1,-15.15 -26,-26.07 -33.25,-28.63l-0.96 -0.38c-186.32,-82.36 -358.09,-166.07 -485.8,-244.49 -122.73,-75.35 -205.53,-146.84 -223.31,-209.24 -22.81,0.21 -46.04,1.05 -69.72,1.89 -81.28,2.91 -167.68,5.99 -221.06,-13.71 -88.1,-30.01 -98.57,-73.01 -109.47,-117.84 -4.37,-17.95 -8.82,-36.26 -19.52,-53.07l-0.21 -0.32c-17.4,-29.01 -40.1,-41.82 -59.88,-52.98 -30.43,-17.17 -55.25,-31.18 -55.85,-81.14l0 -1.12c4.58,-63.74 35.26,-84.74 67.11,-106.52 19.86,-13.6 40.29,-27.58 52.17,-55.04 2.97,-9.35 4.09,-20.62 5.25,-32.53 4.66,-47.58 10.19,-103.99 115.67,-137.9l2.17 -0.69 2 0c0.5,0 171.4,0.33 373.56,4.82 151.94,-118.12 951.69,-133.74 1112.92,-136.88l26.33 -0.56c4.93,0.16 15.46,0.33 30.95,0.56 173.07,2.64 951.69,14.54 1101.99,131.41 199.56,-4.45 359.91,-5.89 360.37,-5.89l2.2 -0.03 2.07 0.67c106.6,34.27 114.34,94.96 120.6,144.14 1.49,11.73 2.9,22.71 5.78,31.75 11.88,27.45 32.31,41.44 52.17,55.04 31.84,21.79 62.52,42.8 67.1,106.53l0 1.12c-0.62,52.26 -29.1,80.73 -61.71,113.32 -18.4,18.39 -38.27,38.24 -54.02,64.5l-0.21 0.32c-11.22,17.63 -12.91,33.24 -14.43,47.26 -3.74,34.49 -6.68,61.6 -92.71,90.92 -54.35,20.05 -151.11,17.1 -237.61,14.47 -23.14,-0.7 -45.52,-1.38 -67.39,-1.57 -17.65,62.19 -99.2,131.07 -220.7,203.84 -126.43,75.72 -296.74,156.66 -482.96,238.97l-0.96 0.38c-7.3,2.57 -18.75,13.93 -34.59,29.66 -61.31,60.85 -182.48,181.09 -476.1,187.54l-0.81 0zm-457.85 -207.77c56.24,56.41 167.62,168.1 458.62,180.55 282.3,-6.33 398.23,-121.39 456.92,-179.63 18.11,-17.98 31.29,-31.03 44.1,-35.83 185.39,-81.96 354.67,-162.38 479.65,-237.24 122.36,-73.29 201.64,-140.22 210.35,-196.25l1.8 -11.58 11.65 0c22.44,0 50.18,0.84 79.01,1.72 84.24,2.57 178.48,5.44 227.75,-12.91l0.37 -0.16c69.56,-23.71 71.68,-43.21 74.36,-67.99 1.83,-16.91 3.87,-35.73 18.37,-58.66 17.52,-29.21 38.62,-50.3 58.18,-69.84 28.21,-28.19 52.87,-52.84 53.7,-93.43 -3.7,-50.42 -28.99,-67.74 -55.24,-85.71 -23.27,-15.92 -47.21,-32.3 -62.2,-67.72l-0.42 -1.07c-3.68,-11.3 -5.27,-23.77 -6.96,-37.09 -5.24,-41.17 -11.72,-91.89 -99.93,-120.97 -20.23,0.19 -174.04,1.74 -362.66,5.98l-5.21 0.12 -3.92 -3.37c-132.13,-113.67 -915.93,-125.63 -1088.84,-128.27 -15.63,-0.24 -26.4,-0.4 -31.1,-0.55l-25.43 0.54c-161.1,3.14 -966.33,18.84 -1099.88,133.74l-3.91 3.37 -5.21 -0.12c-187.61,-4.22 -355.68,-4.76 -375.87,-4.81 -86.4,28.49 -90.95,74.76 -94.78,113.83 -1.34,13.71 -2.62,26.69 -6.53,38.72l-0.42 1.07c-15,35.42 -38.94,51.8 -62.21,67.72 -26.25,17.97 -51.54,35.28 -55.23,85.7 0.71,33.6 19.27,44.08 41.97,56.88 22.73,12.83 48.83,27.55 69.9,62.69 13,20.56 17.96,40.95 22.82,60.96 9.1,37.39 17.83,73.25 91.75,98.45l0.37 0.16c48.25,17.97 132.11,14.97 210.98,12.14 28.99,-1.04 57.35,-2.05 81.55,-2.05l11.65 0 1.8 11.58c8.73,56.13 89.39,125.76 213.19,201.77 126.4,77.61 296.99,160.73 482.28,242.65 12.83,4.8 25.47,17.45 42.87,34.91z"/>
 </g>
</svg>
